G04 #@! TF.FileFunction,Copper,L2,Bot,Signal*
%FSLAX46Y46*%
G04 Gerber Fmt 4.6, Leading zero omitted, Abs format (unit mm)*
G04 Created by KiCad (PCBNEW 4.0.1-stable) date 2017/09/04 6:08:59*
%MOMM*%
G01*
G04 APERTURE LIST*
%ADD10C,0.100000*%
%ADD11C,0.700000*%
%ADD12R,1.397000X1.397000*%
%ADD13C,1.397000*%
%ADD14R,1.524000X1.524000*%
%ADD15C,1.524000*%
%ADD16C,2.000000*%
%ADD17C,3.000000*%
%ADD18C,3.500000*%
%ADD19C,0.600000*%
%ADD20C,0.500000*%
%ADD21C,0.250000*%
%ADD22C,0.254000*%
G04 APERTURE END LIST*
D10*
D11*
X206300000Y-118100000D03*
X180700000Y-126300000D03*
X180700000Y-105300000D03*
X180700000Y-111300000D03*
X180700000Y-115900000D03*
X180700000Y-120900000D03*
X185300000Y-120900000D03*
X185300000Y-111300000D03*
X185300000Y-115900000D03*
X190300000Y-115900000D03*
X214900000Y-104500000D03*
X228300000Y-117100000D03*
X228300000Y-111700000D03*
X193700000Y-114300000D03*
X228300000Y-104700000D03*
X218300000Y-124900000D03*
X213900000Y-122700000D03*
X210500000Y-126300000D03*
X211300000Y-118100000D03*
D12*
X218500000Y-116500000D03*
D13*
X215960000Y-116500000D03*
X213420000Y-116500000D03*
D12*
X225420000Y-119880000D03*
D13*
X227960000Y-119880000D03*
X225420000Y-122420000D03*
X227960000Y-122420000D03*
X225420000Y-124960000D03*
X227960000Y-124960000D03*
D12*
X208500000Y-105500000D03*
D13*
X205960000Y-105500000D03*
D14*
X180770000Y-123820000D03*
D15*
X183310000Y-123820000D03*
X185850000Y-123820000D03*
X188390000Y-123820000D03*
X190930000Y-123820000D03*
X193470000Y-123820000D03*
X196010000Y-123820000D03*
X198550000Y-123820000D03*
X201090000Y-123820000D03*
X203630000Y-123820000D03*
X206170000Y-123820000D03*
X208710000Y-123820000D03*
X208710000Y-108580000D03*
X206170000Y-108580000D03*
X203630000Y-108580000D03*
X201090000Y-108580000D03*
X198550000Y-108580000D03*
X196010000Y-108580000D03*
X193470000Y-108580000D03*
X190930000Y-108580000D03*
X188390000Y-108580000D03*
X185850000Y-108580000D03*
X183310000Y-108580000D03*
X180770000Y-108580000D03*
D16*
X215240000Y-111500000D03*
X212700000Y-111500000D03*
X210160000Y-111500000D03*
X205080000Y-111500000D03*
X202540000Y-111500000D03*
X200000000Y-111500000D03*
X194920000Y-111500000D03*
X192380000Y-111500000D03*
D17*
X200000000Y-120500000D03*
D18*
X200000000Y-117000000D03*
D17*
X204000000Y-120500000D03*
X208000000Y-120500000D03*
X212000000Y-120500000D03*
X216000000Y-120500000D03*
X220000000Y-120500000D03*
X196000000Y-120500000D03*
X192000000Y-120500000D03*
X188000000Y-120500000D03*
D16*
X196400000Y-105500000D03*
D13*
X212190000Y-123500000D03*
X219810000Y-123500000D03*
X212190000Y-126000000D03*
X219810000Y-126000000D03*
D12*
X191310000Y-105500000D03*
D13*
X183690000Y-105500000D03*
D11*
X190300000Y-111300000D03*
D19*
X210700000Y-107300000D03*
X207500000Y-110750000D03*
D20*
X219810000Y-123500000D02*
X220100000Y-123500000D01*
X220100000Y-123500000D02*
X222900000Y-120700000D01*
X222900000Y-120700000D02*
X222900000Y-120192998D01*
X227261501Y-119181501D02*
X227960000Y-119880000D01*
X222900000Y-120192998D02*
X224361499Y-118731499D01*
X224361499Y-118731499D02*
X226811499Y-118731499D01*
X226811499Y-118731499D02*
X227261501Y-119181501D01*
X200000000Y-111500000D02*
X202417999Y-109082001D01*
X202417999Y-109082001D02*
X202417999Y-107998239D01*
X202417999Y-107998239D02*
X203516238Y-106900000D01*
X203516238Y-106900000D02*
X207100000Y-106900000D01*
X207100000Y-106900000D02*
X208500000Y-105500000D01*
X208051510Y-105948487D02*
X208500000Y-105500000D01*
X208051510Y-105368583D02*
X208051510Y-105948487D01*
X183690000Y-105500000D02*
X185310000Y-105500000D01*
X185310000Y-105500000D02*
X188390000Y-108580000D01*
X200000000Y-117000000D02*
X200000000Y-120500000D01*
X202540000Y-111500000D02*
X202540000Y-114460000D01*
X202540000Y-114460000D02*
X200000000Y-117000000D01*
X204000000Y-120500000D02*
X204000000Y-112580000D01*
X204000000Y-112580000D02*
X205080000Y-111500000D01*
D21*
X213420000Y-116500000D02*
X213420000Y-115220000D01*
X213420000Y-115220000D02*
X210160000Y-111960000D01*
X210160000Y-111960000D02*
X210160000Y-111500000D01*
X210160000Y-111500000D02*
X210160000Y-110030000D01*
X210160000Y-110030000D02*
X208710000Y-108580000D01*
X208500000Y-107910000D02*
X208970000Y-108380000D01*
D20*
X196000000Y-120500000D02*
X196000000Y-113353998D01*
X196000000Y-113353998D02*
X199877999Y-109475999D01*
X199877999Y-109475999D02*
X199877999Y-107722001D01*
X199877999Y-107722001D02*
X202100000Y-105500000D01*
X202100000Y-105500000D02*
X205960000Y-105500000D01*
D21*
X220000000Y-120500000D02*
X220000000Y-114845787D01*
X220000000Y-114845787D02*
X216654213Y-111500000D01*
X216654213Y-111500000D02*
X215240000Y-111500000D01*
X212500000Y-111300000D02*
X212500000Y-109100000D01*
X212500000Y-109100000D02*
X210999999Y-107599999D01*
X210999999Y-107599999D02*
X210700000Y-107300000D01*
X212000000Y-120500000D02*
X214443501Y-118056499D01*
X214443501Y-118056499D02*
X214443501Y-115243501D01*
X214443501Y-115243501D02*
X212700000Y-113500000D01*
X212700000Y-113500000D02*
X212700000Y-111500000D01*
X207500000Y-110750000D02*
X207500000Y-109910000D01*
X207500000Y-109910000D02*
X206170000Y-108580000D01*
X192000000Y-120500000D02*
X194920000Y-117580000D01*
X194920000Y-117580000D02*
X194920000Y-111500000D01*
X212190000Y-123500000D02*
X209900000Y-121210000D01*
X209900000Y-121210000D02*
X209900000Y-114300000D01*
X209900000Y-114300000D02*
X205700000Y-110100000D01*
X205700000Y-110100000D02*
X204100000Y-110100000D01*
X204100000Y-110100000D02*
X203630000Y-109630000D01*
X203630000Y-109630000D02*
X203630000Y-108580000D01*
X188000000Y-120500000D02*
X192380000Y-116120000D01*
X192380000Y-116120000D02*
X192380000Y-111500000D01*
X208000000Y-120500000D02*
X206170000Y-122330000D01*
X206170000Y-122330000D02*
X206170000Y-123820000D01*
X212190000Y-126000000D02*
X211166499Y-124976499D01*
X211166499Y-124976499D02*
X211166499Y-123666499D01*
X211166499Y-123666499D02*
X208000000Y-120500000D01*
D22*
G36*
X195525736Y-104080613D02*
X195427073Y-104347468D01*
X196400000Y-105320395D01*
X197372927Y-104347468D01*
X197274264Y-104080613D01*
X197062662Y-104002000D01*
X228450559Y-104002000D01*
X229069496Y-104125115D01*
X229552292Y-104447708D01*
X229874886Y-104930504D01*
X229998000Y-105549441D01*
X229998000Y-125450559D01*
X229874886Y-126069496D01*
X229552292Y-126552292D01*
X229069496Y-126874885D01*
X228450559Y-126998000D01*
X220341940Y-126998000D01*
X220446712Y-126954709D01*
X220763596Y-126638377D01*
X220935304Y-126224858D01*
X220935695Y-125777106D01*
X220764709Y-125363288D01*
X220584630Y-125182894D01*
X224294305Y-125182894D01*
X224465291Y-125596712D01*
X224781623Y-125913596D01*
X225195142Y-126085304D01*
X225642894Y-126085695D01*
X226056712Y-125914709D01*
X226077268Y-125894188D01*
X227205417Y-125894188D01*
X227267071Y-126129800D01*
X227767480Y-126305927D01*
X228297199Y-126277148D01*
X228652929Y-126129800D01*
X228714583Y-125894188D01*
X227960000Y-125139605D01*
X227205417Y-125894188D01*
X226077268Y-125894188D01*
X226373596Y-125598377D01*
X226545304Y-125184858D01*
X226545668Y-124767480D01*
X226614073Y-124767480D01*
X226642852Y-125297199D01*
X226790200Y-125652929D01*
X227025812Y-125714583D01*
X227780395Y-124960000D01*
X228139605Y-124960000D01*
X228894188Y-125714583D01*
X229129800Y-125652929D01*
X229305927Y-125152520D01*
X229277148Y-124622801D01*
X229129800Y-124267071D01*
X228894188Y-124205417D01*
X228139605Y-124960000D01*
X227780395Y-124960000D01*
X227025812Y-124205417D01*
X226790200Y-124267071D01*
X226614073Y-124767480D01*
X226545668Y-124767480D01*
X226545695Y-124737106D01*
X226374709Y-124323288D01*
X226077752Y-124025812D01*
X227205417Y-124025812D01*
X227960000Y-124780395D01*
X228714583Y-124025812D01*
X228652929Y-123790200D01*
X228152520Y-123614073D01*
X227622801Y-123642852D01*
X227267071Y-123790200D01*
X227205417Y-124025812D01*
X226077752Y-124025812D01*
X226058377Y-124006404D01*
X225644858Y-123834696D01*
X225197106Y-123834305D01*
X224783288Y-124005291D01*
X224466404Y-124321623D01*
X224294696Y-124735142D01*
X224294305Y-125182894D01*
X220584630Y-125182894D01*
X220448377Y-125046404D01*
X220034858Y-124874696D01*
X219587106Y-124874305D01*
X219173288Y-125045291D01*
X218856404Y-125361623D01*
X218684696Y-125775142D01*
X218684305Y-126222894D01*
X218855291Y-126636712D01*
X219171623Y-126953596D01*
X219278560Y-126998000D01*
X212721940Y-126998000D01*
X212826712Y-126954709D01*
X213143596Y-126638377D01*
X213315304Y-126224858D01*
X213315695Y-125777106D01*
X213144709Y-125363288D01*
X212828377Y-125046404D01*
X212414858Y-124874696D01*
X211967106Y-124874305D01*
X211880667Y-124910021D01*
X211718499Y-124747853D01*
X211718499Y-124522889D01*
X211965142Y-124625304D01*
X212412894Y-124625695D01*
X212826712Y-124454709D01*
X213143596Y-124138377D01*
X213315304Y-123724858D01*
X213315695Y-123277106D01*
X213144709Y-122863288D01*
X212828377Y-122546404D01*
X212461821Y-122394197D01*
X213090132Y-122134584D01*
X213632678Y-121592983D01*
X213926665Y-120884986D01*
X213926667Y-120881622D01*
X214072666Y-120881622D01*
X214365416Y-121590132D01*
X214907017Y-122132678D01*
X215615014Y-122426665D01*
X216381622Y-122427334D01*
X217090132Y-122134584D01*
X217632678Y-121592983D01*
X217926665Y-120884986D01*
X217927334Y-120118378D01*
X217634584Y-119409868D01*
X217092983Y-118867322D01*
X216384986Y-118573335D01*
X215618378Y-118572666D01*
X214909868Y-118865416D01*
X214367322Y-119407017D01*
X214073335Y-120115014D01*
X214072666Y-120881622D01*
X213926667Y-120881622D01*
X213927334Y-120118378D01*
X213703643Y-119577003D01*
X214833824Y-118446822D01*
X214953482Y-118267741D01*
X214953483Y-118267740D01*
X214995501Y-118056499D01*
X214995501Y-117113018D01*
X215005291Y-117136712D01*
X215321623Y-117453596D01*
X215735142Y-117625304D01*
X216182894Y-117625695D01*
X216596712Y-117454709D01*
X216913596Y-117138377D01*
X217085304Y-116724858D01*
X217085695Y-116277106D01*
X216914709Y-115863288D01*
X216598377Y-115546404D01*
X216184858Y-115374696D01*
X215737106Y-115374305D01*
X215323288Y-115545291D01*
X215006404Y-115861623D01*
X214995501Y-115887880D01*
X214995501Y-115243501D01*
X214953483Y-115032260D01*
X214953483Y-115032259D01*
X214833824Y-114853178D01*
X213252000Y-113271354D01*
X213252000Y-112815935D01*
X213507275Y-112710457D01*
X213909047Y-112309386D01*
X213969881Y-112162882D01*
X214029543Y-112307275D01*
X214430614Y-112709047D01*
X214954907Y-112926752D01*
X215522603Y-112927248D01*
X216047275Y-112710457D01*
X216449047Y-112309386D01*
X216517676Y-112144109D01*
X219448000Y-115074433D01*
X219448000Y-115455179D01*
X219367881Y-115400436D01*
X219198500Y-115366135D01*
X217801500Y-115366135D01*
X217643263Y-115395909D01*
X217497933Y-115489427D01*
X217400436Y-115632119D01*
X217366135Y-115801500D01*
X217366135Y-117198500D01*
X217395909Y-117356737D01*
X217489427Y-117502067D01*
X217632119Y-117599564D01*
X217801500Y-117633865D01*
X219198500Y-117633865D01*
X219356737Y-117604091D01*
X219448000Y-117545364D01*
X219448000Y-118643065D01*
X218909868Y-118865416D01*
X218367322Y-119407017D01*
X218073335Y-120115014D01*
X218072666Y-120881622D01*
X218365416Y-121590132D01*
X218907017Y-122132678D01*
X219537890Y-122394640D01*
X219173288Y-122545291D01*
X218856404Y-122861623D01*
X218684696Y-123275142D01*
X218684305Y-123722894D01*
X218855291Y-124136712D01*
X219171623Y-124453596D01*
X219585142Y-124625304D01*
X220032894Y-124625695D01*
X220446712Y-124454709D01*
X220763596Y-124138377D01*
X220935304Y-123724858D01*
X220935394Y-123622028D01*
X221914528Y-122642894D01*
X224294305Y-122642894D01*
X224465291Y-123056712D01*
X224781623Y-123373596D01*
X225195142Y-123545304D01*
X225642894Y-123545695D01*
X226056712Y-123374709D01*
X226373596Y-123058377D01*
X226545304Y-122644858D01*
X226545305Y-122642894D01*
X226834305Y-122642894D01*
X227005291Y-123056712D01*
X227321623Y-123373596D01*
X227735142Y-123545304D01*
X228182894Y-123545695D01*
X228596712Y-123374709D01*
X228913596Y-123058377D01*
X229085304Y-122644858D01*
X229085695Y-122197106D01*
X228914709Y-121783288D01*
X228598377Y-121466404D01*
X228184858Y-121294696D01*
X227737106Y-121294305D01*
X227323288Y-121465291D01*
X227006404Y-121781623D01*
X226834696Y-122195142D01*
X226834305Y-122642894D01*
X226545305Y-122642894D01*
X226545695Y-122197106D01*
X226374709Y-121783288D01*
X226058377Y-121466404D01*
X225644858Y-121294696D01*
X225197106Y-121294305D01*
X224783288Y-121465291D01*
X224466404Y-121781623D01*
X224294696Y-122195142D01*
X224294305Y-122642894D01*
X221914528Y-122642894D01*
X223378711Y-121178711D01*
X223414288Y-121125466D01*
X223525466Y-120959077D01*
X223577000Y-120700000D01*
X223577000Y-120473420D01*
X224286135Y-119764285D01*
X224286135Y-120578500D01*
X224315909Y-120736737D01*
X224409427Y-120882067D01*
X224552119Y-120979564D01*
X224721500Y-121013865D01*
X226118500Y-121013865D01*
X226276737Y-120984091D01*
X226422067Y-120890573D01*
X226519564Y-120747881D01*
X226553865Y-120578500D01*
X226553865Y-119431287D01*
X226834646Y-119712068D01*
X226834305Y-120102894D01*
X227005291Y-120516712D01*
X227321623Y-120833596D01*
X227735142Y-121005304D01*
X228182894Y-121005695D01*
X228596712Y-120834709D01*
X228913596Y-120518377D01*
X229085304Y-120104858D01*
X229085695Y-119657106D01*
X228914709Y-119243288D01*
X228598377Y-118926404D01*
X228184858Y-118754696D01*
X227791775Y-118754353D01*
X227290210Y-118252788D01*
X227070576Y-118106033D01*
X226811499Y-118054499D01*
X224361499Y-118054499D01*
X224102423Y-118106032D01*
X223882788Y-118252788D01*
X222421289Y-119714287D01*
X222274534Y-119933921D01*
X222223000Y-120192998D01*
X222223000Y-120419578D01*
X221926813Y-120715765D01*
X221927334Y-120118378D01*
X221634584Y-119409868D01*
X221092983Y-118867322D01*
X220552000Y-118642685D01*
X220552000Y-114845787D01*
X220509982Y-114634546D01*
X220390323Y-114455464D01*
X217044536Y-111109677D01*
X216865455Y-110990018D01*
X216654213Y-110948000D01*
X216555935Y-110948000D01*
X216450457Y-110692725D01*
X216049386Y-110290953D01*
X215525093Y-110073248D01*
X214957397Y-110072752D01*
X214432725Y-110289543D01*
X214030953Y-110690614D01*
X213970119Y-110837118D01*
X213910457Y-110692725D01*
X213509386Y-110290953D01*
X213052000Y-110101030D01*
X213052000Y-109100000D01*
X213009982Y-108888759D01*
X213009982Y-108888758D01*
X212890323Y-108709677D01*
X211427047Y-107246401D01*
X211427126Y-107156025D01*
X211316680Y-106888725D01*
X211112350Y-106684039D01*
X210845244Y-106573126D01*
X210556025Y-106572874D01*
X210288725Y-106683320D01*
X210084039Y-106887650D01*
X209973126Y-107154756D01*
X209972874Y-107443975D01*
X210083320Y-107711275D01*
X210287650Y-107915961D01*
X210554756Y-108026874D01*
X210646308Y-108026954D01*
X211948000Y-109328646D01*
X211948000Y-110266704D01*
X211892725Y-110289543D01*
X211490953Y-110690614D01*
X211430119Y-110837118D01*
X211370457Y-110692725D01*
X210969386Y-110290953D01*
X210712000Y-110184077D01*
X210712000Y-110030000D01*
X210669982Y-109818759D01*
X210669982Y-109818758D01*
X210550323Y-109639677D01*
X209848737Y-108938091D01*
X209898793Y-108817544D01*
X209899206Y-108344531D01*
X209718573Y-107907365D01*
X209384394Y-107572603D01*
X208947544Y-107391207D01*
X208665708Y-107390961D01*
X208500000Y-107358000D01*
X208288758Y-107400018D01*
X208109677Y-107519677D01*
X208089489Y-107549890D01*
X208037365Y-107571427D01*
X207702603Y-107905606D01*
X207521207Y-108342456D01*
X207520794Y-108815469D01*
X207701427Y-109252635D01*
X208035606Y-109587397D01*
X208472456Y-109768793D01*
X208945469Y-109769206D01*
X209067951Y-109718597D01*
X209555225Y-110205871D01*
X209352725Y-110289543D01*
X208950953Y-110690614D01*
X208733248Y-111214907D01*
X208732752Y-111782603D01*
X208949543Y-112307275D01*
X209350614Y-112709047D01*
X209874907Y-112926752D01*
X210346518Y-112927164D01*
X212868000Y-115448646D01*
X212868000Y-115510289D01*
X212783288Y-115545291D01*
X212466404Y-115861623D01*
X212294696Y-116275142D01*
X212294305Y-116722894D01*
X212465291Y-117136712D01*
X212781623Y-117453596D01*
X213195142Y-117625304D01*
X213642894Y-117625695D01*
X213891501Y-117522973D01*
X213891501Y-117827853D01*
X212922728Y-118796626D01*
X212384986Y-118573335D01*
X211618378Y-118572666D01*
X210909868Y-118865416D01*
X210452000Y-119322486D01*
X210452000Y-114300000D01*
X210409982Y-114088759D01*
X210409982Y-114088758D01*
X210290323Y-113909677D01*
X207795262Y-111414616D01*
X207911275Y-111366680D01*
X208115961Y-111162350D01*
X208226874Y-110895244D01*
X208227126Y-110606025D01*
X208116680Y-110338725D01*
X208052000Y-110273932D01*
X208052000Y-109910000D01*
X208023995Y-109769206D01*
X208009982Y-109698758D01*
X207890323Y-109519677D01*
X207308737Y-108938091D01*
X207358793Y-108817544D01*
X207359206Y-108344531D01*
X207178573Y-107907365D01*
X206848783Y-107577000D01*
X207100000Y-107577000D01*
X207359077Y-107525466D01*
X207578711Y-107378711D01*
X208323557Y-106633865D01*
X209198500Y-106633865D01*
X209356737Y-106604091D01*
X209502067Y-106510573D01*
X209599564Y-106367881D01*
X209633865Y-106198500D01*
X209633865Y-104801500D01*
X209604091Y-104643263D01*
X209510573Y-104497933D01*
X209367881Y-104400436D01*
X209198500Y-104366135D01*
X207801500Y-104366135D01*
X207643263Y-104395909D01*
X207497933Y-104489427D01*
X207400436Y-104632119D01*
X207366135Y-104801500D01*
X207366135Y-105676443D01*
X206920267Y-106122311D01*
X207085304Y-105724858D01*
X207085695Y-105277106D01*
X206914709Y-104863288D01*
X206598377Y-104546404D01*
X206184858Y-104374696D01*
X205737106Y-104374305D01*
X205323288Y-104545291D01*
X205045094Y-104823000D01*
X202100000Y-104823000D01*
X201840923Y-104874534D01*
X201632903Y-105013529D01*
X201621289Y-105021289D01*
X199399288Y-107243290D01*
X199252533Y-107462924D01*
X199229666Y-107577884D01*
X199224394Y-107572603D01*
X198787544Y-107391207D01*
X198314531Y-107390794D01*
X197877365Y-107571427D01*
X197542603Y-107905606D01*
X197361207Y-108342456D01*
X197360794Y-108815469D01*
X197541427Y-109252635D01*
X197875606Y-109587397D01*
X198312456Y-109768793D01*
X198627508Y-109769068D01*
X196158769Y-112237807D01*
X196346752Y-111785093D01*
X196347248Y-111217397D01*
X196130457Y-110692725D01*
X195729386Y-110290953D01*
X195205093Y-110073248D01*
X194637397Y-110072752D01*
X194112725Y-110289543D01*
X193710953Y-110690614D01*
X193650119Y-110837118D01*
X193590457Y-110692725D01*
X193189386Y-110290953D01*
X192665093Y-110073248D01*
X192097397Y-110072752D01*
X191572725Y-110289543D01*
X191170953Y-110690614D01*
X190953248Y-111214907D01*
X190952752Y-111782603D01*
X191169543Y-112307275D01*
X191570614Y-112709047D01*
X191828000Y-112815923D01*
X191828000Y-115891354D01*
X188922728Y-118796626D01*
X188384986Y-118573335D01*
X187618378Y-118572666D01*
X186909868Y-118865416D01*
X186367322Y-119407017D01*
X186073335Y-120115014D01*
X186072666Y-120881622D01*
X186365416Y-121590132D01*
X186907017Y-122132678D01*
X187615014Y-122426665D01*
X188270417Y-122427237D01*
X188042632Y-122438638D01*
X187658857Y-122597603D01*
X187589392Y-122839787D01*
X188390000Y-123640395D01*
X189190608Y-122839787D01*
X189121143Y-122597603D01*
X188597698Y-122410856D01*
X188397217Y-122420890D01*
X189090132Y-122134584D01*
X189632678Y-121592983D01*
X189926665Y-120884986D01*
X189927334Y-120118378D01*
X189703643Y-119577003D01*
X192770323Y-116510323D01*
X192889981Y-116331242D01*
X192889982Y-116331241D01*
X192932000Y-116120000D01*
X192932000Y-112815935D01*
X193187275Y-112710457D01*
X193589047Y-112309386D01*
X193649881Y-112162882D01*
X193709543Y-112307275D01*
X194110614Y-112709047D01*
X194368000Y-112815923D01*
X194368000Y-117351354D01*
X192922728Y-118796626D01*
X192384986Y-118573335D01*
X191618378Y-118572666D01*
X190909868Y-118865416D01*
X190367322Y-119407017D01*
X190073335Y-120115014D01*
X190072666Y-120881622D01*
X190365416Y-121590132D01*
X190907017Y-122132678D01*
X191615014Y-122426665D01*
X192381622Y-122427334D01*
X193090132Y-122134584D01*
X193632678Y-121592983D01*
X193926665Y-120884986D01*
X193927334Y-120118378D01*
X193703643Y-119577003D01*
X195310323Y-117970323D01*
X195323000Y-117951351D01*
X195323000Y-118694714D01*
X194909868Y-118865416D01*
X194367322Y-119407017D01*
X194073335Y-120115014D01*
X194072666Y-120881622D01*
X194365416Y-121590132D01*
X194907017Y-122132678D01*
X195615014Y-122426665D01*
X196381622Y-122427334D01*
X197090132Y-122134584D01*
X197210956Y-122013970D01*
X198665635Y-122013970D01*
X198825418Y-122332739D01*
X199616187Y-122642723D01*
X200465387Y-122626497D01*
X201174582Y-122332739D01*
X201334365Y-122013970D01*
X200000000Y-120679605D01*
X198665635Y-122013970D01*
X197210956Y-122013970D01*
X197632678Y-121592983D01*
X197883379Y-120989230D01*
X198167261Y-121674582D01*
X198486030Y-121834365D01*
X199820395Y-120500000D01*
X198486030Y-119165635D01*
X198167261Y-119325418D01*
X197890943Y-120030305D01*
X197634584Y-119409868D01*
X197092983Y-118867322D01*
X196677000Y-118694590D01*
X196677000Y-118694528D01*
X198485077Y-118694528D01*
X198675364Y-119039271D01*
X198747774Y-119068169D01*
X200000000Y-120320395D01*
X201250356Y-119070039D01*
X201324636Y-119039271D01*
X201514923Y-118694528D01*
X200000000Y-117179605D01*
X198485077Y-118694528D01*
X196677000Y-118694528D01*
X196677000Y-116556591D01*
X197609044Y-116556591D01*
X197621359Y-117505323D01*
X197960729Y-118324636D01*
X198305472Y-118514923D01*
X199820395Y-117000000D01*
X200179605Y-117000000D01*
X201694528Y-118514923D01*
X202039271Y-118324636D01*
X202390956Y-117443409D01*
X202378641Y-116494677D01*
X202039271Y-115675364D01*
X201694528Y-115485077D01*
X200179605Y-117000000D01*
X199820395Y-117000000D01*
X198305472Y-115485077D01*
X197960729Y-115675364D01*
X197609044Y-116556591D01*
X196677000Y-116556591D01*
X196677000Y-115305472D01*
X198485077Y-115305472D01*
X200000000Y-116820395D01*
X201514923Y-115305472D01*
X201324636Y-114960729D01*
X200443409Y-114609044D01*
X199494677Y-114621359D01*
X198675364Y-114960729D01*
X198485077Y-115305472D01*
X196677000Y-115305472D01*
X196677000Y-113634420D01*
X198572790Y-111738630D01*
X198572752Y-111782603D01*
X198789543Y-112307275D01*
X199190614Y-112709047D01*
X199714907Y-112926752D01*
X200282603Y-112927248D01*
X200807275Y-112710457D01*
X201137720Y-112380589D01*
X201387468Y-112472927D01*
X202360395Y-111500000D01*
X202346253Y-111485858D01*
X202525858Y-111306253D01*
X202540000Y-111320395D01*
X202554143Y-111306253D01*
X202733748Y-111485858D01*
X202719605Y-111500000D01*
X202733748Y-111514143D01*
X202554143Y-111693748D01*
X202540000Y-111679605D01*
X201567073Y-112652532D01*
X201665736Y-112919387D01*
X202275461Y-113145908D01*
X202925460Y-113121856D01*
X203323000Y-112957190D01*
X203323000Y-118694714D01*
X202909868Y-118865416D01*
X202367322Y-119407017D01*
X202116621Y-120010770D01*
X201832739Y-119325418D01*
X201513970Y-119165635D01*
X200179605Y-120500000D01*
X201513970Y-121834365D01*
X201832739Y-121674582D01*
X202109057Y-120969695D01*
X202365416Y-121590132D01*
X202907017Y-122132678D01*
X203615014Y-122426665D01*
X204381622Y-122427334D01*
X205090132Y-122134584D01*
X205632678Y-121592983D01*
X205926665Y-120884986D01*
X205927334Y-120118378D01*
X205634584Y-119409868D01*
X205092983Y-118867322D01*
X204677000Y-118694590D01*
X204677000Y-112877793D01*
X204794907Y-112926752D01*
X205362603Y-112927248D01*
X205887275Y-112710457D01*
X206289047Y-112309386D01*
X206506752Y-111785093D01*
X206506837Y-111687483D01*
X209348000Y-114528646D01*
X209348000Y-119122784D01*
X209092983Y-118867322D01*
X208384986Y-118573335D01*
X207618378Y-118572666D01*
X206909868Y-118865416D01*
X206367322Y-119407017D01*
X206073335Y-120115014D01*
X206072666Y-120881622D01*
X206296357Y-121422997D01*
X205779677Y-121939677D01*
X205660018Y-122118758D01*
X205660018Y-122118759D01*
X205618000Y-122330000D01*
X205618000Y-122761582D01*
X205497365Y-122811427D01*
X205162603Y-123145606D01*
X204981207Y-123582456D01*
X204980794Y-124055469D01*
X205161427Y-124492635D01*
X205495606Y-124827397D01*
X205932456Y-125008793D01*
X206405469Y-125009206D01*
X206842635Y-124828573D01*
X207177397Y-124494394D01*
X207358793Y-124057544D01*
X207358794Y-124055469D01*
X207520794Y-124055469D01*
X207701427Y-124492635D01*
X208035606Y-124827397D01*
X208472456Y-125008793D01*
X208945469Y-125009206D01*
X209382635Y-124828573D01*
X209717397Y-124494394D01*
X209898793Y-124057544D01*
X209899206Y-123584531D01*
X209718573Y-123147365D01*
X209384394Y-122812603D01*
X208947544Y-122631207D01*
X208474531Y-122630794D01*
X208037365Y-122811427D01*
X207702603Y-123145606D01*
X207521207Y-123582456D01*
X207520794Y-124055469D01*
X207358794Y-124055469D01*
X207359206Y-123584531D01*
X207178573Y-123147365D01*
X206844394Y-122812603D01*
X206722000Y-122761781D01*
X206722000Y-122558646D01*
X207077272Y-122203374D01*
X207615014Y-122426665D01*
X208381622Y-122427334D01*
X208922997Y-122203643D01*
X210614499Y-123895145D01*
X210614499Y-124976499D01*
X210656517Y-125187741D01*
X210776176Y-125366822D01*
X211099846Y-125690492D01*
X211064696Y-125775142D01*
X211064305Y-126222894D01*
X211235291Y-126636712D01*
X211551623Y-126953596D01*
X211658560Y-126998000D01*
X181549441Y-126998000D01*
X180930504Y-126874886D01*
X180447708Y-126552292D01*
X180125115Y-126069496D01*
X180002000Y-125450559D01*
X180002000Y-125016150D01*
X180008000Y-125017365D01*
X181532000Y-125017365D01*
X181690237Y-124987591D01*
X181835567Y-124894073D01*
X181933064Y-124751381D01*
X181967365Y-124582000D01*
X181967365Y-124055469D01*
X182120794Y-124055469D01*
X182301427Y-124492635D01*
X182635606Y-124827397D01*
X183072456Y-125008793D01*
X183545469Y-125009206D01*
X183982635Y-124828573D01*
X184011044Y-124800213D01*
X185049392Y-124800213D01*
X185118857Y-125042397D01*
X185642302Y-125229144D01*
X186197368Y-125201362D01*
X186581143Y-125042397D01*
X186650608Y-124800213D01*
X187589392Y-124800213D01*
X187658857Y-125042397D01*
X188182302Y-125229144D01*
X188737368Y-125201362D01*
X189121143Y-125042397D01*
X189190608Y-124800213D01*
X188390000Y-123999605D01*
X187589392Y-124800213D01*
X186650608Y-124800213D01*
X185850000Y-123999605D01*
X185049392Y-124800213D01*
X184011044Y-124800213D01*
X184317397Y-124494394D01*
X184466976Y-124134167D01*
X184468638Y-124167368D01*
X184627603Y-124551143D01*
X184869787Y-124620608D01*
X185670395Y-123820000D01*
X186029605Y-123820000D01*
X186830213Y-124620608D01*
X187072397Y-124551143D01*
X187116453Y-124427656D01*
X187167603Y-124551143D01*
X187409787Y-124620608D01*
X188210395Y-123820000D01*
X188569605Y-123820000D01*
X189370213Y-124620608D01*
X189612397Y-124551143D01*
X189766790Y-124118385D01*
X189921427Y-124492635D01*
X190255606Y-124827397D01*
X190692456Y-125008793D01*
X191165469Y-125009206D01*
X191602635Y-124828573D01*
X191937397Y-124494394D01*
X192118793Y-124057544D01*
X192118794Y-124055469D01*
X192280794Y-124055469D01*
X192461427Y-124492635D01*
X192795606Y-124827397D01*
X193232456Y-125008793D01*
X193705469Y-125009206D01*
X194142635Y-124828573D01*
X194477397Y-124494394D01*
X194658793Y-124057544D01*
X194658794Y-124055469D01*
X194820794Y-124055469D01*
X195001427Y-124492635D01*
X195335606Y-124827397D01*
X195772456Y-125008793D01*
X196245469Y-125009206D01*
X196682635Y-124828573D01*
X197017397Y-124494394D01*
X197198793Y-124057544D01*
X197198794Y-124055469D01*
X197360794Y-124055469D01*
X197541427Y-124492635D01*
X197875606Y-124827397D01*
X198312456Y-125008793D01*
X198785469Y-125009206D01*
X199222635Y-124828573D01*
X199557397Y-124494394D01*
X199738793Y-124057544D01*
X199738794Y-124055469D01*
X199900794Y-124055469D01*
X200081427Y-124492635D01*
X200415606Y-124827397D01*
X200852456Y-125008793D01*
X201325469Y-125009206D01*
X201762635Y-124828573D01*
X202097397Y-124494394D01*
X202278793Y-124057544D01*
X202278794Y-124055469D01*
X202440794Y-124055469D01*
X202621427Y-124492635D01*
X202955606Y-124827397D01*
X203392456Y-125008793D01*
X203865469Y-125009206D01*
X204302635Y-124828573D01*
X204637397Y-124494394D01*
X204818793Y-124057544D01*
X204819206Y-123584531D01*
X204638573Y-123147365D01*
X204304394Y-122812603D01*
X203867544Y-122631207D01*
X203394531Y-122630794D01*
X202957365Y-122811427D01*
X202622603Y-123145606D01*
X202441207Y-123582456D01*
X202440794Y-124055469D01*
X202278794Y-124055469D01*
X202279206Y-123584531D01*
X202098573Y-123147365D01*
X201764394Y-122812603D01*
X201327544Y-122631207D01*
X200854531Y-122630794D01*
X200417365Y-122811427D01*
X200082603Y-123145606D01*
X199901207Y-123582456D01*
X199900794Y-124055469D01*
X199738794Y-124055469D01*
X199739206Y-123584531D01*
X199558573Y-123147365D01*
X199224394Y-122812603D01*
X198787544Y-122631207D01*
X198314531Y-122630794D01*
X197877365Y-122811427D01*
X197542603Y-123145606D01*
X197361207Y-123582456D01*
X197360794Y-124055469D01*
X197198794Y-124055469D01*
X197199206Y-123584531D01*
X197018573Y-123147365D01*
X196684394Y-122812603D01*
X196247544Y-122631207D01*
X195774531Y-122630794D01*
X195337365Y-122811427D01*
X195002603Y-123145606D01*
X194821207Y-123582456D01*
X194820794Y-124055469D01*
X194658794Y-124055469D01*
X194659206Y-123584531D01*
X194478573Y-123147365D01*
X194144394Y-122812603D01*
X193707544Y-122631207D01*
X193234531Y-122630794D01*
X192797365Y-122811427D01*
X192462603Y-123145606D01*
X192281207Y-123582456D01*
X192280794Y-124055469D01*
X192118794Y-124055469D01*
X192119206Y-123584531D01*
X191938573Y-123147365D01*
X191604394Y-122812603D01*
X191167544Y-122631207D01*
X190694531Y-122630794D01*
X190257365Y-122811427D01*
X189922603Y-123145606D01*
X189773024Y-123505833D01*
X189771362Y-123472632D01*
X189612397Y-123088857D01*
X189370213Y-123019392D01*
X188569605Y-123820000D01*
X188210395Y-123820000D01*
X187409787Y-123019392D01*
X187167603Y-123088857D01*
X187123547Y-123212344D01*
X187072397Y-123088857D01*
X186830213Y-123019392D01*
X186029605Y-123820000D01*
X185670395Y-123820000D01*
X184869787Y-123019392D01*
X184627603Y-123088857D01*
X184473210Y-123521615D01*
X184318573Y-123147365D01*
X184011531Y-122839787D01*
X185049392Y-122839787D01*
X185850000Y-123640395D01*
X186650608Y-122839787D01*
X186581143Y-122597603D01*
X186057698Y-122410856D01*
X185502632Y-122438638D01*
X185118857Y-122597603D01*
X185049392Y-122839787D01*
X184011531Y-122839787D01*
X183984394Y-122812603D01*
X183547544Y-122631207D01*
X183074531Y-122630794D01*
X182637365Y-122811427D01*
X182302603Y-123145606D01*
X182121207Y-123582456D01*
X182120794Y-124055469D01*
X181967365Y-124055469D01*
X181967365Y-123058000D01*
X181937591Y-122899763D01*
X181844073Y-122754433D01*
X181701381Y-122656936D01*
X181532000Y-122622635D01*
X180008000Y-122622635D01*
X180002000Y-122623764D01*
X180002000Y-109493628D01*
X180095606Y-109587397D01*
X180532456Y-109768793D01*
X181005469Y-109769206D01*
X181442635Y-109588573D01*
X181471044Y-109560213D01*
X182509392Y-109560213D01*
X182578857Y-109802397D01*
X183102302Y-109989144D01*
X183657368Y-109961362D01*
X184041143Y-109802397D01*
X184110608Y-109560213D01*
X183310000Y-108759605D01*
X182509392Y-109560213D01*
X181471044Y-109560213D01*
X181777397Y-109254394D01*
X181926976Y-108894167D01*
X181928638Y-108927368D01*
X182087603Y-109311143D01*
X182329787Y-109380608D01*
X183130395Y-108580000D01*
X182329787Y-107779392D01*
X182087603Y-107848857D01*
X181933210Y-108281615D01*
X181778573Y-107907365D01*
X181471531Y-107599787D01*
X182509392Y-107599787D01*
X183310000Y-108400395D01*
X184110608Y-107599787D01*
X184041143Y-107357603D01*
X183517698Y-107170856D01*
X182962632Y-107198638D01*
X182578857Y-107357603D01*
X182509392Y-107599787D01*
X181471531Y-107599787D01*
X181444394Y-107572603D01*
X181007544Y-107391207D01*
X180534531Y-107390794D01*
X180097365Y-107571427D01*
X180002000Y-107666626D01*
X180002000Y-105722894D01*
X182564305Y-105722894D01*
X182735291Y-106136712D01*
X183051623Y-106453596D01*
X183465142Y-106625304D01*
X183912894Y-106625695D01*
X184326712Y-106454709D01*
X184604906Y-106177000D01*
X185029578Y-106177000D01*
X186354731Y-107502153D01*
X186087544Y-107391207D01*
X185614531Y-107390794D01*
X185177365Y-107571427D01*
X184842603Y-107905606D01*
X184693024Y-108265833D01*
X184691362Y-108232632D01*
X184532397Y-107848857D01*
X184290213Y-107779392D01*
X183489605Y-108580000D01*
X184290213Y-109380608D01*
X184532397Y-109311143D01*
X184686790Y-108878385D01*
X184841427Y-109252635D01*
X185175606Y-109587397D01*
X185612456Y-109768793D01*
X186085469Y-109769206D01*
X186522635Y-109588573D01*
X186857397Y-109254394D01*
X187038793Y-108817544D01*
X187039206Y-108344531D01*
X186928022Y-108075444D01*
X187201202Y-108348624D01*
X187200794Y-108815469D01*
X187381427Y-109252635D01*
X187715606Y-109587397D01*
X188152456Y-109768793D01*
X188625469Y-109769206D01*
X189062635Y-109588573D01*
X189397397Y-109254394D01*
X189578793Y-108817544D01*
X189578794Y-108815469D01*
X189740794Y-108815469D01*
X189921427Y-109252635D01*
X190255606Y-109587397D01*
X190692456Y-109768793D01*
X191165469Y-109769206D01*
X191602635Y-109588573D01*
X191937397Y-109254394D01*
X192118793Y-108817544D01*
X192118794Y-108815469D01*
X192280794Y-108815469D01*
X192461427Y-109252635D01*
X192795606Y-109587397D01*
X193232456Y-109768793D01*
X193705469Y-109769206D01*
X194142635Y-109588573D01*
X194477397Y-109254394D01*
X194658793Y-108817544D01*
X194658794Y-108815469D01*
X194820794Y-108815469D01*
X195001427Y-109252635D01*
X195335606Y-109587397D01*
X195772456Y-109768793D01*
X196245469Y-109769206D01*
X196682635Y-109588573D01*
X197017397Y-109254394D01*
X197198793Y-108817544D01*
X197199206Y-108344531D01*
X197018573Y-107907365D01*
X196684394Y-107572603D01*
X196247544Y-107391207D01*
X195774531Y-107390794D01*
X195337365Y-107571427D01*
X195002603Y-107905606D01*
X194821207Y-108342456D01*
X194820794Y-108815469D01*
X194658794Y-108815469D01*
X194659206Y-108344531D01*
X194478573Y-107907365D01*
X194144394Y-107572603D01*
X193707544Y-107391207D01*
X193234531Y-107390794D01*
X192797365Y-107571427D01*
X192462603Y-107905606D01*
X192281207Y-108342456D01*
X192280794Y-108815469D01*
X192118794Y-108815469D01*
X192119206Y-108344531D01*
X191938573Y-107907365D01*
X191604394Y-107572603D01*
X191167544Y-107391207D01*
X190694531Y-107390794D01*
X190257365Y-107571427D01*
X189922603Y-107905606D01*
X189741207Y-108342456D01*
X189740794Y-108815469D01*
X189578794Y-108815469D01*
X189579206Y-108344531D01*
X189398573Y-107907365D01*
X189064394Y-107572603D01*
X188627544Y-107391207D01*
X188158219Y-107390797D01*
X187419954Y-106652532D01*
X195427073Y-106652532D01*
X195525736Y-106919387D01*
X196135461Y-107145908D01*
X196785460Y-107121856D01*
X197274264Y-106919387D01*
X197372927Y-106652532D01*
X196400000Y-105679605D01*
X195427073Y-106652532D01*
X187419954Y-106652532D01*
X185788711Y-105021289D01*
X185777097Y-105013529D01*
X185569077Y-104874534D01*
X185310000Y-104823000D01*
X184604491Y-104823000D01*
X184583029Y-104801500D01*
X190176135Y-104801500D01*
X190176135Y-106198500D01*
X190205909Y-106356737D01*
X190299427Y-106502067D01*
X190442119Y-106599564D01*
X190611500Y-106633865D01*
X192008500Y-106633865D01*
X192166737Y-106604091D01*
X192312067Y-106510573D01*
X192409564Y-106367881D01*
X192443865Y-106198500D01*
X192443865Y-105235461D01*
X194754092Y-105235461D01*
X194778144Y-105885460D01*
X194980613Y-106374264D01*
X195247468Y-106472927D01*
X196220395Y-105500000D01*
X196579605Y-105500000D01*
X197552532Y-106472927D01*
X197819387Y-106374264D01*
X198045908Y-105764539D01*
X198021856Y-105114540D01*
X197819387Y-104625736D01*
X197552532Y-104527073D01*
X196579605Y-105500000D01*
X196220395Y-105500000D01*
X195247468Y-104527073D01*
X194980613Y-104625736D01*
X194754092Y-105235461D01*
X192443865Y-105235461D01*
X192443865Y-104801500D01*
X192414091Y-104643263D01*
X192320573Y-104497933D01*
X192177881Y-104400436D01*
X192008500Y-104366135D01*
X190611500Y-104366135D01*
X190453263Y-104395909D01*
X190307933Y-104489427D01*
X190210436Y-104632119D01*
X190176135Y-104801500D01*
X184583029Y-104801500D01*
X184328377Y-104546404D01*
X183914858Y-104374696D01*
X183467106Y-104374305D01*
X183053288Y-104545291D01*
X182736404Y-104861623D01*
X182564696Y-105275142D01*
X182564305Y-105722894D01*
X180002000Y-105722894D01*
X180002000Y-105549441D01*
X180125115Y-104930504D01*
X180447708Y-104447708D01*
X180930504Y-104125114D01*
X181549441Y-104002000D01*
X195715525Y-104002000D01*
X195525736Y-104080613D01*
X195525736Y-104080613D01*
G37*
X195525736Y-104080613D02*
X195427073Y-104347468D01*
X196400000Y-105320395D01*
X197372927Y-104347468D01*
X197274264Y-104080613D01*
X197062662Y-104002000D01*
X228450559Y-104002000D01*
X229069496Y-104125115D01*
X229552292Y-104447708D01*
X229874886Y-104930504D01*
X229998000Y-105549441D01*
X229998000Y-125450559D01*
X229874886Y-126069496D01*
X229552292Y-126552292D01*
X229069496Y-126874885D01*
X228450559Y-126998000D01*
X220341940Y-126998000D01*
X220446712Y-126954709D01*
X220763596Y-126638377D01*
X220935304Y-126224858D01*
X220935695Y-125777106D01*
X220764709Y-125363288D01*
X220584630Y-125182894D01*
X224294305Y-125182894D01*
X224465291Y-125596712D01*
X224781623Y-125913596D01*
X225195142Y-126085304D01*
X225642894Y-126085695D01*
X226056712Y-125914709D01*
X226077268Y-125894188D01*
X227205417Y-125894188D01*
X227267071Y-126129800D01*
X227767480Y-126305927D01*
X228297199Y-126277148D01*
X228652929Y-126129800D01*
X228714583Y-125894188D01*
X227960000Y-125139605D01*
X227205417Y-125894188D01*
X226077268Y-125894188D01*
X226373596Y-125598377D01*
X226545304Y-125184858D01*
X226545668Y-124767480D01*
X226614073Y-124767480D01*
X226642852Y-125297199D01*
X226790200Y-125652929D01*
X227025812Y-125714583D01*
X227780395Y-124960000D01*
X228139605Y-124960000D01*
X228894188Y-125714583D01*
X229129800Y-125652929D01*
X229305927Y-125152520D01*
X229277148Y-124622801D01*
X229129800Y-124267071D01*
X228894188Y-124205417D01*
X228139605Y-124960000D01*
X227780395Y-124960000D01*
X227025812Y-124205417D01*
X226790200Y-124267071D01*
X226614073Y-124767480D01*
X226545668Y-124767480D01*
X226545695Y-124737106D01*
X226374709Y-124323288D01*
X226077752Y-124025812D01*
X227205417Y-124025812D01*
X227960000Y-124780395D01*
X228714583Y-124025812D01*
X228652929Y-123790200D01*
X228152520Y-123614073D01*
X227622801Y-123642852D01*
X227267071Y-123790200D01*
X227205417Y-124025812D01*
X226077752Y-124025812D01*
X226058377Y-124006404D01*
X225644858Y-123834696D01*
X225197106Y-123834305D01*
X224783288Y-124005291D01*
X224466404Y-124321623D01*
X224294696Y-124735142D01*
X224294305Y-125182894D01*
X220584630Y-125182894D01*
X220448377Y-125046404D01*
X220034858Y-124874696D01*
X219587106Y-124874305D01*
X219173288Y-125045291D01*
X218856404Y-125361623D01*
X218684696Y-125775142D01*
X218684305Y-126222894D01*
X218855291Y-126636712D01*
X219171623Y-126953596D01*
X219278560Y-126998000D01*
X212721940Y-126998000D01*
X212826712Y-126954709D01*
X213143596Y-126638377D01*
X213315304Y-126224858D01*
X213315695Y-125777106D01*
X213144709Y-125363288D01*
X212828377Y-125046404D01*
X212414858Y-124874696D01*
X211967106Y-124874305D01*
X211880667Y-124910021D01*
X211718499Y-124747853D01*
X211718499Y-124522889D01*
X211965142Y-124625304D01*
X212412894Y-124625695D01*
X212826712Y-124454709D01*
X213143596Y-124138377D01*
X213315304Y-123724858D01*
X213315695Y-123277106D01*
X213144709Y-122863288D01*
X212828377Y-122546404D01*
X212461821Y-122394197D01*
X213090132Y-122134584D01*
X213632678Y-121592983D01*
X213926665Y-120884986D01*
X213926667Y-120881622D01*
X214072666Y-120881622D01*
X214365416Y-121590132D01*
X214907017Y-122132678D01*
X215615014Y-122426665D01*
X216381622Y-122427334D01*
X217090132Y-122134584D01*
X217632678Y-121592983D01*
X217926665Y-120884986D01*
X217927334Y-120118378D01*
X217634584Y-119409868D01*
X217092983Y-118867322D01*
X216384986Y-118573335D01*
X215618378Y-118572666D01*
X214909868Y-118865416D01*
X214367322Y-119407017D01*
X214073335Y-120115014D01*
X214072666Y-120881622D01*
X213926667Y-120881622D01*
X213927334Y-120118378D01*
X213703643Y-119577003D01*
X214833824Y-118446822D01*
X214953482Y-118267741D01*
X214953483Y-118267740D01*
X214995501Y-118056499D01*
X214995501Y-117113018D01*
X215005291Y-117136712D01*
X215321623Y-117453596D01*
X215735142Y-117625304D01*
X216182894Y-117625695D01*
X216596712Y-117454709D01*
X216913596Y-117138377D01*
X217085304Y-116724858D01*
X217085695Y-116277106D01*
X216914709Y-115863288D01*
X216598377Y-115546404D01*
X216184858Y-115374696D01*
X215737106Y-115374305D01*
X215323288Y-115545291D01*
X215006404Y-115861623D01*
X214995501Y-115887880D01*
X214995501Y-115243501D01*
X214953483Y-115032260D01*
X214953483Y-115032259D01*
X214833824Y-114853178D01*
X213252000Y-113271354D01*
X213252000Y-112815935D01*
X213507275Y-112710457D01*
X213909047Y-112309386D01*
X213969881Y-112162882D01*
X214029543Y-112307275D01*
X214430614Y-112709047D01*
X214954907Y-112926752D01*
X215522603Y-112927248D01*
X216047275Y-112710457D01*
X216449047Y-112309386D01*
X216517676Y-112144109D01*
X219448000Y-115074433D01*
X219448000Y-115455179D01*
X219367881Y-115400436D01*
X219198500Y-115366135D01*
X217801500Y-115366135D01*
X217643263Y-115395909D01*
X217497933Y-115489427D01*
X217400436Y-115632119D01*
X217366135Y-115801500D01*
X217366135Y-117198500D01*
X217395909Y-117356737D01*
X217489427Y-117502067D01*
X217632119Y-117599564D01*
X217801500Y-117633865D01*
X219198500Y-117633865D01*
X219356737Y-117604091D01*
X219448000Y-117545364D01*
X219448000Y-118643065D01*
X218909868Y-118865416D01*
X218367322Y-119407017D01*
X218073335Y-120115014D01*
X218072666Y-120881622D01*
X218365416Y-121590132D01*
X218907017Y-122132678D01*
X219537890Y-122394640D01*
X219173288Y-122545291D01*
X218856404Y-122861623D01*
X218684696Y-123275142D01*
X218684305Y-123722894D01*
X218855291Y-124136712D01*
X219171623Y-124453596D01*
X219585142Y-124625304D01*
X220032894Y-124625695D01*
X220446712Y-124454709D01*
X220763596Y-124138377D01*
X220935304Y-123724858D01*
X220935394Y-123622028D01*
X221914528Y-122642894D01*
X224294305Y-122642894D01*
X224465291Y-123056712D01*
X224781623Y-123373596D01*
X225195142Y-123545304D01*
X225642894Y-123545695D01*
X226056712Y-123374709D01*
X226373596Y-123058377D01*
X226545304Y-122644858D01*
X226545305Y-122642894D01*
X226834305Y-122642894D01*
X227005291Y-123056712D01*
X227321623Y-123373596D01*
X227735142Y-123545304D01*
X228182894Y-123545695D01*
X228596712Y-123374709D01*
X228913596Y-123058377D01*
X229085304Y-122644858D01*
X229085695Y-122197106D01*
X228914709Y-121783288D01*
X228598377Y-121466404D01*
X228184858Y-121294696D01*
X227737106Y-121294305D01*
X227323288Y-121465291D01*
X227006404Y-121781623D01*
X226834696Y-122195142D01*
X226834305Y-122642894D01*
X226545305Y-122642894D01*
X226545695Y-122197106D01*
X226374709Y-121783288D01*
X226058377Y-121466404D01*
X225644858Y-121294696D01*
X225197106Y-121294305D01*
X224783288Y-121465291D01*
X224466404Y-121781623D01*
X224294696Y-122195142D01*
X224294305Y-122642894D01*
X221914528Y-122642894D01*
X223378711Y-121178711D01*
X223414288Y-121125466D01*
X223525466Y-120959077D01*
X223577000Y-120700000D01*
X223577000Y-120473420D01*
X224286135Y-119764285D01*
X224286135Y-120578500D01*
X224315909Y-120736737D01*
X224409427Y-120882067D01*
X224552119Y-120979564D01*
X224721500Y-121013865D01*
X226118500Y-121013865D01*
X226276737Y-120984091D01*
X226422067Y-120890573D01*
X226519564Y-120747881D01*
X226553865Y-120578500D01*
X226553865Y-119431287D01*
X226834646Y-119712068D01*
X226834305Y-120102894D01*
X227005291Y-120516712D01*
X227321623Y-120833596D01*
X227735142Y-121005304D01*
X228182894Y-121005695D01*
X228596712Y-120834709D01*
X228913596Y-120518377D01*
X229085304Y-120104858D01*
X229085695Y-119657106D01*
X228914709Y-119243288D01*
X228598377Y-118926404D01*
X228184858Y-118754696D01*
X227791775Y-118754353D01*
X227290210Y-118252788D01*
X227070576Y-118106033D01*
X226811499Y-118054499D01*
X224361499Y-118054499D01*
X224102423Y-118106032D01*
X223882788Y-118252788D01*
X222421289Y-119714287D01*
X222274534Y-119933921D01*
X222223000Y-120192998D01*
X222223000Y-120419578D01*
X221926813Y-120715765D01*
X221927334Y-120118378D01*
X221634584Y-119409868D01*
X221092983Y-118867322D01*
X220552000Y-118642685D01*
X220552000Y-114845787D01*
X220509982Y-114634546D01*
X220390323Y-114455464D01*
X217044536Y-111109677D01*
X216865455Y-110990018D01*
X216654213Y-110948000D01*
X216555935Y-110948000D01*
X216450457Y-110692725D01*
X216049386Y-110290953D01*
X215525093Y-110073248D01*
X214957397Y-110072752D01*
X214432725Y-110289543D01*
X214030953Y-110690614D01*
X213970119Y-110837118D01*
X213910457Y-110692725D01*
X213509386Y-110290953D01*
X213052000Y-110101030D01*
X213052000Y-109100000D01*
X213009982Y-108888759D01*
X213009982Y-108888758D01*
X212890323Y-108709677D01*
X211427047Y-107246401D01*
X211427126Y-107156025D01*
X211316680Y-106888725D01*
X211112350Y-106684039D01*
X210845244Y-106573126D01*
X210556025Y-106572874D01*
X210288725Y-106683320D01*
X210084039Y-106887650D01*
X209973126Y-107154756D01*
X209972874Y-107443975D01*
X210083320Y-107711275D01*
X210287650Y-107915961D01*
X210554756Y-108026874D01*
X210646308Y-108026954D01*
X211948000Y-109328646D01*
X211948000Y-110266704D01*
X211892725Y-110289543D01*
X211490953Y-110690614D01*
X211430119Y-110837118D01*
X211370457Y-110692725D01*
X210969386Y-110290953D01*
X210712000Y-110184077D01*
X210712000Y-110030000D01*
X210669982Y-109818759D01*
X210669982Y-109818758D01*
X210550323Y-109639677D01*
X209848737Y-108938091D01*
X209898793Y-108817544D01*
X209899206Y-108344531D01*
X209718573Y-107907365D01*
X209384394Y-107572603D01*
X208947544Y-107391207D01*
X208665708Y-107390961D01*
X208500000Y-107358000D01*
X208288758Y-107400018D01*
X208109677Y-107519677D01*
X208089489Y-107549890D01*
X208037365Y-107571427D01*
X207702603Y-107905606D01*
X207521207Y-108342456D01*
X207520794Y-108815469D01*
X207701427Y-109252635D01*
X208035606Y-109587397D01*
X208472456Y-109768793D01*
X208945469Y-109769206D01*
X209067951Y-109718597D01*
X209555225Y-110205871D01*
X209352725Y-110289543D01*
X208950953Y-110690614D01*
X208733248Y-111214907D01*
X208732752Y-111782603D01*
X208949543Y-112307275D01*
X209350614Y-112709047D01*
X209874907Y-112926752D01*
X210346518Y-112927164D01*
X212868000Y-115448646D01*
X212868000Y-115510289D01*
X212783288Y-115545291D01*
X212466404Y-115861623D01*
X212294696Y-116275142D01*
X212294305Y-116722894D01*
X212465291Y-117136712D01*
X212781623Y-117453596D01*
X213195142Y-117625304D01*
X213642894Y-117625695D01*
X213891501Y-117522973D01*
X213891501Y-117827853D01*
X212922728Y-118796626D01*
X212384986Y-118573335D01*
X211618378Y-118572666D01*
X210909868Y-118865416D01*
X210452000Y-119322486D01*
X210452000Y-114300000D01*
X210409982Y-114088759D01*
X210409982Y-114088758D01*
X210290323Y-113909677D01*
X207795262Y-111414616D01*
X207911275Y-111366680D01*
X208115961Y-111162350D01*
X208226874Y-110895244D01*
X208227126Y-110606025D01*
X208116680Y-110338725D01*
X208052000Y-110273932D01*
X208052000Y-109910000D01*
X208023995Y-109769206D01*
X208009982Y-109698758D01*
X207890323Y-109519677D01*
X207308737Y-108938091D01*
X207358793Y-108817544D01*
X207359206Y-108344531D01*
X207178573Y-107907365D01*
X206848783Y-107577000D01*
X207100000Y-107577000D01*
X207359077Y-107525466D01*
X207578711Y-107378711D01*
X208323557Y-106633865D01*
X209198500Y-106633865D01*
X209356737Y-106604091D01*
X209502067Y-106510573D01*
X209599564Y-106367881D01*
X209633865Y-106198500D01*
X209633865Y-104801500D01*
X209604091Y-104643263D01*
X209510573Y-104497933D01*
X209367881Y-104400436D01*
X209198500Y-104366135D01*
X207801500Y-104366135D01*
X207643263Y-104395909D01*
X207497933Y-104489427D01*
X207400436Y-104632119D01*
X207366135Y-104801500D01*
X207366135Y-105676443D01*
X206920267Y-106122311D01*
X207085304Y-105724858D01*
X207085695Y-105277106D01*
X206914709Y-104863288D01*
X206598377Y-104546404D01*
X206184858Y-104374696D01*
X205737106Y-104374305D01*
X205323288Y-104545291D01*
X205045094Y-104823000D01*
X202100000Y-104823000D01*
X201840923Y-104874534D01*
X201632903Y-105013529D01*
X201621289Y-105021289D01*
X199399288Y-107243290D01*
X199252533Y-107462924D01*
X199229666Y-107577884D01*
X199224394Y-107572603D01*
X198787544Y-107391207D01*
X198314531Y-107390794D01*
X197877365Y-107571427D01*
X197542603Y-107905606D01*
X197361207Y-108342456D01*
X197360794Y-108815469D01*
X197541427Y-109252635D01*
X197875606Y-109587397D01*
X198312456Y-109768793D01*
X198627508Y-109769068D01*
X196158769Y-112237807D01*
X196346752Y-111785093D01*
X196347248Y-111217397D01*
X196130457Y-110692725D01*
X195729386Y-110290953D01*
X195205093Y-110073248D01*
X194637397Y-110072752D01*
X194112725Y-110289543D01*
X193710953Y-110690614D01*
X193650119Y-110837118D01*
X193590457Y-110692725D01*
X193189386Y-110290953D01*
X192665093Y-110073248D01*
X192097397Y-110072752D01*
X191572725Y-110289543D01*
X191170953Y-110690614D01*
X190953248Y-111214907D01*
X190952752Y-111782603D01*
X191169543Y-112307275D01*
X191570614Y-112709047D01*
X191828000Y-112815923D01*
X191828000Y-115891354D01*
X188922728Y-118796626D01*
X188384986Y-118573335D01*
X187618378Y-118572666D01*
X186909868Y-118865416D01*
X186367322Y-119407017D01*
X186073335Y-120115014D01*
X186072666Y-120881622D01*
X186365416Y-121590132D01*
X186907017Y-122132678D01*
X187615014Y-122426665D01*
X188270417Y-122427237D01*
X188042632Y-122438638D01*
X187658857Y-122597603D01*
X187589392Y-122839787D01*
X188390000Y-123640395D01*
X189190608Y-122839787D01*
X189121143Y-122597603D01*
X188597698Y-122410856D01*
X188397217Y-122420890D01*
X189090132Y-122134584D01*
X189632678Y-121592983D01*
X189926665Y-120884986D01*
X189927334Y-120118378D01*
X189703643Y-119577003D01*
X192770323Y-116510323D01*
X192889981Y-116331242D01*
X192889982Y-116331241D01*
X192932000Y-116120000D01*
X192932000Y-112815935D01*
X193187275Y-112710457D01*
X193589047Y-112309386D01*
X193649881Y-112162882D01*
X193709543Y-112307275D01*
X194110614Y-112709047D01*
X194368000Y-112815923D01*
X194368000Y-117351354D01*
X192922728Y-118796626D01*
X192384986Y-118573335D01*
X191618378Y-118572666D01*
X190909868Y-118865416D01*
X190367322Y-119407017D01*
X190073335Y-120115014D01*
X190072666Y-120881622D01*
X190365416Y-121590132D01*
X190907017Y-122132678D01*
X191615014Y-122426665D01*
X192381622Y-122427334D01*
X193090132Y-122134584D01*
X193632678Y-121592983D01*
X193926665Y-120884986D01*
X193927334Y-120118378D01*
X193703643Y-119577003D01*
X195310323Y-117970323D01*
X195323000Y-117951351D01*
X195323000Y-118694714D01*
X194909868Y-118865416D01*
X194367322Y-119407017D01*
X194073335Y-120115014D01*
X194072666Y-120881622D01*
X194365416Y-121590132D01*
X194907017Y-122132678D01*
X195615014Y-122426665D01*
X196381622Y-122427334D01*
X197090132Y-122134584D01*
X197210956Y-122013970D01*
X198665635Y-122013970D01*
X198825418Y-122332739D01*
X199616187Y-122642723D01*
X200465387Y-122626497D01*
X201174582Y-122332739D01*
X201334365Y-122013970D01*
X200000000Y-120679605D01*
X198665635Y-122013970D01*
X197210956Y-122013970D01*
X197632678Y-121592983D01*
X197883379Y-120989230D01*
X198167261Y-121674582D01*
X198486030Y-121834365D01*
X199820395Y-120500000D01*
X198486030Y-119165635D01*
X198167261Y-119325418D01*
X197890943Y-120030305D01*
X197634584Y-119409868D01*
X197092983Y-118867322D01*
X196677000Y-118694590D01*
X196677000Y-118694528D01*
X198485077Y-118694528D01*
X198675364Y-119039271D01*
X198747774Y-119068169D01*
X200000000Y-120320395D01*
X201250356Y-119070039D01*
X201324636Y-119039271D01*
X201514923Y-118694528D01*
X200000000Y-117179605D01*
X198485077Y-118694528D01*
X196677000Y-118694528D01*
X196677000Y-116556591D01*
X197609044Y-116556591D01*
X197621359Y-117505323D01*
X197960729Y-118324636D01*
X198305472Y-118514923D01*
X199820395Y-117000000D01*
X200179605Y-117000000D01*
X201694528Y-118514923D01*
X202039271Y-118324636D01*
X202390956Y-117443409D01*
X202378641Y-116494677D01*
X202039271Y-115675364D01*
X201694528Y-115485077D01*
X200179605Y-117000000D01*
X199820395Y-117000000D01*
X198305472Y-115485077D01*
X197960729Y-115675364D01*
X197609044Y-116556591D01*
X196677000Y-116556591D01*
X196677000Y-115305472D01*
X198485077Y-115305472D01*
X200000000Y-116820395D01*
X201514923Y-115305472D01*
X201324636Y-114960729D01*
X200443409Y-114609044D01*
X199494677Y-114621359D01*
X198675364Y-114960729D01*
X198485077Y-115305472D01*
X196677000Y-115305472D01*
X196677000Y-113634420D01*
X198572790Y-111738630D01*
X198572752Y-111782603D01*
X198789543Y-112307275D01*
X199190614Y-112709047D01*
X199714907Y-112926752D01*
X200282603Y-112927248D01*
X200807275Y-112710457D01*
X201137720Y-112380589D01*
X201387468Y-112472927D01*
X202360395Y-111500000D01*
X202346253Y-111485858D01*
X202525858Y-111306253D01*
X202540000Y-111320395D01*
X202554143Y-111306253D01*
X202733748Y-111485858D01*
X202719605Y-111500000D01*
X202733748Y-111514143D01*
X202554143Y-111693748D01*
X202540000Y-111679605D01*
X201567073Y-112652532D01*
X201665736Y-112919387D01*
X202275461Y-113145908D01*
X202925460Y-113121856D01*
X203323000Y-112957190D01*
X203323000Y-118694714D01*
X202909868Y-118865416D01*
X202367322Y-119407017D01*
X202116621Y-120010770D01*
X201832739Y-119325418D01*
X201513970Y-119165635D01*
X200179605Y-120500000D01*
X201513970Y-121834365D01*
X201832739Y-121674582D01*
X202109057Y-120969695D01*
X202365416Y-121590132D01*
X202907017Y-122132678D01*
X203615014Y-122426665D01*
X204381622Y-122427334D01*
X205090132Y-122134584D01*
X205632678Y-121592983D01*
X205926665Y-120884986D01*
X205927334Y-120118378D01*
X205634584Y-119409868D01*
X205092983Y-118867322D01*
X204677000Y-118694590D01*
X204677000Y-112877793D01*
X204794907Y-112926752D01*
X205362603Y-112927248D01*
X205887275Y-112710457D01*
X206289047Y-112309386D01*
X206506752Y-111785093D01*
X206506837Y-111687483D01*
X209348000Y-114528646D01*
X209348000Y-119122784D01*
X209092983Y-118867322D01*
X208384986Y-118573335D01*
X207618378Y-118572666D01*
X206909868Y-118865416D01*
X206367322Y-119407017D01*
X206073335Y-120115014D01*
X206072666Y-120881622D01*
X206296357Y-121422997D01*
X205779677Y-121939677D01*
X205660018Y-122118758D01*
X205660018Y-122118759D01*
X205618000Y-122330000D01*
X205618000Y-122761582D01*
X205497365Y-122811427D01*
X205162603Y-123145606D01*
X204981207Y-123582456D01*
X204980794Y-124055469D01*
X205161427Y-124492635D01*
X205495606Y-124827397D01*
X205932456Y-125008793D01*
X206405469Y-125009206D01*
X206842635Y-124828573D01*
X207177397Y-124494394D01*
X207358793Y-124057544D01*
X207358794Y-124055469D01*
X207520794Y-124055469D01*
X207701427Y-124492635D01*
X208035606Y-124827397D01*
X208472456Y-125008793D01*
X208945469Y-125009206D01*
X209382635Y-124828573D01*
X209717397Y-124494394D01*
X209898793Y-124057544D01*
X209899206Y-123584531D01*
X209718573Y-123147365D01*
X209384394Y-122812603D01*
X208947544Y-122631207D01*
X208474531Y-122630794D01*
X208037365Y-122811427D01*
X207702603Y-123145606D01*
X207521207Y-123582456D01*
X207520794Y-124055469D01*
X207358794Y-124055469D01*
X207359206Y-123584531D01*
X207178573Y-123147365D01*
X206844394Y-122812603D01*
X206722000Y-122761781D01*
X206722000Y-122558646D01*
X207077272Y-122203374D01*
X207615014Y-122426665D01*
X208381622Y-122427334D01*
X208922997Y-122203643D01*
X210614499Y-123895145D01*
X210614499Y-124976499D01*
X210656517Y-125187741D01*
X210776176Y-125366822D01*
X211099846Y-125690492D01*
X211064696Y-125775142D01*
X211064305Y-126222894D01*
X211235291Y-126636712D01*
X211551623Y-126953596D01*
X211658560Y-126998000D01*
X181549441Y-126998000D01*
X180930504Y-126874886D01*
X180447708Y-126552292D01*
X180125115Y-126069496D01*
X180002000Y-125450559D01*
X180002000Y-125016150D01*
X180008000Y-125017365D01*
X181532000Y-125017365D01*
X181690237Y-124987591D01*
X181835567Y-124894073D01*
X181933064Y-124751381D01*
X181967365Y-124582000D01*
X181967365Y-124055469D01*
X182120794Y-124055469D01*
X182301427Y-124492635D01*
X182635606Y-124827397D01*
X183072456Y-125008793D01*
X183545469Y-125009206D01*
X183982635Y-124828573D01*
X184011044Y-124800213D01*
X185049392Y-124800213D01*
X185118857Y-125042397D01*
X185642302Y-125229144D01*
X186197368Y-125201362D01*
X186581143Y-125042397D01*
X186650608Y-124800213D01*
X187589392Y-124800213D01*
X187658857Y-125042397D01*
X188182302Y-125229144D01*
X188737368Y-125201362D01*
X189121143Y-125042397D01*
X189190608Y-124800213D01*
X188390000Y-123999605D01*
X187589392Y-124800213D01*
X186650608Y-124800213D01*
X185850000Y-123999605D01*
X185049392Y-124800213D01*
X184011044Y-124800213D01*
X184317397Y-124494394D01*
X184466976Y-124134167D01*
X184468638Y-124167368D01*
X184627603Y-124551143D01*
X184869787Y-124620608D01*
X185670395Y-123820000D01*
X186029605Y-123820000D01*
X186830213Y-124620608D01*
X187072397Y-124551143D01*
X187116453Y-124427656D01*
X187167603Y-124551143D01*
X187409787Y-124620608D01*
X188210395Y-123820000D01*
X188569605Y-123820000D01*
X189370213Y-124620608D01*
X189612397Y-124551143D01*
X189766790Y-124118385D01*
X189921427Y-124492635D01*
X190255606Y-124827397D01*
X190692456Y-125008793D01*
X191165469Y-125009206D01*
X191602635Y-124828573D01*
X191937397Y-124494394D01*
X192118793Y-124057544D01*
X192118794Y-124055469D01*
X192280794Y-124055469D01*
X192461427Y-124492635D01*
X192795606Y-124827397D01*
X193232456Y-125008793D01*
X193705469Y-125009206D01*
X194142635Y-124828573D01*
X194477397Y-124494394D01*
X194658793Y-124057544D01*
X194658794Y-124055469D01*
X194820794Y-124055469D01*
X195001427Y-124492635D01*
X195335606Y-124827397D01*
X195772456Y-125008793D01*
X196245469Y-125009206D01*
X196682635Y-124828573D01*
X197017397Y-124494394D01*
X197198793Y-124057544D01*
X197198794Y-124055469D01*
X197360794Y-124055469D01*
X197541427Y-124492635D01*
X197875606Y-124827397D01*
X198312456Y-125008793D01*
X198785469Y-125009206D01*
X199222635Y-124828573D01*
X199557397Y-124494394D01*
X199738793Y-124057544D01*
X199738794Y-124055469D01*
X199900794Y-124055469D01*
X200081427Y-124492635D01*
X200415606Y-124827397D01*
X200852456Y-125008793D01*
X201325469Y-125009206D01*
X201762635Y-124828573D01*
X202097397Y-124494394D01*
X202278793Y-124057544D01*
X202278794Y-124055469D01*
X202440794Y-124055469D01*
X202621427Y-124492635D01*
X202955606Y-124827397D01*
X203392456Y-125008793D01*
X203865469Y-125009206D01*
X204302635Y-124828573D01*
X204637397Y-124494394D01*
X204818793Y-124057544D01*
X204819206Y-123584531D01*
X204638573Y-123147365D01*
X204304394Y-122812603D01*
X203867544Y-122631207D01*
X203394531Y-122630794D01*
X202957365Y-122811427D01*
X202622603Y-123145606D01*
X202441207Y-123582456D01*
X202440794Y-124055469D01*
X202278794Y-124055469D01*
X202279206Y-123584531D01*
X202098573Y-123147365D01*
X201764394Y-122812603D01*
X201327544Y-122631207D01*
X200854531Y-122630794D01*
X200417365Y-122811427D01*
X200082603Y-123145606D01*
X199901207Y-123582456D01*
X199900794Y-124055469D01*
X199738794Y-124055469D01*
X199739206Y-123584531D01*
X199558573Y-123147365D01*
X199224394Y-122812603D01*
X198787544Y-122631207D01*
X198314531Y-122630794D01*
X197877365Y-122811427D01*
X197542603Y-123145606D01*
X197361207Y-123582456D01*
X197360794Y-124055469D01*
X197198794Y-124055469D01*
X197199206Y-123584531D01*
X197018573Y-123147365D01*
X196684394Y-122812603D01*
X196247544Y-122631207D01*
X195774531Y-122630794D01*
X195337365Y-122811427D01*
X195002603Y-123145606D01*
X194821207Y-123582456D01*
X194820794Y-124055469D01*
X194658794Y-124055469D01*
X194659206Y-123584531D01*
X194478573Y-123147365D01*
X194144394Y-122812603D01*
X193707544Y-122631207D01*
X193234531Y-122630794D01*
X192797365Y-122811427D01*
X192462603Y-123145606D01*
X192281207Y-123582456D01*
X192280794Y-124055469D01*
X192118794Y-124055469D01*
X192119206Y-123584531D01*
X191938573Y-123147365D01*
X191604394Y-122812603D01*
X191167544Y-122631207D01*
X190694531Y-122630794D01*
X190257365Y-122811427D01*
X189922603Y-123145606D01*
X189773024Y-123505833D01*
X189771362Y-123472632D01*
X189612397Y-123088857D01*
X189370213Y-123019392D01*
X188569605Y-123820000D01*
X188210395Y-123820000D01*
X187409787Y-123019392D01*
X187167603Y-123088857D01*
X187123547Y-123212344D01*
X187072397Y-123088857D01*
X186830213Y-123019392D01*
X186029605Y-123820000D01*
X185670395Y-123820000D01*
X184869787Y-123019392D01*
X184627603Y-123088857D01*
X184473210Y-123521615D01*
X184318573Y-123147365D01*
X184011531Y-122839787D01*
X185049392Y-122839787D01*
X185850000Y-123640395D01*
X186650608Y-122839787D01*
X186581143Y-122597603D01*
X186057698Y-122410856D01*
X185502632Y-122438638D01*
X185118857Y-122597603D01*
X185049392Y-122839787D01*
X184011531Y-122839787D01*
X183984394Y-122812603D01*
X183547544Y-122631207D01*
X183074531Y-122630794D01*
X182637365Y-122811427D01*
X182302603Y-123145606D01*
X182121207Y-123582456D01*
X182120794Y-124055469D01*
X181967365Y-124055469D01*
X181967365Y-123058000D01*
X181937591Y-122899763D01*
X181844073Y-122754433D01*
X181701381Y-122656936D01*
X181532000Y-122622635D01*
X180008000Y-122622635D01*
X180002000Y-122623764D01*
X180002000Y-109493628D01*
X180095606Y-109587397D01*
X180532456Y-109768793D01*
X181005469Y-109769206D01*
X181442635Y-109588573D01*
X181471044Y-109560213D01*
X182509392Y-109560213D01*
X182578857Y-109802397D01*
X183102302Y-109989144D01*
X183657368Y-109961362D01*
X184041143Y-109802397D01*
X184110608Y-109560213D01*
X183310000Y-108759605D01*
X182509392Y-109560213D01*
X181471044Y-109560213D01*
X181777397Y-109254394D01*
X181926976Y-108894167D01*
X181928638Y-108927368D01*
X182087603Y-109311143D01*
X182329787Y-109380608D01*
X183130395Y-108580000D01*
X182329787Y-107779392D01*
X182087603Y-107848857D01*
X181933210Y-108281615D01*
X181778573Y-107907365D01*
X181471531Y-107599787D01*
X182509392Y-107599787D01*
X183310000Y-108400395D01*
X184110608Y-107599787D01*
X184041143Y-107357603D01*
X183517698Y-107170856D01*
X182962632Y-107198638D01*
X182578857Y-107357603D01*
X182509392Y-107599787D01*
X181471531Y-107599787D01*
X181444394Y-107572603D01*
X181007544Y-107391207D01*
X180534531Y-107390794D01*
X180097365Y-107571427D01*
X180002000Y-107666626D01*
X180002000Y-105722894D01*
X182564305Y-105722894D01*
X182735291Y-106136712D01*
X183051623Y-106453596D01*
X183465142Y-106625304D01*
X183912894Y-106625695D01*
X184326712Y-106454709D01*
X184604906Y-106177000D01*
X185029578Y-106177000D01*
X186354731Y-107502153D01*
X186087544Y-107391207D01*
X185614531Y-107390794D01*
X185177365Y-107571427D01*
X184842603Y-107905606D01*
X184693024Y-108265833D01*
X184691362Y-108232632D01*
X184532397Y-107848857D01*
X184290213Y-107779392D01*
X183489605Y-108580000D01*
X184290213Y-109380608D01*
X184532397Y-109311143D01*
X184686790Y-108878385D01*
X184841427Y-109252635D01*
X185175606Y-109587397D01*
X185612456Y-109768793D01*
X186085469Y-109769206D01*
X186522635Y-109588573D01*
X186857397Y-109254394D01*
X187038793Y-108817544D01*
X187039206Y-108344531D01*
X186928022Y-108075444D01*
X187201202Y-108348624D01*
X187200794Y-108815469D01*
X187381427Y-109252635D01*
X187715606Y-109587397D01*
X188152456Y-109768793D01*
X188625469Y-109769206D01*
X189062635Y-109588573D01*
X189397397Y-109254394D01*
X189578793Y-108817544D01*
X189578794Y-108815469D01*
X189740794Y-108815469D01*
X189921427Y-109252635D01*
X190255606Y-109587397D01*
X190692456Y-109768793D01*
X191165469Y-109769206D01*
X191602635Y-109588573D01*
X191937397Y-109254394D01*
X192118793Y-108817544D01*
X192118794Y-108815469D01*
X192280794Y-108815469D01*
X192461427Y-109252635D01*
X192795606Y-109587397D01*
X193232456Y-109768793D01*
X193705469Y-109769206D01*
X194142635Y-109588573D01*
X194477397Y-109254394D01*
X194658793Y-108817544D01*
X194658794Y-108815469D01*
X194820794Y-108815469D01*
X195001427Y-109252635D01*
X195335606Y-109587397D01*
X195772456Y-109768793D01*
X196245469Y-109769206D01*
X196682635Y-109588573D01*
X197017397Y-109254394D01*
X197198793Y-108817544D01*
X197199206Y-108344531D01*
X197018573Y-107907365D01*
X196684394Y-107572603D01*
X196247544Y-107391207D01*
X195774531Y-107390794D01*
X195337365Y-107571427D01*
X195002603Y-107905606D01*
X194821207Y-108342456D01*
X194820794Y-108815469D01*
X194658794Y-108815469D01*
X194659206Y-108344531D01*
X194478573Y-107907365D01*
X194144394Y-107572603D01*
X193707544Y-107391207D01*
X193234531Y-107390794D01*
X192797365Y-107571427D01*
X192462603Y-107905606D01*
X192281207Y-108342456D01*
X192280794Y-108815469D01*
X192118794Y-108815469D01*
X192119206Y-108344531D01*
X191938573Y-107907365D01*
X191604394Y-107572603D01*
X191167544Y-107391207D01*
X190694531Y-107390794D01*
X190257365Y-107571427D01*
X189922603Y-107905606D01*
X189741207Y-108342456D01*
X189740794Y-108815469D01*
X189578794Y-108815469D01*
X189579206Y-108344531D01*
X189398573Y-107907365D01*
X189064394Y-107572603D01*
X188627544Y-107391207D01*
X188158219Y-107390797D01*
X187419954Y-106652532D01*
X195427073Y-106652532D01*
X195525736Y-106919387D01*
X196135461Y-107145908D01*
X196785460Y-107121856D01*
X197274264Y-106919387D01*
X197372927Y-106652532D01*
X196400000Y-105679605D01*
X195427073Y-106652532D01*
X187419954Y-106652532D01*
X185788711Y-105021289D01*
X185777097Y-105013529D01*
X185569077Y-104874534D01*
X185310000Y-104823000D01*
X184604491Y-104823000D01*
X184583029Y-104801500D01*
X190176135Y-104801500D01*
X190176135Y-106198500D01*
X190205909Y-106356737D01*
X190299427Y-106502067D01*
X190442119Y-106599564D01*
X190611500Y-106633865D01*
X192008500Y-106633865D01*
X192166737Y-106604091D01*
X192312067Y-106510573D01*
X192409564Y-106367881D01*
X192443865Y-106198500D01*
X192443865Y-105235461D01*
X194754092Y-105235461D01*
X194778144Y-105885460D01*
X194980613Y-106374264D01*
X195247468Y-106472927D01*
X196220395Y-105500000D01*
X196579605Y-105500000D01*
X197552532Y-106472927D01*
X197819387Y-106374264D01*
X198045908Y-105764539D01*
X198021856Y-105114540D01*
X197819387Y-104625736D01*
X197552532Y-104527073D01*
X196579605Y-105500000D01*
X196220395Y-105500000D01*
X195247468Y-104527073D01*
X194980613Y-104625736D01*
X194754092Y-105235461D01*
X192443865Y-105235461D01*
X192443865Y-104801500D01*
X192414091Y-104643263D01*
X192320573Y-104497933D01*
X192177881Y-104400436D01*
X192008500Y-104366135D01*
X190611500Y-104366135D01*
X190453263Y-104395909D01*
X190307933Y-104489427D01*
X190210436Y-104632119D01*
X190176135Y-104801500D01*
X184583029Y-104801500D01*
X184328377Y-104546404D01*
X183914858Y-104374696D01*
X183467106Y-104374305D01*
X183053288Y-104545291D01*
X182736404Y-104861623D01*
X182564696Y-105275142D01*
X182564305Y-105722894D01*
X180002000Y-105722894D01*
X180002000Y-105549441D01*
X180125115Y-104930504D01*
X180447708Y-104447708D01*
X180930504Y-104125114D01*
X181549441Y-104002000D01*
X195715525Y-104002000D01*
X195525736Y-104080613D01*
M02*
