M48
;DRILL file {KiCad 4.0.1-stable} date 2017/09/04 6:09:03
;FORMAT={-:-/ absolute / inch / decimal}
FMAT,2
INCH,TZ
T1C0.014
T2C0.016
T3C0.032
T4C0.039
T5C0.059
T6C0.079
%
G90
G05
M72
T1
X7.1142Y-4.1457
X7.1142Y-4.3819
X7.1142Y-4.563
X7.1142Y-4.7598
X7.1142Y-4.9724
X7.2953Y-4.3819
X7.2953Y-4.563
X7.2953Y-4.7598
X7.4921Y-4.3819
X7.4921Y-4.563
X7.626Y-4.5
X8.122Y-4.6496
X8.2874Y-4.9724
X8.3189Y-4.6496
X8.4213Y-4.8307
X8.4606Y-4.1142
X8.5945Y-4.9173
X8.9882Y-4.122
X8.9882Y-4.3976
X8.9882Y-4.6102
T2
X8.1693Y-4.3602
X8.2953Y-4.2244
T3
X7.1169Y-4.2748
X7.1169Y-4.8748
X7.2169Y-4.2748
X7.2169Y-4.8748
X7.2319Y-4.1535
X7.3169Y-4.2748
X7.3169Y-4.8748
X7.4169Y-4.2748
X7.4169Y-4.8748
X7.5169Y-4.2748
X7.5169Y-4.8748
X7.5319Y-4.1535
X7.6169Y-4.2748
X7.6169Y-4.8748
X7.7169Y-4.2748
X7.7169Y-4.8748
X7.8169Y-4.2748
X7.8169Y-4.8748
X7.9169Y-4.2748
X7.9169Y-4.8748
X8.0169Y-4.2748
X8.0169Y-4.8748
X8.1087Y-4.1535
X8.1169Y-4.2748
X8.1169Y-4.8748
X8.2087Y-4.1535
X8.2169Y-4.2748
X8.2169Y-4.8748
X8.3539Y-4.8622
X8.3539Y-4.9606
X8.4024Y-4.5866
X8.5024Y-4.5866
X8.6024Y-4.5866
X8.6539Y-4.8622
X8.6539Y-4.9606
X8.8748Y-4.7197
X8.8748Y-4.8197
X8.8748Y-4.9197
X8.9748Y-4.7197
X8.9748Y-4.8197
X8.9748Y-4.9197
T4
X7.574Y-4.3898
X7.674Y-4.3898
X7.7323Y-4.1535
X7.874Y-4.3898
X7.974Y-4.3898
X8.074Y-4.3898
X8.274Y-4.3898
X8.374Y-4.3898
X8.474Y-4.3898
T5
X7.4016Y-4.7441
X7.5591Y-4.7441
X7.7165Y-4.7441
X7.874Y-4.7441
X8.0315Y-4.7441
X8.189Y-4.7441
X8.3465Y-4.7441
X8.5039Y-4.7441
X8.6614Y-4.7441
T6
X7.874Y-4.6063
T0
M30
