G04 #@! TF.FileFunction,Copper,L1,Top,Signal*
%FSLAX46Y46*%
G04 Gerber Fmt 4.6, Leading zero omitted, Abs format (unit mm)*
G04 Created by KiCad (PCBNEW 4.0.1-stable) date 2017/09/04 6:08:59*
%MOMM*%
G01*
G04 APERTURE LIST*
%ADD10C,0.100000*%
%ADD11C,0.700000*%
%ADD12R,1.397000X1.397000*%
%ADD13C,1.397000*%
%ADD14R,1.524000X1.524000*%
%ADD15C,1.524000*%
%ADD16C,2.000000*%
%ADD17C,3.000000*%
%ADD18C,3.500000*%
%ADD19C,0.600000*%
%ADD20C,0.500000*%
%ADD21C,0.250000*%
%ADD22C,0.254000*%
G04 APERTURE END LIST*
D10*
D11*
X206300000Y-118100000D03*
X180700000Y-126300000D03*
X180700000Y-105300000D03*
X180700000Y-111300000D03*
X180700000Y-115900000D03*
X180700000Y-120900000D03*
X185300000Y-120900000D03*
X185300000Y-111300000D03*
X185300000Y-115900000D03*
X190300000Y-115900000D03*
X214900000Y-104500000D03*
X228300000Y-117100000D03*
X228300000Y-111700000D03*
X193700000Y-114300000D03*
X228300000Y-104700000D03*
X218300000Y-124900000D03*
X213900000Y-122700000D03*
X210500000Y-126300000D03*
X211300000Y-118100000D03*
D12*
X218500000Y-116500000D03*
D13*
X215960000Y-116500000D03*
X213420000Y-116500000D03*
D12*
X225420000Y-119880000D03*
D13*
X227960000Y-119880000D03*
X225420000Y-122420000D03*
X227960000Y-122420000D03*
X225420000Y-124960000D03*
X227960000Y-124960000D03*
D12*
X208500000Y-105500000D03*
D13*
X205960000Y-105500000D03*
D14*
X180770000Y-123820000D03*
D15*
X183310000Y-123820000D03*
X185850000Y-123820000D03*
X188390000Y-123820000D03*
X190930000Y-123820000D03*
X193470000Y-123820000D03*
X196010000Y-123820000D03*
X198550000Y-123820000D03*
X201090000Y-123820000D03*
X203630000Y-123820000D03*
X206170000Y-123820000D03*
X208710000Y-123820000D03*
X208710000Y-108580000D03*
X206170000Y-108580000D03*
X203630000Y-108580000D03*
X201090000Y-108580000D03*
X198550000Y-108580000D03*
X196010000Y-108580000D03*
X193470000Y-108580000D03*
X190930000Y-108580000D03*
X188390000Y-108580000D03*
X185850000Y-108580000D03*
X183310000Y-108580000D03*
X180770000Y-108580000D03*
D16*
X215240000Y-111500000D03*
X212700000Y-111500000D03*
X210160000Y-111500000D03*
X205080000Y-111500000D03*
X202540000Y-111500000D03*
X200000000Y-111500000D03*
X194920000Y-111500000D03*
X192380000Y-111500000D03*
D17*
X200000000Y-120500000D03*
D18*
X200000000Y-117000000D03*
D17*
X204000000Y-120500000D03*
X208000000Y-120500000D03*
X212000000Y-120500000D03*
X216000000Y-120500000D03*
X220000000Y-120500000D03*
X196000000Y-120500000D03*
X192000000Y-120500000D03*
X188000000Y-120500000D03*
D16*
X196400000Y-105500000D03*
D13*
X212190000Y-123500000D03*
X219810000Y-123500000D03*
X212190000Y-126000000D03*
X219810000Y-126000000D03*
D12*
X191310000Y-105500000D03*
D13*
X183690000Y-105500000D03*
D11*
X190300000Y-111300000D03*
D19*
X210700000Y-107300000D03*
X207500000Y-110750000D03*
D20*
X200000000Y-111500000D02*
X198100000Y-111500000D01*
X198100000Y-111500000D02*
X196649999Y-110049999D01*
X196649999Y-110049999D02*
X189859999Y-110049999D01*
X189859999Y-110049999D02*
X189151999Y-109341999D01*
X189151999Y-109341999D02*
X188390000Y-108580000D01*
X227960000Y-119880000D02*
X227960000Y-118892172D01*
X227960000Y-118892172D02*
X214567828Y-105500000D01*
X214567828Y-105500000D02*
X209698500Y-105500000D01*
X209698500Y-105500000D02*
X208500000Y-105500000D01*
X219810000Y-123500000D02*
X219810000Y-126000000D01*
X200270000Y-117270000D02*
X200000000Y-117000000D01*
X205080000Y-111500000D02*
X204080001Y-110500001D01*
X204080001Y-110500001D02*
X204080001Y-110480001D01*
X204080001Y-110480001D02*
X203500000Y-109900000D01*
X203500000Y-109900000D02*
X197900000Y-109900000D01*
X197337999Y-108137999D02*
X196150001Y-106950001D01*
X197900000Y-109900000D02*
X197337999Y-109337999D01*
X197337999Y-109337999D02*
X197337999Y-108137999D01*
X196150001Y-106950001D02*
X193958501Y-106950001D01*
X193958501Y-106950001D02*
X192508500Y-105500000D01*
X192508500Y-105500000D02*
X191310000Y-105500000D01*
D21*
X218500000Y-116500000D02*
X217551500Y-116500000D01*
X217551500Y-116500000D02*
X214351500Y-113300000D01*
X186611999Y-109341999D02*
X185850000Y-108580000D01*
X214351500Y-113300000D02*
X190570000Y-113300000D01*
X190570000Y-113300000D02*
X186611999Y-109341999D01*
X190930000Y-123820000D02*
X192017001Y-124907001D01*
X192017001Y-124907001D02*
X215592999Y-124907001D01*
X215592999Y-124907001D02*
X218500001Y-121999999D01*
X218500001Y-121999999D02*
X220000000Y-120500000D01*
X210275736Y-107300000D02*
X210700000Y-107300000D01*
X202370000Y-107300000D02*
X210275736Y-107300000D01*
X201090000Y-108580000D02*
X202370000Y-107300000D01*
X224396499Y-121396499D02*
X224721501Y-121721501D01*
X215974999Y-110174999D02*
X224396499Y-118596499D01*
X224721501Y-121721501D02*
X225420000Y-122420000D01*
X214603999Y-110174999D02*
X215974999Y-110174999D01*
X213278998Y-111500000D02*
X214603999Y-110174999D01*
X212700000Y-111500000D02*
X213278998Y-111500000D01*
X224396499Y-118596499D02*
X224396499Y-121396499D01*
X207500000Y-111174264D02*
X207500000Y-110750000D01*
X205824275Y-112849989D02*
X207500000Y-111174264D01*
X196269989Y-112849989D02*
X205824275Y-112849989D01*
X194920000Y-111500000D02*
X196269989Y-112849989D01*
X227960000Y-122420000D02*
X226936499Y-121396499D01*
X226936499Y-121396499D02*
X226936499Y-119414497D01*
X226936499Y-119414497D02*
X216796979Y-109274977D01*
X216796979Y-109274977D02*
X214231199Y-109274977D01*
X214231199Y-109274977D02*
X213839175Y-109667001D01*
X213839175Y-109667001D02*
X207257001Y-109667001D01*
X207257001Y-109667001D02*
X206170000Y-108580000D01*
X193150000Y-120500000D02*
X192000000Y-120500000D01*
X225420000Y-119880000D02*
X225420000Y-118931500D01*
X225420000Y-118931500D02*
X216213488Y-109724988D01*
X216213488Y-109724988D02*
X214417599Y-109724988D01*
X214417599Y-109724988D02*
X214025576Y-110117012D01*
X214025576Y-110117012D02*
X205167012Y-110117012D01*
X205167012Y-110117012D02*
X204391999Y-109341999D01*
X204391999Y-109341999D02*
X203630000Y-108580000D01*
X212190000Y-123500000D02*
X211422999Y-122732999D01*
X211422999Y-122732999D02*
X190232999Y-122732999D01*
X190232999Y-122732999D02*
X189499999Y-121999999D01*
X189499999Y-121999999D02*
X188000000Y-120500000D01*
X212190000Y-123500000D02*
X211902397Y-123500000D01*
X217360000Y-117900000D02*
X222900000Y-117900000D01*
X224721501Y-124261501D02*
X225420000Y-124960000D01*
X222900000Y-117900000D02*
X223946488Y-118946488D01*
X223946488Y-118946488D02*
X223946488Y-123486488D01*
X215960000Y-116500000D02*
X217360000Y-117900000D01*
X223946488Y-123486488D02*
X224721501Y-124261501D01*
D22*
G36*
X195525736Y-104080613D02*
X195427073Y-104347468D01*
X196400000Y-105320395D01*
X197372927Y-104347468D01*
X197274264Y-104080613D01*
X197062662Y-104002000D01*
X228450559Y-104002000D01*
X229069496Y-104125115D01*
X229552292Y-104447708D01*
X229874886Y-104930504D01*
X229998000Y-105549441D01*
X229998000Y-125450559D01*
X229874886Y-126069496D01*
X229552292Y-126552292D01*
X229069496Y-126874885D01*
X228450559Y-126998000D01*
X220341940Y-126998000D01*
X220446712Y-126954709D01*
X220763596Y-126638377D01*
X220935304Y-126224858D01*
X220935695Y-125777106D01*
X220764709Y-125363288D01*
X220487000Y-125085094D01*
X220487000Y-124414491D01*
X220763596Y-124138377D01*
X220935304Y-123724858D01*
X220935695Y-123277106D01*
X220764709Y-122863288D01*
X220448377Y-122546404D01*
X220161161Y-122427142D01*
X220381622Y-122427334D01*
X221090132Y-122134584D01*
X221632678Y-121592983D01*
X221926665Y-120884986D01*
X221927334Y-120118378D01*
X221634584Y-119409868D01*
X221092983Y-118867322D01*
X220384986Y-118573335D01*
X219618378Y-118572666D01*
X218909868Y-118865416D01*
X218367322Y-119407017D01*
X218073335Y-120115014D01*
X218072666Y-120881622D01*
X218296357Y-121422997D01*
X215364353Y-124355001D01*
X212926594Y-124355001D01*
X213143596Y-124138377D01*
X213315304Y-123724858D01*
X213315695Y-123277106D01*
X213144709Y-122863288D01*
X212828377Y-122546404D01*
X212461821Y-122394197D01*
X213090132Y-122134584D01*
X213632678Y-121592983D01*
X213926665Y-120884986D01*
X213926667Y-120881622D01*
X214072666Y-120881622D01*
X214365416Y-121590132D01*
X214907017Y-122132678D01*
X215615014Y-122426665D01*
X216381622Y-122427334D01*
X217090132Y-122134584D01*
X217632678Y-121592983D01*
X217926665Y-120884986D01*
X217927334Y-120118378D01*
X217634584Y-119409868D01*
X217092983Y-118867322D01*
X216384986Y-118573335D01*
X215618378Y-118572666D01*
X214909868Y-118865416D01*
X214367322Y-119407017D01*
X214073335Y-120115014D01*
X214072666Y-120881622D01*
X213926667Y-120881622D01*
X213927334Y-120118378D01*
X213634584Y-119409868D01*
X213092983Y-118867322D01*
X212384986Y-118573335D01*
X211618378Y-118572666D01*
X210909868Y-118865416D01*
X210367322Y-119407017D01*
X210073335Y-120115014D01*
X210072666Y-120881622D01*
X210365416Y-121590132D01*
X210907017Y-122132678D01*
X211023387Y-122180999D01*
X208977799Y-122180999D01*
X209090132Y-122134584D01*
X209632678Y-121592983D01*
X209926665Y-120884986D01*
X209927334Y-120118378D01*
X209634584Y-119409868D01*
X209092983Y-118867322D01*
X208384986Y-118573335D01*
X207618378Y-118572666D01*
X206909868Y-118865416D01*
X206367322Y-119407017D01*
X206073335Y-120115014D01*
X206072666Y-120881622D01*
X206365416Y-121590132D01*
X206907017Y-122132678D01*
X207023387Y-122180999D01*
X204977799Y-122180999D01*
X205090132Y-122134584D01*
X205632678Y-121592983D01*
X205926665Y-120884986D01*
X205927334Y-120118378D01*
X205634584Y-119409868D01*
X205092983Y-118867322D01*
X204384986Y-118573335D01*
X203618378Y-118572666D01*
X202909868Y-118865416D01*
X202367322Y-119407017D01*
X202116621Y-120010770D01*
X201832739Y-119325418D01*
X201513970Y-119165635D01*
X200179605Y-120500000D01*
X201513970Y-121834365D01*
X201832739Y-121674582D01*
X202109057Y-120969695D01*
X202365416Y-121590132D01*
X202907017Y-122132678D01*
X203023387Y-122180999D01*
X201250642Y-122180999D01*
X201334365Y-122013970D01*
X200000000Y-120679605D01*
X198665635Y-122013970D01*
X198749358Y-122180999D01*
X196977799Y-122180999D01*
X197090132Y-122134584D01*
X197632678Y-121592983D01*
X197883379Y-120989230D01*
X198167261Y-121674582D01*
X198486030Y-121834365D01*
X199820395Y-120500000D01*
X198486030Y-119165635D01*
X198167261Y-119325418D01*
X197890943Y-120030305D01*
X197634584Y-119409868D01*
X197092983Y-118867322D01*
X196676851Y-118694528D01*
X198485077Y-118694528D01*
X198675364Y-119039271D01*
X198747774Y-119068169D01*
X200000000Y-120320395D01*
X201250356Y-119070039D01*
X201324636Y-119039271D01*
X201514923Y-118694528D01*
X200000000Y-117179605D01*
X198485077Y-118694528D01*
X196676851Y-118694528D01*
X196384986Y-118573335D01*
X195618378Y-118572666D01*
X194909868Y-118865416D01*
X194367322Y-119407017D01*
X194073335Y-120115014D01*
X194072666Y-120881622D01*
X194365416Y-121590132D01*
X194907017Y-122132678D01*
X195023387Y-122180999D01*
X192977799Y-122180999D01*
X193090132Y-122134584D01*
X193632678Y-121592983D01*
X193926665Y-120884986D01*
X193927334Y-120118378D01*
X193634584Y-119409868D01*
X193092983Y-118867322D01*
X192384986Y-118573335D01*
X191618378Y-118572666D01*
X190909868Y-118865416D01*
X190367322Y-119407017D01*
X190073335Y-120115014D01*
X190072666Y-120881622D01*
X190365416Y-121590132D01*
X190907017Y-122132678D01*
X191023387Y-122180999D01*
X190461645Y-122180999D01*
X189703374Y-121422728D01*
X189926665Y-120884986D01*
X189927334Y-120118378D01*
X189634584Y-119409868D01*
X189092983Y-118867322D01*
X188384986Y-118573335D01*
X187618378Y-118572666D01*
X186909868Y-118865416D01*
X186367322Y-119407017D01*
X186073335Y-120115014D01*
X186072666Y-120881622D01*
X186365416Y-121590132D01*
X186907017Y-122132678D01*
X187615014Y-122426665D01*
X188270417Y-122427237D01*
X188042632Y-122438638D01*
X187658857Y-122597603D01*
X187589392Y-122839787D01*
X188390000Y-123640395D01*
X189190608Y-122839787D01*
X189121143Y-122597603D01*
X188597698Y-122410856D01*
X188397217Y-122420890D01*
X188922997Y-122203643D01*
X189842676Y-123123322D01*
X189912487Y-123169968D01*
X189773024Y-123505833D01*
X189771362Y-123472632D01*
X189612397Y-123088857D01*
X189370213Y-123019392D01*
X188569605Y-123820000D01*
X189370213Y-124620608D01*
X189612397Y-124551143D01*
X189766790Y-124118385D01*
X189921427Y-124492635D01*
X190255606Y-124827397D01*
X190692456Y-125008793D01*
X191165469Y-125009206D01*
X191287951Y-124958597D01*
X191626678Y-125297324D01*
X191805760Y-125416983D01*
X192017001Y-125459001D01*
X211195969Y-125459001D01*
X211064696Y-125775142D01*
X211064305Y-126222894D01*
X211235291Y-126636712D01*
X211551623Y-126953596D01*
X211658560Y-126998000D01*
X181549441Y-126998000D01*
X180930504Y-126874886D01*
X180447708Y-126552292D01*
X180125115Y-126069496D01*
X180002000Y-125450559D01*
X180002000Y-125016150D01*
X180008000Y-125017365D01*
X181532000Y-125017365D01*
X181690237Y-124987591D01*
X181835567Y-124894073D01*
X181933064Y-124751381D01*
X181967365Y-124582000D01*
X181967365Y-124055469D01*
X182120794Y-124055469D01*
X182301427Y-124492635D01*
X182635606Y-124827397D01*
X183072456Y-125008793D01*
X183545469Y-125009206D01*
X183982635Y-124828573D01*
X184011044Y-124800213D01*
X185049392Y-124800213D01*
X185118857Y-125042397D01*
X185642302Y-125229144D01*
X186197368Y-125201362D01*
X186581143Y-125042397D01*
X186650608Y-124800213D01*
X187589392Y-124800213D01*
X187658857Y-125042397D01*
X188182302Y-125229144D01*
X188737368Y-125201362D01*
X189121143Y-125042397D01*
X189190608Y-124800213D01*
X188390000Y-123999605D01*
X187589392Y-124800213D01*
X186650608Y-124800213D01*
X185850000Y-123999605D01*
X185049392Y-124800213D01*
X184011044Y-124800213D01*
X184317397Y-124494394D01*
X184466976Y-124134167D01*
X184468638Y-124167368D01*
X184627603Y-124551143D01*
X184869787Y-124620608D01*
X185670395Y-123820000D01*
X186029605Y-123820000D01*
X186830213Y-124620608D01*
X187072397Y-124551143D01*
X187116453Y-124427656D01*
X187167603Y-124551143D01*
X187409787Y-124620608D01*
X188210395Y-123820000D01*
X187409787Y-123019392D01*
X187167603Y-123088857D01*
X187123547Y-123212344D01*
X187072397Y-123088857D01*
X186830213Y-123019392D01*
X186029605Y-123820000D01*
X185670395Y-123820000D01*
X184869787Y-123019392D01*
X184627603Y-123088857D01*
X184473210Y-123521615D01*
X184318573Y-123147365D01*
X184011531Y-122839787D01*
X185049392Y-122839787D01*
X185850000Y-123640395D01*
X186650608Y-122839787D01*
X186581143Y-122597603D01*
X186057698Y-122410856D01*
X185502632Y-122438638D01*
X185118857Y-122597603D01*
X185049392Y-122839787D01*
X184011531Y-122839787D01*
X183984394Y-122812603D01*
X183547544Y-122631207D01*
X183074531Y-122630794D01*
X182637365Y-122811427D01*
X182302603Y-123145606D01*
X182121207Y-123582456D01*
X182120794Y-124055469D01*
X181967365Y-124055469D01*
X181967365Y-123058000D01*
X181937591Y-122899763D01*
X181844073Y-122754433D01*
X181701381Y-122656936D01*
X181532000Y-122622635D01*
X180008000Y-122622635D01*
X180002000Y-122623764D01*
X180002000Y-116556591D01*
X197609044Y-116556591D01*
X197621359Y-117505323D01*
X197960729Y-118324636D01*
X198305472Y-118514923D01*
X199820395Y-117000000D01*
X200179605Y-117000000D01*
X201694528Y-118514923D01*
X202039271Y-118324636D01*
X202390956Y-117443409D01*
X202381604Y-116722894D01*
X212294305Y-116722894D01*
X212465291Y-117136712D01*
X212781623Y-117453596D01*
X213195142Y-117625304D01*
X213642894Y-117625695D01*
X214056712Y-117454709D01*
X214373596Y-117138377D01*
X214545304Y-116724858D01*
X214545695Y-116277106D01*
X214374709Y-115863288D01*
X214058377Y-115546404D01*
X213644858Y-115374696D01*
X213197106Y-115374305D01*
X212783288Y-115545291D01*
X212466404Y-115861623D01*
X212294696Y-116275142D01*
X212294305Y-116722894D01*
X202381604Y-116722894D01*
X202378641Y-116494677D01*
X202039271Y-115675364D01*
X201694528Y-115485077D01*
X200179605Y-117000000D01*
X199820395Y-117000000D01*
X198305472Y-115485077D01*
X197960729Y-115675364D01*
X197609044Y-116556591D01*
X180002000Y-116556591D01*
X180002000Y-115305472D01*
X198485077Y-115305472D01*
X200000000Y-116820395D01*
X201514923Y-115305472D01*
X201324636Y-114960729D01*
X200443409Y-114609044D01*
X199494677Y-114621359D01*
X198675364Y-114960729D01*
X198485077Y-115305472D01*
X180002000Y-115305472D01*
X180002000Y-109493628D01*
X180095606Y-109587397D01*
X180532456Y-109768793D01*
X181005469Y-109769206D01*
X181442635Y-109588573D01*
X181471044Y-109560213D01*
X182509392Y-109560213D01*
X182578857Y-109802397D01*
X183102302Y-109989144D01*
X183657368Y-109961362D01*
X184041143Y-109802397D01*
X184110608Y-109560213D01*
X183310000Y-108759605D01*
X182509392Y-109560213D01*
X181471044Y-109560213D01*
X181777397Y-109254394D01*
X181926976Y-108894167D01*
X181928638Y-108927368D01*
X182087603Y-109311143D01*
X182329787Y-109380608D01*
X183130395Y-108580000D01*
X183489605Y-108580000D01*
X184290213Y-109380608D01*
X184532397Y-109311143D01*
X184686790Y-108878385D01*
X184841427Y-109252635D01*
X185175606Y-109587397D01*
X185612456Y-109768793D01*
X186085469Y-109769206D01*
X186207951Y-109718597D01*
X190179677Y-113690323D01*
X190358758Y-113809982D01*
X190570000Y-113852000D01*
X214122854Y-113852000D01*
X215672043Y-115401189D01*
X215323288Y-115545291D01*
X215006404Y-115861623D01*
X214834696Y-116275142D01*
X214834305Y-116722894D01*
X215005291Y-117136712D01*
X215321623Y-117453596D01*
X215735142Y-117625304D01*
X216182894Y-117625695D01*
X216269333Y-117589979D01*
X216969677Y-118290323D01*
X217148758Y-118409982D01*
X217360000Y-118452000D01*
X222671354Y-118452000D01*
X223394488Y-119175134D01*
X223394488Y-123486488D01*
X223436506Y-123697730D01*
X223556165Y-123876811D01*
X224329846Y-124650492D01*
X224294696Y-124735142D01*
X224294305Y-125182894D01*
X224465291Y-125596712D01*
X224781623Y-125913596D01*
X225195142Y-126085304D01*
X225642894Y-126085695D01*
X226056712Y-125914709D01*
X226077268Y-125894188D01*
X227205417Y-125894188D01*
X227267071Y-126129800D01*
X227767480Y-126305927D01*
X228297199Y-126277148D01*
X228652929Y-126129800D01*
X228714583Y-125894188D01*
X227960000Y-125139605D01*
X227205417Y-125894188D01*
X226077268Y-125894188D01*
X226373596Y-125598377D01*
X226545304Y-125184858D01*
X226545668Y-124767480D01*
X226614073Y-124767480D01*
X226642852Y-125297199D01*
X226790200Y-125652929D01*
X227025812Y-125714583D01*
X227780395Y-124960000D01*
X228139605Y-124960000D01*
X228894188Y-125714583D01*
X229129800Y-125652929D01*
X229305927Y-125152520D01*
X229277148Y-124622801D01*
X229129800Y-124267071D01*
X228894188Y-124205417D01*
X228139605Y-124960000D01*
X227780395Y-124960000D01*
X227025812Y-124205417D01*
X226790200Y-124267071D01*
X226614073Y-124767480D01*
X226545668Y-124767480D01*
X226545695Y-124737106D01*
X226374709Y-124323288D01*
X226077752Y-124025812D01*
X227205417Y-124025812D01*
X227960000Y-124780395D01*
X228714583Y-124025812D01*
X228652929Y-123790200D01*
X228152520Y-123614073D01*
X227622801Y-123642852D01*
X227267071Y-123790200D01*
X227205417Y-124025812D01*
X226077752Y-124025812D01*
X226058377Y-124006404D01*
X225644858Y-123834696D01*
X225197106Y-123834305D01*
X225110667Y-123870021D01*
X224498488Y-123257842D01*
X224498488Y-123089967D01*
X224781623Y-123373596D01*
X225195142Y-123545304D01*
X225642894Y-123545695D01*
X226056712Y-123374709D01*
X226373596Y-123058377D01*
X226545304Y-122644858D01*
X226545695Y-122197106D01*
X226374709Y-121783288D01*
X226058377Y-121466404D01*
X225644858Y-121294696D01*
X225197106Y-121294305D01*
X225110667Y-121330021D01*
X224948499Y-121167853D01*
X224948499Y-121013865D01*
X226118500Y-121013865D01*
X226276737Y-120984091D01*
X226384499Y-120914748D01*
X226384499Y-121396499D01*
X226426517Y-121607741D01*
X226546176Y-121786822D01*
X226869846Y-122110492D01*
X226834696Y-122195142D01*
X226834305Y-122642894D01*
X227005291Y-123056712D01*
X227321623Y-123373596D01*
X227735142Y-123545304D01*
X228182894Y-123545695D01*
X228596712Y-123374709D01*
X228913596Y-123058377D01*
X229085304Y-122644858D01*
X229085695Y-122197106D01*
X228914709Y-121783288D01*
X228598377Y-121466404D01*
X228184858Y-121294696D01*
X227737106Y-121294305D01*
X227650667Y-121330021D01*
X227488499Y-121167853D01*
X227488499Y-120902889D01*
X227735142Y-121005304D01*
X228182894Y-121005695D01*
X228596712Y-120834709D01*
X228913596Y-120518377D01*
X229085304Y-120104858D01*
X229085695Y-119657106D01*
X228914709Y-119243288D01*
X228637000Y-118965094D01*
X228637000Y-118892172D01*
X228585466Y-118633095D01*
X228438711Y-118413461D01*
X215046539Y-105021289D01*
X215034925Y-105013529D01*
X214826905Y-104874534D01*
X214567828Y-104823000D01*
X209633865Y-104823000D01*
X209633865Y-104801500D01*
X209604091Y-104643263D01*
X209510573Y-104497933D01*
X209367881Y-104400436D01*
X209198500Y-104366135D01*
X207801500Y-104366135D01*
X207643263Y-104395909D01*
X207497933Y-104489427D01*
X207400436Y-104632119D01*
X207366135Y-104801500D01*
X207366135Y-106198500D01*
X207395909Y-106356737D01*
X207489427Y-106502067D01*
X207632119Y-106599564D01*
X207801500Y-106633865D01*
X209198500Y-106633865D01*
X209356737Y-106604091D01*
X209502067Y-106510573D01*
X209599564Y-106367881D01*
X209633865Y-106198500D01*
X209633865Y-106177000D01*
X214287406Y-106177000D01*
X216842422Y-108732016D01*
X216796979Y-108722977D01*
X214231199Y-108722977D01*
X214019957Y-108764995D01*
X213840876Y-108884654D01*
X213610529Y-109115001D01*
X209775278Y-109115001D01*
X209898793Y-108817544D01*
X209899206Y-108344531D01*
X209718573Y-107907365D01*
X209663304Y-107852000D01*
X210223800Y-107852000D01*
X210287650Y-107915961D01*
X210554756Y-108026874D01*
X210843975Y-108027126D01*
X211111275Y-107916680D01*
X211315961Y-107712350D01*
X211426874Y-107445244D01*
X211427126Y-107156025D01*
X211316680Y-106888725D01*
X211112350Y-106684039D01*
X210845244Y-106573126D01*
X210556025Y-106572874D01*
X210288725Y-106683320D01*
X210223932Y-106748000D01*
X202370000Y-106748000D01*
X202158759Y-106790018D01*
X202158757Y-106790019D01*
X202158758Y-106790019D01*
X201979677Y-106909677D01*
X201448091Y-107441263D01*
X201327544Y-107391207D01*
X200854531Y-107390794D01*
X200417365Y-107571427D01*
X200082603Y-107905606D01*
X199901207Y-108342456D01*
X199900794Y-108815469D01*
X200069182Y-109223000D01*
X199570433Y-109223000D01*
X199738793Y-108817544D01*
X199739206Y-108344531D01*
X199558573Y-107907365D01*
X199224394Y-107572603D01*
X198787544Y-107391207D01*
X198314531Y-107390794D01*
X197877365Y-107571427D01*
X197803042Y-107645620D01*
X197134642Y-106977220D01*
X197274264Y-106919387D01*
X197372927Y-106652532D01*
X196400000Y-105679605D01*
X196385858Y-105693748D01*
X196206253Y-105514143D01*
X196220395Y-105500000D01*
X196579605Y-105500000D01*
X197552532Y-106472927D01*
X197819387Y-106374264D01*
X198045908Y-105764539D01*
X198044368Y-105722894D01*
X204834305Y-105722894D01*
X205005291Y-106136712D01*
X205321623Y-106453596D01*
X205735142Y-106625304D01*
X206182894Y-106625695D01*
X206596712Y-106454709D01*
X206913596Y-106138377D01*
X207085304Y-105724858D01*
X207085695Y-105277106D01*
X206914709Y-104863288D01*
X206598377Y-104546404D01*
X206184858Y-104374696D01*
X205737106Y-104374305D01*
X205323288Y-104545291D01*
X205006404Y-104861623D01*
X204834696Y-105275142D01*
X204834305Y-105722894D01*
X198044368Y-105722894D01*
X198021856Y-105114540D01*
X197819387Y-104625736D01*
X197552532Y-104527073D01*
X196579605Y-105500000D01*
X196220395Y-105500000D01*
X195247468Y-104527073D01*
X194980613Y-104625736D01*
X194754092Y-105235461D01*
X194778144Y-105885460D01*
X194938669Y-106273001D01*
X194238923Y-106273001D01*
X192987211Y-105021289D01*
X192975597Y-105013529D01*
X192767577Y-104874534D01*
X192508500Y-104823000D01*
X192443865Y-104823000D01*
X192443865Y-104801500D01*
X192414091Y-104643263D01*
X192320573Y-104497933D01*
X192177881Y-104400436D01*
X192008500Y-104366135D01*
X190611500Y-104366135D01*
X190453263Y-104395909D01*
X190307933Y-104489427D01*
X190210436Y-104632119D01*
X190176135Y-104801500D01*
X190176135Y-106198500D01*
X190205909Y-106356737D01*
X190299427Y-106502067D01*
X190442119Y-106599564D01*
X190611500Y-106633865D01*
X192008500Y-106633865D01*
X192166737Y-106604091D01*
X192312067Y-106510573D01*
X192409564Y-106367881D01*
X192411146Y-106360068D01*
X193442053Y-107390975D01*
X193234531Y-107390794D01*
X192797365Y-107571427D01*
X192462603Y-107905606D01*
X192281207Y-108342456D01*
X192280794Y-108815469D01*
X192461427Y-109252635D01*
X192581581Y-109372999D01*
X191818585Y-109372999D01*
X191937397Y-109254394D01*
X192118793Y-108817544D01*
X192119206Y-108344531D01*
X191938573Y-107907365D01*
X191604394Y-107572603D01*
X191167544Y-107391207D01*
X190694531Y-107390794D01*
X190257365Y-107571427D01*
X189922603Y-107905606D01*
X189741207Y-108342456D01*
X189740794Y-108815469D01*
X189851978Y-109084556D01*
X189630712Y-108863290D01*
X189630710Y-108863287D01*
X189578798Y-108811375D01*
X189579206Y-108344531D01*
X189398573Y-107907365D01*
X189064394Y-107572603D01*
X188627544Y-107391207D01*
X188154531Y-107390794D01*
X187717365Y-107571427D01*
X187382603Y-107905606D01*
X187201207Y-108342456D01*
X187200794Y-108815469D01*
X187381427Y-109252635D01*
X187715606Y-109587397D01*
X188152456Y-109768793D01*
X188621780Y-109769203D01*
X188673287Y-109820710D01*
X188673290Y-109820712D01*
X189381288Y-110528710D01*
X189600922Y-110675465D01*
X189859999Y-110726999D01*
X191155845Y-110726999D01*
X190953248Y-111214907D01*
X190952752Y-111782603D01*
X191169543Y-112307275D01*
X191570614Y-112709047D01*
X191664423Y-112748000D01*
X190798646Y-112748000D01*
X186988737Y-108938091D01*
X187038793Y-108817544D01*
X187039206Y-108344531D01*
X186858573Y-107907365D01*
X186524394Y-107572603D01*
X186087544Y-107391207D01*
X185614531Y-107390794D01*
X185177365Y-107571427D01*
X184842603Y-107905606D01*
X184693024Y-108265833D01*
X184691362Y-108232632D01*
X184532397Y-107848857D01*
X184290213Y-107779392D01*
X183489605Y-108580000D01*
X183130395Y-108580000D01*
X182329787Y-107779392D01*
X182087603Y-107848857D01*
X181933210Y-108281615D01*
X181778573Y-107907365D01*
X181471531Y-107599787D01*
X182509392Y-107599787D01*
X183310000Y-108400395D01*
X184110608Y-107599787D01*
X184041143Y-107357603D01*
X183517698Y-107170856D01*
X182962632Y-107198638D01*
X182578857Y-107357603D01*
X182509392Y-107599787D01*
X181471531Y-107599787D01*
X181444394Y-107572603D01*
X181007544Y-107391207D01*
X180534531Y-107390794D01*
X180097365Y-107571427D01*
X180002000Y-107666626D01*
X180002000Y-105722894D01*
X182564305Y-105722894D01*
X182735291Y-106136712D01*
X183051623Y-106453596D01*
X183465142Y-106625304D01*
X183912894Y-106625695D01*
X184326712Y-106454709D01*
X184643596Y-106138377D01*
X184815304Y-105724858D01*
X184815695Y-105277106D01*
X184644709Y-104863288D01*
X184328377Y-104546404D01*
X183914858Y-104374696D01*
X183467106Y-104374305D01*
X183053288Y-104545291D01*
X182736404Y-104861623D01*
X182564696Y-105275142D01*
X182564305Y-105722894D01*
X180002000Y-105722894D01*
X180002000Y-105549441D01*
X180125115Y-104930504D01*
X180447708Y-104447708D01*
X180930504Y-104125114D01*
X181549441Y-104002000D01*
X195715525Y-104002000D01*
X195525736Y-104080613D01*
X195525736Y-104080613D01*
G37*
X195525736Y-104080613D02*
X195427073Y-104347468D01*
X196400000Y-105320395D01*
X197372927Y-104347468D01*
X197274264Y-104080613D01*
X197062662Y-104002000D01*
X228450559Y-104002000D01*
X229069496Y-104125115D01*
X229552292Y-104447708D01*
X229874886Y-104930504D01*
X229998000Y-105549441D01*
X229998000Y-125450559D01*
X229874886Y-126069496D01*
X229552292Y-126552292D01*
X229069496Y-126874885D01*
X228450559Y-126998000D01*
X220341940Y-126998000D01*
X220446712Y-126954709D01*
X220763596Y-126638377D01*
X220935304Y-126224858D01*
X220935695Y-125777106D01*
X220764709Y-125363288D01*
X220487000Y-125085094D01*
X220487000Y-124414491D01*
X220763596Y-124138377D01*
X220935304Y-123724858D01*
X220935695Y-123277106D01*
X220764709Y-122863288D01*
X220448377Y-122546404D01*
X220161161Y-122427142D01*
X220381622Y-122427334D01*
X221090132Y-122134584D01*
X221632678Y-121592983D01*
X221926665Y-120884986D01*
X221927334Y-120118378D01*
X221634584Y-119409868D01*
X221092983Y-118867322D01*
X220384986Y-118573335D01*
X219618378Y-118572666D01*
X218909868Y-118865416D01*
X218367322Y-119407017D01*
X218073335Y-120115014D01*
X218072666Y-120881622D01*
X218296357Y-121422997D01*
X215364353Y-124355001D01*
X212926594Y-124355001D01*
X213143596Y-124138377D01*
X213315304Y-123724858D01*
X213315695Y-123277106D01*
X213144709Y-122863288D01*
X212828377Y-122546404D01*
X212461821Y-122394197D01*
X213090132Y-122134584D01*
X213632678Y-121592983D01*
X213926665Y-120884986D01*
X213926667Y-120881622D01*
X214072666Y-120881622D01*
X214365416Y-121590132D01*
X214907017Y-122132678D01*
X215615014Y-122426665D01*
X216381622Y-122427334D01*
X217090132Y-122134584D01*
X217632678Y-121592983D01*
X217926665Y-120884986D01*
X217927334Y-120118378D01*
X217634584Y-119409868D01*
X217092983Y-118867322D01*
X216384986Y-118573335D01*
X215618378Y-118572666D01*
X214909868Y-118865416D01*
X214367322Y-119407017D01*
X214073335Y-120115014D01*
X214072666Y-120881622D01*
X213926667Y-120881622D01*
X213927334Y-120118378D01*
X213634584Y-119409868D01*
X213092983Y-118867322D01*
X212384986Y-118573335D01*
X211618378Y-118572666D01*
X210909868Y-118865416D01*
X210367322Y-119407017D01*
X210073335Y-120115014D01*
X210072666Y-120881622D01*
X210365416Y-121590132D01*
X210907017Y-122132678D01*
X211023387Y-122180999D01*
X208977799Y-122180999D01*
X209090132Y-122134584D01*
X209632678Y-121592983D01*
X209926665Y-120884986D01*
X209927334Y-120118378D01*
X209634584Y-119409868D01*
X209092983Y-118867322D01*
X208384986Y-118573335D01*
X207618378Y-118572666D01*
X206909868Y-118865416D01*
X206367322Y-119407017D01*
X206073335Y-120115014D01*
X206072666Y-120881622D01*
X206365416Y-121590132D01*
X206907017Y-122132678D01*
X207023387Y-122180999D01*
X204977799Y-122180999D01*
X205090132Y-122134584D01*
X205632678Y-121592983D01*
X205926665Y-120884986D01*
X205927334Y-120118378D01*
X205634584Y-119409868D01*
X205092983Y-118867322D01*
X204384986Y-118573335D01*
X203618378Y-118572666D01*
X202909868Y-118865416D01*
X202367322Y-119407017D01*
X202116621Y-120010770D01*
X201832739Y-119325418D01*
X201513970Y-119165635D01*
X200179605Y-120500000D01*
X201513970Y-121834365D01*
X201832739Y-121674582D01*
X202109057Y-120969695D01*
X202365416Y-121590132D01*
X202907017Y-122132678D01*
X203023387Y-122180999D01*
X201250642Y-122180999D01*
X201334365Y-122013970D01*
X200000000Y-120679605D01*
X198665635Y-122013970D01*
X198749358Y-122180999D01*
X196977799Y-122180999D01*
X197090132Y-122134584D01*
X197632678Y-121592983D01*
X197883379Y-120989230D01*
X198167261Y-121674582D01*
X198486030Y-121834365D01*
X199820395Y-120500000D01*
X198486030Y-119165635D01*
X198167261Y-119325418D01*
X197890943Y-120030305D01*
X197634584Y-119409868D01*
X197092983Y-118867322D01*
X196676851Y-118694528D01*
X198485077Y-118694528D01*
X198675364Y-119039271D01*
X198747774Y-119068169D01*
X200000000Y-120320395D01*
X201250356Y-119070039D01*
X201324636Y-119039271D01*
X201514923Y-118694528D01*
X200000000Y-117179605D01*
X198485077Y-118694528D01*
X196676851Y-118694528D01*
X196384986Y-118573335D01*
X195618378Y-118572666D01*
X194909868Y-118865416D01*
X194367322Y-119407017D01*
X194073335Y-120115014D01*
X194072666Y-120881622D01*
X194365416Y-121590132D01*
X194907017Y-122132678D01*
X195023387Y-122180999D01*
X192977799Y-122180999D01*
X193090132Y-122134584D01*
X193632678Y-121592983D01*
X193926665Y-120884986D01*
X193927334Y-120118378D01*
X193634584Y-119409868D01*
X193092983Y-118867322D01*
X192384986Y-118573335D01*
X191618378Y-118572666D01*
X190909868Y-118865416D01*
X190367322Y-119407017D01*
X190073335Y-120115014D01*
X190072666Y-120881622D01*
X190365416Y-121590132D01*
X190907017Y-122132678D01*
X191023387Y-122180999D01*
X190461645Y-122180999D01*
X189703374Y-121422728D01*
X189926665Y-120884986D01*
X189927334Y-120118378D01*
X189634584Y-119409868D01*
X189092983Y-118867322D01*
X188384986Y-118573335D01*
X187618378Y-118572666D01*
X186909868Y-118865416D01*
X186367322Y-119407017D01*
X186073335Y-120115014D01*
X186072666Y-120881622D01*
X186365416Y-121590132D01*
X186907017Y-122132678D01*
X187615014Y-122426665D01*
X188270417Y-122427237D01*
X188042632Y-122438638D01*
X187658857Y-122597603D01*
X187589392Y-122839787D01*
X188390000Y-123640395D01*
X189190608Y-122839787D01*
X189121143Y-122597603D01*
X188597698Y-122410856D01*
X188397217Y-122420890D01*
X188922997Y-122203643D01*
X189842676Y-123123322D01*
X189912487Y-123169968D01*
X189773024Y-123505833D01*
X189771362Y-123472632D01*
X189612397Y-123088857D01*
X189370213Y-123019392D01*
X188569605Y-123820000D01*
X189370213Y-124620608D01*
X189612397Y-124551143D01*
X189766790Y-124118385D01*
X189921427Y-124492635D01*
X190255606Y-124827397D01*
X190692456Y-125008793D01*
X191165469Y-125009206D01*
X191287951Y-124958597D01*
X191626678Y-125297324D01*
X191805760Y-125416983D01*
X192017001Y-125459001D01*
X211195969Y-125459001D01*
X211064696Y-125775142D01*
X211064305Y-126222894D01*
X211235291Y-126636712D01*
X211551623Y-126953596D01*
X211658560Y-126998000D01*
X181549441Y-126998000D01*
X180930504Y-126874886D01*
X180447708Y-126552292D01*
X180125115Y-126069496D01*
X180002000Y-125450559D01*
X180002000Y-125016150D01*
X180008000Y-125017365D01*
X181532000Y-125017365D01*
X181690237Y-124987591D01*
X181835567Y-124894073D01*
X181933064Y-124751381D01*
X181967365Y-124582000D01*
X181967365Y-124055469D01*
X182120794Y-124055469D01*
X182301427Y-124492635D01*
X182635606Y-124827397D01*
X183072456Y-125008793D01*
X183545469Y-125009206D01*
X183982635Y-124828573D01*
X184011044Y-124800213D01*
X185049392Y-124800213D01*
X185118857Y-125042397D01*
X185642302Y-125229144D01*
X186197368Y-125201362D01*
X186581143Y-125042397D01*
X186650608Y-124800213D01*
X187589392Y-124800213D01*
X187658857Y-125042397D01*
X188182302Y-125229144D01*
X188737368Y-125201362D01*
X189121143Y-125042397D01*
X189190608Y-124800213D01*
X188390000Y-123999605D01*
X187589392Y-124800213D01*
X186650608Y-124800213D01*
X185850000Y-123999605D01*
X185049392Y-124800213D01*
X184011044Y-124800213D01*
X184317397Y-124494394D01*
X184466976Y-124134167D01*
X184468638Y-124167368D01*
X184627603Y-124551143D01*
X184869787Y-124620608D01*
X185670395Y-123820000D01*
X186029605Y-123820000D01*
X186830213Y-124620608D01*
X187072397Y-124551143D01*
X187116453Y-124427656D01*
X187167603Y-124551143D01*
X187409787Y-124620608D01*
X188210395Y-123820000D01*
X187409787Y-123019392D01*
X187167603Y-123088857D01*
X187123547Y-123212344D01*
X187072397Y-123088857D01*
X186830213Y-123019392D01*
X186029605Y-123820000D01*
X185670395Y-123820000D01*
X184869787Y-123019392D01*
X184627603Y-123088857D01*
X184473210Y-123521615D01*
X184318573Y-123147365D01*
X184011531Y-122839787D01*
X185049392Y-122839787D01*
X185850000Y-123640395D01*
X186650608Y-122839787D01*
X186581143Y-122597603D01*
X186057698Y-122410856D01*
X185502632Y-122438638D01*
X185118857Y-122597603D01*
X185049392Y-122839787D01*
X184011531Y-122839787D01*
X183984394Y-122812603D01*
X183547544Y-122631207D01*
X183074531Y-122630794D01*
X182637365Y-122811427D01*
X182302603Y-123145606D01*
X182121207Y-123582456D01*
X182120794Y-124055469D01*
X181967365Y-124055469D01*
X181967365Y-123058000D01*
X181937591Y-122899763D01*
X181844073Y-122754433D01*
X181701381Y-122656936D01*
X181532000Y-122622635D01*
X180008000Y-122622635D01*
X180002000Y-122623764D01*
X180002000Y-116556591D01*
X197609044Y-116556591D01*
X197621359Y-117505323D01*
X197960729Y-118324636D01*
X198305472Y-118514923D01*
X199820395Y-117000000D01*
X200179605Y-117000000D01*
X201694528Y-118514923D01*
X202039271Y-118324636D01*
X202390956Y-117443409D01*
X202381604Y-116722894D01*
X212294305Y-116722894D01*
X212465291Y-117136712D01*
X212781623Y-117453596D01*
X213195142Y-117625304D01*
X213642894Y-117625695D01*
X214056712Y-117454709D01*
X214373596Y-117138377D01*
X214545304Y-116724858D01*
X214545695Y-116277106D01*
X214374709Y-115863288D01*
X214058377Y-115546404D01*
X213644858Y-115374696D01*
X213197106Y-115374305D01*
X212783288Y-115545291D01*
X212466404Y-115861623D01*
X212294696Y-116275142D01*
X212294305Y-116722894D01*
X202381604Y-116722894D01*
X202378641Y-116494677D01*
X202039271Y-115675364D01*
X201694528Y-115485077D01*
X200179605Y-117000000D01*
X199820395Y-117000000D01*
X198305472Y-115485077D01*
X197960729Y-115675364D01*
X197609044Y-116556591D01*
X180002000Y-116556591D01*
X180002000Y-115305472D01*
X198485077Y-115305472D01*
X200000000Y-116820395D01*
X201514923Y-115305472D01*
X201324636Y-114960729D01*
X200443409Y-114609044D01*
X199494677Y-114621359D01*
X198675364Y-114960729D01*
X198485077Y-115305472D01*
X180002000Y-115305472D01*
X180002000Y-109493628D01*
X180095606Y-109587397D01*
X180532456Y-109768793D01*
X181005469Y-109769206D01*
X181442635Y-109588573D01*
X181471044Y-109560213D01*
X182509392Y-109560213D01*
X182578857Y-109802397D01*
X183102302Y-109989144D01*
X183657368Y-109961362D01*
X184041143Y-109802397D01*
X184110608Y-109560213D01*
X183310000Y-108759605D01*
X182509392Y-109560213D01*
X181471044Y-109560213D01*
X181777397Y-109254394D01*
X181926976Y-108894167D01*
X181928638Y-108927368D01*
X182087603Y-109311143D01*
X182329787Y-109380608D01*
X183130395Y-108580000D01*
X183489605Y-108580000D01*
X184290213Y-109380608D01*
X184532397Y-109311143D01*
X184686790Y-108878385D01*
X184841427Y-109252635D01*
X185175606Y-109587397D01*
X185612456Y-109768793D01*
X186085469Y-109769206D01*
X186207951Y-109718597D01*
X190179677Y-113690323D01*
X190358758Y-113809982D01*
X190570000Y-113852000D01*
X214122854Y-113852000D01*
X215672043Y-115401189D01*
X215323288Y-115545291D01*
X215006404Y-115861623D01*
X214834696Y-116275142D01*
X214834305Y-116722894D01*
X215005291Y-117136712D01*
X215321623Y-117453596D01*
X215735142Y-117625304D01*
X216182894Y-117625695D01*
X216269333Y-117589979D01*
X216969677Y-118290323D01*
X217148758Y-118409982D01*
X217360000Y-118452000D01*
X222671354Y-118452000D01*
X223394488Y-119175134D01*
X223394488Y-123486488D01*
X223436506Y-123697730D01*
X223556165Y-123876811D01*
X224329846Y-124650492D01*
X224294696Y-124735142D01*
X224294305Y-125182894D01*
X224465291Y-125596712D01*
X224781623Y-125913596D01*
X225195142Y-126085304D01*
X225642894Y-126085695D01*
X226056712Y-125914709D01*
X226077268Y-125894188D01*
X227205417Y-125894188D01*
X227267071Y-126129800D01*
X227767480Y-126305927D01*
X228297199Y-126277148D01*
X228652929Y-126129800D01*
X228714583Y-125894188D01*
X227960000Y-125139605D01*
X227205417Y-125894188D01*
X226077268Y-125894188D01*
X226373596Y-125598377D01*
X226545304Y-125184858D01*
X226545668Y-124767480D01*
X226614073Y-124767480D01*
X226642852Y-125297199D01*
X226790200Y-125652929D01*
X227025812Y-125714583D01*
X227780395Y-124960000D01*
X228139605Y-124960000D01*
X228894188Y-125714583D01*
X229129800Y-125652929D01*
X229305927Y-125152520D01*
X229277148Y-124622801D01*
X229129800Y-124267071D01*
X228894188Y-124205417D01*
X228139605Y-124960000D01*
X227780395Y-124960000D01*
X227025812Y-124205417D01*
X226790200Y-124267071D01*
X226614073Y-124767480D01*
X226545668Y-124767480D01*
X226545695Y-124737106D01*
X226374709Y-124323288D01*
X226077752Y-124025812D01*
X227205417Y-124025812D01*
X227960000Y-124780395D01*
X228714583Y-124025812D01*
X228652929Y-123790200D01*
X228152520Y-123614073D01*
X227622801Y-123642852D01*
X227267071Y-123790200D01*
X227205417Y-124025812D01*
X226077752Y-124025812D01*
X226058377Y-124006404D01*
X225644858Y-123834696D01*
X225197106Y-123834305D01*
X225110667Y-123870021D01*
X224498488Y-123257842D01*
X224498488Y-123089967D01*
X224781623Y-123373596D01*
X225195142Y-123545304D01*
X225642894Y-123545695D01*
X226056712Y-123374709D01*
X226373596Y-123058377D01*
X226545304Y-122644858D01*
X226545695Y-122197106D01*
X226374709Y-121783288D01*
X226058377Y-121466404D01*
X225644858Y-121294696D01*
X225197106Y-121294305D01*
X225110667Y-121330021D01*
X224948499Y-121167853D01*
X224948499Y-121013865D01*
X226118500Y-121013865D01*
X226276737Y-120984091D01*
X226384499Y-120914748D01*
X226384499Y-121396499D01*
X226426517Y-121607741D01*
X226546176Y-121786822D01*
X226869846Y-122110492D01*
X226834696Y-122195142D01*
X226834305Y-122642894D01*
X227005291Y-123056712D01*
X227321623Y-123373596D01*
X227735142Y-123545304D01*
X228182894Y-123545695D01*
X228596712Y-123374709D01*
X228913596Y-123058377D01*
X229085304Y-122644858D01*
X229085695Y-122197106D01*
X228914709Y-121783288D01*
X228598377Y-121466404D01*
X228184858Y-121294696D01*
X227737106Y-121294305D01*
X227650667Y-121330021D01*
X227488499Y-121167853D01*
X227488499Y-120902889D01*
X227735142Y-121005304D01*
X228182894Y-121005695D01*
X228596712Y-120834709D01*
X228913596Y-120518377D01*
X229085304Y-120104858D01*
X229085695Y-119657106D01*
X228914709Y-119243288D01*
X228637000Y-118965094D01*
X228637000Y-118892172D01*
X228585466Y-118633095D01*
X228438711Y-118413461D01*
X215046539Y-105021289D01*
X215034925Y-105013529D01*
X214826905Y-104874534D01*
X214567828Y-104823000D01*
X209633865Y-104823000D01*
X209633865Y-104801500D01*
X209604091Y-104643263D01*
X209510573Y-104497933D01*
X209367881Y-104400436D01*
X209198500Y-104366135D01*
X207801500Y-104366135D01*
X207643263Y-104395909D01*
X207497933Y-104489427D01*
X207400436Y-104632119D01*
X207366135Y-104801500D01*
X207366135Y-106198500D01*
X207395909Y-106356737D01*
X207489427Y-106502067D01*
X207632119Y-106599564D01*
X207801500Y-106633865D01*
X209198500Y-106633865D01*
X209356737Y-106604091D01*
X209502067Y-106510573D01*
X209599564Y-106367881D01*
X209633865Y-106198500D01*
X209633865Y-106177000D01*
X214287406Y-106177000D01*
X216842422Y-108732016D01*
X216796979Y-108722977D01*
X214231199Y-108722977D01*
X214019957Y-108764995D01*
X213840876Y-108884654D01*
X213610529Y-109115001D01*
X209775278Y-109115001D01*
X209898793Y-108817544D01*
X209899206Y-108344531D01*
X209718573Y-107907365D01*
X209663304Y-107852000D01*
X210223800Y-107852000D01*
X210287650Y-107915961D01*
X210554756Y-108026874D01*
X210843975Y-108027126D01*
X211111275Y-107916680D01*
X211315961Y-107712350D01*
X211426874Y-107445244D01*
X211427126Y-107156025D01*
X211316680Y-106888725D01*
X211112350Y-106684039D01*
X210845244Y-106573126D01*
X210556025Y-106572874D01*
X210288725Y-106683320D01*
X210223932Y-106748000D01*
X202370000Y-106748000D01*
X202158759Y-106790018D01*
X202158757Y-106790019D01*
X202158758Y-106790019D01*
X201979677Y-106909677D01*
X201448091Y-107441263D01*
X201327544Y-107391207D01*
X200854531Y-107390794D01*
X200417365Y-107571427D01*
X200082603Y-107905606D01*
X199901207Y-108342456D01*
X199900794Y-108815469D01*
X200069182Y-109223000D01*
X199570433Y-109223000D01*
X199738793Y-108817544D01*
X199739206Y-108344531D01*
X199558573Y-107907365D01*
X199224394Y-107572603D01*
X198787544Y-107391207D01*
X198314531Y-107390794D01*
X197877365Y-107571427D01*
X197803042Y-107645620D01*
X197134642Y-106977220D01*
X197274264Y-106919387D01*
X197372927Y-106652532D01*
X196400000Y-105679605D01*
X196385858Y-105693748D01*
X196206253Y-105514143D01*
X196220395Y-105500000D01*
X196579605Y-105500000D01*
X197552532Y-106472927D01*
X197819387Y-106374264D01*
X198045908Y-105764539D01*
X198044368Y-105722894D01*
X204834305Y-105722894D01*
X205005291Y-106136712D01*
X205321623Y-106453596D01*
X205735142Y-106625304D01*
X206182894Y-106625695D01*
X206596712Y-106454709D01*
X206913596Y-106138377D01*
X207085304Y-105724858D01*
X207085695Y-105277106D01*
X206914709Y-104863288D01*
X206598377Y-104546404D01*
X206184858Y-104374696D01*
X205737106Y-104374305D01*
X205323288Y-104545291D01*
X205006404Y-104861623D01*
X204834696Y-105275142D01*
X204834305Y-105722894D01*
X198044368Y-105722894D01*
X198021856Y-105114540D01*
X197819387Y-104625736D01*
X197552532Y-104527073D01*
X196579605Y-105500000D01*
X196220395Y-105500000D01*
X195247468Y-104527073D01*
X194980613Y-104625736D01*
X194754092Y-105235461D01*
X194778144Y-105885460D01*
X194938669Y-106273001D01*
X194238923Y-106273001D01*
X192987211Y-105021289D01*
X192975597Y-105013529D01*
X192767577Y-104874534D01*
X192508500Y-104823000D01*
X192443865Y-104823000D01*
X192443865Y-104801500D01*
X192414091Y-104643263D01*
X192320573Y-104497933D01*
X192177881Y-104400436D01*
X192008500Y-104366135D01*
X190611500Y-104366135D01*
X190453263Y-104395909D01*
X190307933Y-104489427D01*
X190210436Y-104632119D01*
X190176135Y-104801500D01*
X190176135Y-106198500D01*
X190205909Y-106356737D01*
X190299427Y-106502067D01*
X190442119Y-106599564D01*
X190611500Y-106633865D01*
X192008500Y-106633865D01*
X192166737Y-106604091D01*
X192312067Y-106510573D01*
X192409564Y-106367881D01*
X192411146Y-106360068D01*
X193442053Y-107390975D01*
X193234531Y-107390794D01*
X192797365Y-107571427D01*
X192462603Y-107905606D01*
X192281207Y-108342456D01*
X192280794Y-108815469D01*
X192461427Y-109252635D01*
X192581581Y-109372999D01*
X191818585Y-109372999D01*
X191937397Y-109254394D01*
X192118793Y-108817544D01*
X192119206Y-108344531D01*
X191938573Y-107907365D01*
X191604394Y-107572603D01*
X191167544Y-107391207D01*
X190694531Y-107390794D01*
X190257365Y-107571427D01*
X189922603Y-107905606D01*
X189741207Y-108342456D01*
X189740794Y-108815469D01*
X189851978Y-109084556D01*
X189630712Y-108863290D01*
X189630710Y-108863287D01*
X189578798Y-108811375D01*
X189579206Y-108344531D01*
X189398573Y-107907365D01*
X189064394Y-107572603D01*
X188627544Y-107391207D01*
X188154531Y-107390794D01*
X187717365Y-107571427D01*
X187382603Y-107905606D01*
X187201207Y-108342456D01*
X187200794Y-108815469D01*
X187381427Y-109252635D01*
X187715606Y-109587397D01*
X188152456Y-109768793D01*
X188621780Y-109769203D01*
X188673287Y-109820710D01*
X188673290Y-109820712D01*
X189381288Y-110528710D01*
X189600922Y-110675465D01*
X189859999Y-110726999D01*
X191155845Y-110726999D01*
X190953248Y-111214907D01*
X190952752Y-111782603D01*
X191169543Y-112307275D01*
X191570614Y-112709047D01*
X191664423Y-112748000D01*
X190798646Y-112748000D01*
X186988737Y-108938091D01*
X187038793Y-108817544D01*
X187039206Y-108344531D01*
X186858573Y-107907365D01*
X186524394Y-107572603D01*
X186087544Y-107391207D01*
X185614531Y-107390794D01*
X185177365Y-107571427D01*
X184842603Y-107905606D01*
X184693024Y-108265833D01*
X184691362Y-108232632D01*
X184532397Y-107848857D01*
X184290213Y-107779392D01*
X183489605Y-108580000D01*
X183130395Y-108580000D01*
X182329787Y-107779392D01*
X182087603Y-107848857D01*
X181933210Y-108281615D01*
X181778573Y-107907365D01*
X181471531Y-107599787D01*
X182509392Y-107599787D01*
X183310000Y-108400395D01*
X184110608Y-107599787D01*
X184041143Y-107357603D01*
X183517698Y-107170856D01*
X182962632Y-107198638D01*
X182578857Y-107357603D01*
X182509392Y-107599787D01*
X181471531Y-107599787D01*
X181444394Y-107572603D01*
X181007544Y-107391207D01*
X180534531Y-107390794D01*
X180097365Y-107571427D01*
X180002000Y-107666626D01*
X180002000Y-105722894D01*
X182564305Y-105722894D01*
X182735291Y-106136712D01*
X183051623Y-106453596D01*
X183465142Y-106625304D01*
X183912894Y-106625695D01*
X184326712Y-106454709D01*
X184643596Y-106138377D01*
X184815304Y-105724858D01*
X184815695Y-105277106D01*
X184644709Y-104863288D01*
X184328377Y-104546404D01*
X183914858Y-104374696D01*
X183467106Y-104374305D01*
X183053288Y-104545291D01*
X182736404Y-104861623D01*
X182564696Y-105275142D01*
X182564305Y-105722894D01*
X180002000Y-105722894D01*
X180002000Y-105549441D01*
X180125115Y-104930504D01*
X180447708Y-104447708D01*
X180930504Y-104125114D01*
X181549441Y-104002000D01*
X195715525Y-104002000D01*
X195525736Y-104080613D01*
G36*
X202733748Y-111485858D02*
X202719605Y-111500000D01*
X202733748Y-111514143D01*
X202554143Y-111693748D01*
X202540000Y-111679605D01*
X202525858Y-111693748D01*
X202346253Y-111514143D01*
X202360395Y-111500000D01*
X202346253Y-111485858D01*
X202525858Y-111306253D01*
X202540000Y-111320395D01*
X202554143Y-111306253D01*
X202733748Y-111485858D01*
X202733748Y-111485858D01*
G37*
X202733748Y-111485858D02*
X202719605Y-111500000D01*
X202733748Y-111514143D01*
X202554143Y-111693748D01*
X202540000Y-111679605D01*
X202525858Y-111693748D01*
X202346253Y-111514143D01*
X202360395Y-111500000D01*
X202346253Y-111485858D01*
X202525858Y-111306253D01*
X202540000Y-111320395D01*
X202554143Y-111306253D01*
X202733748Y-111485858D01*
G36*
X219537890Y-122394640D02*
X219173288Y-122545291D01*
X218856404Y-122861623D01*
X218684696Y-123275142D01*
X218684305Y-123722894D01*
X218855291Y-124136712D01*
X219133000Y-124414906D01*
X219133000Y-125085509D01*
X218856404Y-125361623D01*
X218684696Y-125775142D01*
X218684305Y-126222894D01*
X218855291Y-126636712D01*
X219171623Y-126953596D01*
X219278560Y-126998000D01*
X212721940Y-126998000D01*
X212826712Y-126954709D01*
X213143596Y-126638377D01*
X213315304Y-126224858D01*
X213315695Y-125777106D01*
X213184257Y-125459001D01*
X215592999Y-125459001D01*
X215804241Y-125416983D01*
X215983322Y-125297324D01*
X219077272Y-122203374D01*
X219537890Y-122394640D01*
X219537890Y-122394640D01*
G37*
X219537890Y-122394640D02*
X219173288Y-122545291D01*
X218856404Y-122861623D01*
X218684696Y-123275142D01*
X218684305Y-123722894D01*
X218855291Y-124136712D01*
X219133000Y-124414906D01*
X219133000Y-125085509D01*
X218856404Y-125361623D01*
X218684696Y-125775142D01*
X218684305Y-126222894D01*
X218855291Y-126636712D01*
X219171623Y-126953596D01*
X219278560Y-126998000D01*
X212721940Y-126998000D01*
X212826712Y-126954709D01*
X213143596Y-126638377D01*
X213315304Y-126224858D01*
X213315695Y-125777106D01*
X213184257Y-125459001D01*
X215592999Y-125459001D01*
X215804241Y-125416983D01*
X215983322Y-125297324D01*
X219077272Y-122203374D01*
X219537890Y-122394640D01*
M02*
