G04 #@! TF.FileFunction,Legend,Top*
%FSLAX46Y46*%
G04 Gerber Fmt 4.6, Leading zero omitted, Abs format (unit mm)*
G04 Created by KiCad (PCBNEW 4.0.1-stable) date 2017/09/04 6:08:59*
%MOMM*%
G01*
G04 APERTURE LIST*
%ADD10C,0.100000*%
%ADD11C,0.200000*%
%ADD12C,0.150000*%
%ADD13C,0.010000*%
%ADD14R,1.797000X1.797000*%
%ADD15C,1.797000*%
%ADD16R,1.924000X1.924000*%
%ADD17C,1.924000*%
%ADD18C,2.400000*%
%ADD19C,3.400000*%
%ADD20C,3.900000*%
G04 APERTURE END LIST*
D10*
D11*
X182675000Y-119375000D02*
X179500000Y-119375000D01*
X182675000Y-113025000D02*
X182675000Y-119375000D01*
X179500000Y-113025000D02*
X182675000Y-113025000D01*
D12*
X202440476Y-114841905D02*
X202440476Y-114041905D01*
X203278571Y-114765714D02*
X203240476Y-114803810D01*
X203126190Y-114841905D01*
X203050000Y-114841905D01*
X202935714Y-114803810D01*
X202859523Y-114727619D01*
X202821428Y-114651429D01*
X202783333Y-114499048D01*
X202783333Y-114384762D01*
X202821428Y-114232381D01*
X202859523Y-114156190D01*
X202935714Y-114080000D01*
X203050000Y-114041905D01*
X203126190Y-114041905D01*
X203240476Y-114080000D01*
X203278571Y-114118095D01*
X203583333Y-114803810D02*
X203697619Y-114841905D01*
X203888095Y-114841905D01*
X203964285Y-114803810D01*
X204002381Y-114765714D01*
X204040476Y-114689524D01*
X204040476Y-114613333D01*
X204002381Y-114537143D01*
X203964285Y-114499048D01*
X203888095Y-114460952D01*
X203735714Y-114422857D01*
X203659523Y-114384762D01*
X203621428Y-114346667D01*
X203583333Y-114270476D01*
X203583333Y-114194286D01*
X203621428Y-114118095D01*
X203659523Y-114080000D01*
X203735714Y-114041905D01*
X203926190Y-114041905D01*
X204040476Y-114080000D01*
X204383333Y-114841905D02*
X204383333Y-114041905D01*
X204688095Y-114041905D01*
X204764286Y-114080000D01*
X204802381Y-114118095D01*
X204840476Y-114194286D01*
X204840476Y-114308571D01*
X204802381Y-114384762D01*
X204764286Y-114422857D01*
X204688095Y-114460952D01*
X204383333Y-114460952D01*
X205792857Y-114841905D02*
X205792857Y-114041905D01*
X206059524Y-114613333D01*
X206326191Y-114041905D01*
X206326191Y-114841905D01*
X206821429Y-114841905D02*
X206745238Y-114803810D01*
X206707143Y-114765714D01*
X206669048Y-114689524D01*
X206669048Y-114460952D01*
X206707143Y-114384762D01*
X206745238Y-114346667D01*
X206821429Y-114308571D01*
X206935715Y-114308571D01*
X207011905Y-114346667D01*
X207050000Y-114384762D01*
X207088096Y-114460952D01*
X207088096Y-114689524D01*
X207050000Y-114765714D01*
X207011905Y-114803810D01*
X206935715Y-114841905D01*
X206821429Y-114841905D01*
X207773810Y-114841905D02*
X207773810Y-114041905D01*
X207773810Y-114803810D02*
X207697620Y-114841905D01*
X207545239Y-114841905D01*
X207469048Y-114803810D01*
X207430953Y-114765714D01*
X207392858Y-114689524D01*
X207392858Y-114460952D01*
X207430953Y-114384762D01*
X207469048Y-114346667D01*
X207545239Y-114308571D01*
X207697620Y-114308571D01*
X207773810Y-114346667D01*
X208459525Y-114803810D02*
X208383335Y-114841905D01*
X208230954Y-114841905D01*
X208154763Y-114803810D01*
X208116668Y-114727619D01*
X208116668Y-114422857D01*
X208154763Y-114346667D01*
X208230954Y-114308571D01*
X208383335Y-114308571D01*
X208459525Y-114346667D01*
X208497620Y-114422857D01*
X208497620Y-114499048D01*
X208116668Y-114575238D01*
X202440476Y-116111905D02*
X202440476Y-115311905D01*
X202745238Y-115311905D01*
X202821429Y-115350000D01*
X202859524Y-115388095D01*
X202897619Y-115464286D01*
X202897619Y-115578571D01*
X202859524Y-115654762D01*
X202821429Y-115692857D01*
X202745238Y-115730952D01*
X202440476Y-115730952D01*
X203240476Y-115578571D02*
X203850000Y-115807143D01*
X203240476Y-116035714D01*
X204230952Y-116111905D02*
X204230952Y-115311905D01*
X204535714Y-115311905D01*
X204611905Y-115350000D01*
X204650000Y-115388095D01*
X204688095Y-115464286D01*
X204688095Y-115578571D01*
X204650000Y-115654762D01*
X204611905Y-115692857D01*
X204535714Y-115730952D01*
X204230952Y-115730952D01*
X205030952Y-116111905D02*
X205030952Y-115578571D01*
X205030952Y-115730952D02*
X205069047Y-115654762D01*
X205107143Y-115616667D01*
X205183333Y-115578571D01*
X205259524Y-115578571D01*
X205640476Y-116111905D02*
X205564285Y-116073810D01*
X205526190Y-116035714D01*
X205488095Y-115959524D01*
X205488095Y-115730952D01*
X205526190Y-115654762D01*
X205564285Y-115616667D01*
X205640476Y-115578571D01*
X205754762Y-115578571D01*
X205830952Y-115616667D01*
X205869047Y-115654762D01*
X205907143Y-115730952D01*
X205907143Y-115959524D01*
X205869047Y-116035714D01*
X205830952Y-116073810D01*
X205754762Y-116111905D01*
X205640476Y-116111905D01*
X206592857Y-115578571D02*
X206592857Y-116226190D01*
X206554762Y-116302381D01*
X206516667Y-116340476D01*
X206440476Y-116378571D01*
X206326191Y-116378571D01*
X206250000Y-116340476D01*
X206592857Y-116073810D02*
X206516667Y-116111905D01*
X206364286Y-116111905D01*
X206288095Y-116073810D01*
X206250000Y-116035714D01*
X206211905Y-115959524D01*
X206211905Y-115730952D01*
X206250000Y-115654762D01*
X206288095Y-115616667D01*
X206364286Y-115578571D01*
X206516667Y-115578571D01*
X206592857Y-115616667D01*
X206973810Y-116111905D02*
X206973810Y-115578571D01*
X206973810Y-115730952D02*
X207011905Y-115654762D01*
X207050001Y-115616667D01*
X207126191Y-115578571D01*
X207202382Y-115578571D01*
X207811905Y-116111905D02*
X207811905Y-115692857D01*
X207773810Y-115616667D01*
X207697620Y-115578571D01*
X207545239Y-115578571D01*
X207469048Y-115616667D01*
X207811905Y-116073810D02*
X207735715Y-116111905D01*
X207545239Y-116111905D01*
X207469048Y-116073810D01*
X207430953Y-115997619D01*
X207430953Y-115921429D01*
X207469048Y-115845238D01*
X207545239Y-115807143D01*
X207735715Y-115807143D01*
X207811905Y-115769048D01*
X208192858Y-116111905D02*
X208192858Y-115578571D01*
X208192858Y-115654762D02*
X208230953Y-115616667D01*
X208307144Y-115578571D01*
X208421430Y-115578571D01*
X208497620Y-115616667D01*
X208535715Y-115692857D01*
X208535715Y-116111905D01*
X208535715Y-115692857D02*
X208573811Y-115616667D01*
X208650001Y-115578571D01*
X208764287Y-115578571D01*
X208840477Y-115616667D01*
X208878572Y-115692857D01*
X208878572Y-116111905D01*
X209259525Y-116111905D02*
X209259525Y-115578571D01*
X209259525Y-115654762D02*
X209297620Y-115616667D01*
X209373811Y-115578571D01*
X209488097Y-115578571D01*
X209564287Y-115616667D01*
X209602382Y-115692857D01*
X209602382Y-116111905D01*
X209602382Y-115692857D02*
X209640478Y-115616667D01*
X209716668Y-115578571D01*
X209830954Y-115578571D01*
X209907144Y-115616667D01*
X209945239Y-115692857D01*
X209945239Y-116111905D01*
X210630954Y-116073810D02*
X210554764Y-116111905D01*
X210402383Y-116111905D01*
X210326192Y-116073810D01*
X210288097Y-115997619D01*
X210288097Y-115692857D01*
X210326192Y-115616667D01*
X210402383Y-115578571D01*
X210554764Y-115578571D01*
X210630954Y-115616667D01*
X210669049Y-115692857D01*
X210669049Y-115769048D01*
X210288097Y-115845238D01*
X211011906Y-116111905D02*
X211011906Y-115578571D01*
X211011906Y-115730952D02*
X211050001Y-115654762D01*
X211088097Y-115616667D01*
X211164287Y-115578571D01*
X211240478Y-115578571D01*
X202326190Y-116581905D02*
X202783333Y-116581905D01*
X202554762Y-117381905D02*
X202554762Y-116581905D01*
X203050000Y-116848571D02*
X203659524Y-117077143D01*
X203050000Y-117305714D01*
X203926190Y-116581905D02*
X204383333Y-116581905D01*
X204154762Y-117381905D02*
X204154762Y-116581905D01*
X204992857Y-117381905D02*
X204992857Y-116962857D01*
X204954762Y-116886667D01*
X204878572Y-116848571D01*
X204726191Y-116848571D01*
X204650000Y-116886667D01*
X204992857Y-117343810D02*
X204916667Y-117381905D01*
X204726191Y-117381905D01*
X204650000Y-117343810D01*
X204611905Y-117267619D01*
X204611905Y-117191429D01*
X204650000Y-117115238D01*
X204726191Y-117077143D01*
X204916667Y-117077143D01*
X204992857Y-117039048D01*
X205373810Y-117381905D02*
X205373810Y-116848571D01*
X205373810Y-117000952D02*
X205411905Y-116924762D01*
X205450001Y-116886667D01*
X205526191Y-116848571D01*
X205602382Y-116848571D01*
X206211905Y-116848571D02*
X206211905Y-117496190D01*
X206173810Y-117572381D01*
X206135715Y-117610476D01*
X206059524Y-117648571D01*
X205945239Y-117648571D01*
X205869048Y-117610476D01*
X206211905Y-117343810D02*
X206135715Y-117381905D01*
X205983334Y-117381905D01*
X205907143Y-117343810D01*
X205869048Y-117305714D01*
X205830953Y-117229524D01*
X205830953Y-117000952D01*
X205869048Y-116924762D01*
X205907143Y-116886667D01*
X205983334Y-116848571D01*
X206135715Y-116848571D01*
X206211905Y-116886667D01*
X206897620Y-117343810D02*
X206821430Y-117381905D01*
X206669049Y-117381905D01*
X206592858Y-117343810D01*
X206554763Y-117267619D01*
X206554763Y-116962857D01*
X206592858Y-116886667D01*
X206669049Y-116848571D01*
X206821430Y-116848571D01*
X206897620Y-116886667D01*
X206935715Y-116962857D01*
X206935715Y-117039048D01*
X206554763Y-117115238D01*
X207164286Y-116848571D02*
X207469048Y-116848571D01*
X207278572Y-116581905D02*
X207278572Y-117267619D01*
X207316667Y-117343810D01*
X207392858Y-117381905D01*
X207469048Y-117381905D01*
X202559524Y-105428571D02*
X202892858Y-105428571D01*
X203035715Y-105952381D02*
X202559524Y-105952381D01*
X202559524Y-104952381D01*
X203035715Y-104952381D01*
X203369048Y-104952381D02*
X204035715Y-105952381D01*
X204035715Y-104952381D02*
X203369048Y-105952381D01*
X211059524Y-104952381D02*
X210583333Y-104952381D01*
X210535714Y-105428571D01*
X210583333Y-105380952D01*
X210678571Y-105333333D01*
X210916667Y-105333333D01*
X211011905Y-105380952D01*
X211059524Y-105428571D01*
X211107143Y-105523810D01*
X211107143Y-105761905D01*
X211059524Y-105857143D01*
X211011905Y-105904762D01*
X210916667Y-105952381D01*
X210678571Y-105952381D01*
X210583333Y-105904762D01*
X210535714Y-105857143D01*
X211392857Y-104952381D02*
X211726190Y-105952381D01*
X212059524Y-104952381D01*
X181833331Y-126752381D02*
X181833331Y-125752381D01*
X182214284Y-125752381D01*
X182309522Y-125800000D01*
X182357141Y-125847619D01*
X182404760Y-125942857D01*
X182404760Y-126085714D01*
X182357141Y-126180952D01*
X182309522Y-126228571D01*
X182214284Y-126276190D01*
X181833331Y-126276190D01*
X182785712Y-126704762D02*
X182928569Y-126752381D01*
X183166665Y-126752381D01*
X183261903Y-126704762D01*
X183309522Y-126657143D01*
X183357141Y-126561905D01*
X183357141Y-126466667D01*
X183309522Y-126371429D01*
X183261903Y-126323810D01*
X183166665Y-126276190D01*
X182976188Y-126228571D01*
X182880950Y-126180952D01*
X182833331Y-126133333D01*
X182785712Y-126038095D01*
X182785712Y-125942857D01*
X182833331Y-125847619D01*
X182880950Y-125800000D01*
X182976188Y-125752381D01*
X183214284Y-125752381D01*
X183357141Y-125800000D01*
X184547617Y-126752381D02*
X184547617Y-125752381D01*
X184880951Y-126466667D01*
X185214284Y-125752381D01*
X185214284Y-126752381D01*
X186071427Y-126704762D02*
X185976189Y-126752381D01*
X185785712Y-126752381D01*
X185690474Y-126704762D01*
X185642855Y-126609524D01*
X185642855Y-126228571D01*
X185690474Y-126133333D01*
X185785712Y-126085714D01*
X185976189Y-126085714D01*
X186071427Y-126133333D01*
X186119046Y-126228571D01*
X186119046Y-126323810D01*
X185642855Y-126419048D01*
X186547617Y-126752381D02*
X186547617Y-126085714D01*
X186547617Y-126180952D02*
X186595236Y-126133333D01*
X186690474Y-126085714D01*
X186833332Y-126085714D01*
X186928570Y-126133333D01*
X186976189Y-126228571D01*
X186976189Y-126752381D01*
X186976189Y-126228571D02*
X187023808Y-126133333D01*
X187119046Y-126085714D01*
X187261903Y-126085714D01*
X187357141Y-126133333D01*
X187404760Y-126228571D01*
X187404760Y-126752381D01*
X188023807Y-126752381D02*
X187928569Y-126704762D01*
X187880950Y-126657143D01*
X187833331Y-126561905D01*
X187833331Y-126276190D01*
X187880950Y-126180952D01*
X187928569Y-126133333D01*
X188023807Y-126085714D01*
X188166665Y-126085714D01*
X188261903Y-126133333D01*
X188309522Y-126180952D01*
X188357141Y-126276190D01*
X188357141Y-126561905D01*
X188309522Y-126657143D01*
X188261903Y-126704762D01*
X188166665Y-126752381D01*
X188023807Y-126752381D01*
X188785712Y-126752381D02*
X188785712Y-126085714D01*
X188785712Y-126276190D02*
X188833331Y-126180952D01*
X188880950Y-126133333D01*
X188976188Y-126085714D01*
X189071427Y-126085714D01*
X189309522Y-126085714D02*
X189547617Y-126752381D01*
X189785713Y-126085714D02*
X189547617Y-126752381D01*
X189452379Y-126990476D01*
X189404760Y-127038095D01*
X189309522Y-127085714D01*
X191738094Y-126752381D02*
X191690475Y-126752381D01*
X191595237Y-126704762D01*
X191452380Y-126561905D01*
X191214285Y-126276190D01*
X191119046Y-126133333D01*
X191071427Y-125990476D01*
X191071427Y-125895238D01*
X191119046Y-125800000D01*
X191214285Y-125752381D01*
X191261904Y-125752381D01*
X191357142Y-125800000D01*
X191404761Y-125895238D01*
X191404761Y-125942857D01*
X191357142Y-126038095D01*
X191309523Y-126085714D01*
X191023808Y-126276190D01*
X190976189Y-126323810D01*
X190928570Y-126419048D01*
X190928570Y-126561905D01*
X190976189Y-126657143D01*
X191023808Y-126704762D01*
X191119046Y-126752381D01*
X191261904Y-126752381D01*
X191357142Y-126704762D01*
X191404761Y-126657143D01*
X191547618Y-126466667D01*
X191595237Y-126323810D01*
X191595237Y-126228571D01*
X193499999Y-126657143D02*
X193452380Y-126704762D01*
X193309523Y-126752381D01*
X193214285Y-126752381D01*
X193071427Y-126704762D01*
X192976189Y-126609524D01*
X192928570Y-126514286D01*
X192880951Y-126323810D01*
X192880951Y-126180952D01*
X192928570Y-125990476D01*
X192976189Y-125895238D01*
X193071427Y-125800000D01*
X193214285Y-125752381D01*
X193309523Y-125752381D01*
X193452380Y-125800000D01*
X193499999Y-125847619D01*
X194071427Y-126752381D02*
X193976189Y-126704762D01*
X193928570Y-126657143D01*
X193880951Y-126561905D01*
X193880951Y-126276190D01*
X193928570Y-126180952D01*
X193976189Y-126133333D01*
X194071427Y-126085714D01*
X194214285Y-126085714D01*
X194309523Y-126133333D01*
X194357142Y-126180952D01*
X194404761Y-126276190D01*
X194404761Y-126561905D01*
X194357142Y-126657143D01*
X194309523Y-126704762D01*
X194214285Y-126752381D01*
X194071427Y-126752381D01*
X194833332Y-126085714D02*
X194833332Y-126752381D01*
X194833332Y-126180952D02*
X194880951Y-126133333D01*
X194976189Y-126085714D01*
X195119047Y-126085714D01*
X195214285Y-126133333D01*
X195261904Y-126228571D01*
X195261904Y-126752381D01*
X195595237Y-126085714D02*
X195976189Y-126085714D01*
X195738094Y-125752381D02*
X195738094Y-126609524D01*
X195785713Y-126704762D01*
X195880951Y-126752381D01*
X195976189Y-126752381D01*
X196309523Y-126752381D02*
X196309523Y-126085714D01*
X196309523Y-126276190D02*
X196357142Y-126180952D01*
X196404761Y-126133333D01*
X196499999Y-126085714D01*
X196595238Y-126085714D01*
X197071428Y-126752381D02*
X196976190Y-126704762D01*
X196928571Y-126657143D01*
X196880952Y-126561905D01*
X196880952Y-126276190D01*
X196928571Y-126180952D01*
X196976190Y-126133333D01*
X197071428Y-126085714D01*
X197214286Y-126085714D01*
X197309524Y-126133333D01*
X197357143Y-126180952D01*
X197404762Y-126276190D01*
X197404762Y-126561905D01*
X197357143Y-126657143D01*
X197309524Y-126704762D01*
X197214286Y-126752381D01*
X197071428Y-126752381D01*
X197976190Y-126752381D02*
X197880952Y-126704762D01*
X197833333Y-126609524D01*
X197833333Y-125752381D01*
X198500000Y-126752381D02*
X198404762Y-126704762D01*
X198357143Y-126609524D01*
X198357143Y-125752381D01*
X199261906Y-126704762D02*
X199166668Y-126752381D01*
X198976191Y-126752381D01*
X198880953Y-126704762D01*
X198833334Y-126609524D01*
X198833334Y-126228571D01*
X198880953Y-126133333D01*
X198976191Y-126085714D01*
X199166668Y-126085714D01*
X199261906Y-126133333D01*
X199309525Y-126228571D01*
X199309525Y-126323810D01*
X198833334Y-126419048D01*
X199738096Y-126752381D02*
X199738096Y-126085714D01*
X199738096Y-126276190D02*
X199785715Y-126180952D01*
X199833334Y-126133333D01*
X199928572Y-126085714D01*
X200023811Y-126085714D01*
X201071430Y-126704762D02*
X201214287Y-126752381D01*
X201452383Y-126752381D01*
X201547621Y-126704762D01*
X201595240Y-126657143D01*
X201642859Y-126561905D01*
X201642859Y-126466667D01*
X201595240Y-126371429D01*
X201547621Y-126323810D01*
X201452383Y-126276190D01*
X201261906Y-126228571D01*
X201166668Y-126180952D01*
X201119049Y-126133333D01*
X201071430Y-126038095D01*
X201071430Y-125942857D01*
X201119049Y-125847619D01*
X201166668Y-125800000D01*
X201261906Y-125752381D01*
X201500002Y-125752381D01*
X201642859Y-125800000D01*
X202071430Y-126752381D02*
X202071430Y-125752381D01*
X202500002Y-126752381D02*
X202500002Y-126228571D01*
X202452383Y-126133333D01*
X202357145Y-126085714D01*
X202214287Y-126085714D01*
X202119049Y-126133333D01*
X202071430Y-126180952D01*
X202976192Y-126752381D02*
X202976192Y-126085714D01*
X202976192Y-125752381D02*
X202928573Y-125800000D01*
X202976192Y-125847619D01*
X203023811Y-125800000D01*
X202976192Y-125752381D01*
X202976192Y-125847619D01*
X203833335Y-126704762D02*
X203738097Y-126752381D01*
X203547620Y-126752381D01*
X203452382Y-126704762D01*
X203404763Y-126609524D01*
X203404763Y-126228571D01*
X203452382Y-126133333D01*
X203547620Y-126085714D01*
X203738097Y-126085714D01*
X203833335Y-126133333D01*
X203880954Y-126228571D01*
X203880954Y-126323810D01*
X203404763Y-126419048D01*
X204452382Y-126752381D02*
X204357144Y-126704762D01*
X204309525Y-126609524D01*
X204309525Y-125752381D01*
X205261907Y-126752381D02*
X205261907Y-125752381D01*
X205261907Y-126704762D02*
X205166669Y-126752381D01*
X204976192Y-126752381D01*
X204880954Y-126704762D01*
X204833335Y-126657143D01*
X204785716Y-126561905D01*
X204785716Y-126276190D01*
X204833335Y-126180952D01*
X204880954Y-126133333D01*
X204976192Y-126085714D01*
X205166669Y-126085714D01*
X205261907Y-126133333D01*
X206404764Y-126085714D02*
X206642859Y-126752381D01*
X206880955Y-126085714D01*
X207785717Y-126752381D02*
X207214288Y-126752381D01*
X207500002Y-126752381D02*
X207500002Y-125752381D01*
X207404764Y-125895238D01*
X207309526Y-125990476D01*
X207214288Y-126038095D01*
X208214288Y-126657143D02*
X208261907Y-126704762D01*
X208214288Y-126752381D01*
X208166669Y-126704762D01*
X208214288Y-126657143D01*
X208214288Y-126752381D01*
X208880954Y-125752381D02*
X208976193Y-125752381D01*
X209071431Y-125800000D01*
X209119050Y-125847619D01*
X209166669Y-125942857D01*
X209214288Y-126133333D01*
X209214288Y-126371429D01*
X209166669Y-126561905D01*
X209119050Y-126657143D01*
X209071431Y-126704762D01*
X208976193Y-126752381D01*
X208880954Y-126752381D01*
X208785716Y-126704762D01*
X208738097Y-126657143D01*
X208690478Y-126561905D01*
X208642859Y-126371429D01*
X208642859Y-126133333D01*
X208690478Y-125942857D01*
X208738097Y-125847619D01*
X208785716Y-125800000D01*
X208880954Y-125752381D01*
X223752381Y-123776190D02*
X222752381Y-123776190D01*
X223657143Y-122728571D02*
X223704762Y-122776190D01*
X223752381Y-122919047D01*
X223752381Y-123014285D01*
X223704762Y-123157143D01*
X223609524Y-123252381D01*
X223514286Y-123300000D01*
X223323810Y-123347619D01*
X223180952Y-123347619D01*
X222990476Y-123300000D01*
X222895238Y-123252381D01*
X222800000Y-123157143D01*
X222752381Y-123014285D01*
X222752381Y-122919047D01*
X222800000Y-122776190D01*
X222847619Y-122728571D01*
X223704762Y-122347619D02*
X223752381Y-122204762D01*
X223752381Y-121966666D01*
X223704762Y-121871428D01*
X223657143Y-121823809D01*
X223561905Y-121776190D01*
X223466667Y-121776190D01*
X223371429Y-121823809D01*
X223323810Y-121871428D01*
X223276190Y-121966666D01*
X223228571Y-122157143D01*
X223180952Y-122252381D01*
X223133333Y-122300000D01*
X223038095Y-122347619D01*
X222942857Y-122347619D01*
X222847619Y-122300000D01*
X222800000Y-122252381D01*
X222752381Y-122157143D01*
X222752381Y-121919047D01*
X222800000Y-121776190D01*
X223752381Y-121347619D02*
X222752381Y-121347619D01*
X222752381Y-120966666D01*
X222800000Y-120871428D01*
X222847619Y-120823809D01*
X222942857Y-120776190D01*
X223085714Y-120776190D01*
X223180952Y-120823809D01*
X223228571Y-120871428D01*
X223276190Y-120966666D01*
X223276190Y-121347619D01*
X218214286Y-113702381D02*
X218785715Y-113702381D01*
X218500000Y-114702381D02*
X218500000Y-113702381D01*
X213238095Y-114702381D02*
X213238095Y-113702381D01*
X213619048Y-113702381D01*
X213714286Y-113750000D01*
X213761905Y-113797619D01*
X213809524Y-113892857D01*
X213809524Y-114035714D01*
X213761905Y-114130952D01*
X213714286Y-114178571D01*
X213619048Y-114226190D01*
X213238095Y-114226190D01*
X219770000Y-117135000D02*
X219135000Y-117770000D01*
X219135000Y-117770000D02*
X217865000Y-117770000D01*
X217865000Y-117770000D02*
X217230000Y-117135000D01*
X217230000Y-117135000D02*
X216595000Y-117770000D01*
X216595000Y-117770000D02*
X215325000Y-117770000D01*
X215325000Y-117770000D02*
X214690000Y-117135000D01*
X214690000Y-117135000D02*
X214055000Y-117770000D01*
X214055000Y-117770000D02*
X212785000Y-117770000D01*
X212785000Y-117770000D02*
X212150000Y-117135000D01*
X212150000Y-117135000D02*
X212150000Y-115865000D01*
X212150000Y-115865000D02*
X212785000Y-115230000D01*
X212785000Y-115230000D02*
X214055000Y-115230000D01*
X214055000Y-115230000D02*
X214690000Y-115865000D01*
X214690000Y-115865000D02*
X215325000Y-115230000D01*
X215325000Y-115230000D02*
X216595000Y-115230000D01*
X216595000Y-115230000D02*
X217230000Y-115865000D01*
X217230000Y-115865000D02*
X217865000Y-115230000D01*
X217865000Y-115230000D02*
X219135000Y-115230000D01*
X219135000Y-115230000D02*
X219770000Y-115865000D01*
X219770000Y-115865000D02*
X219770000Y-117135000D01*
X224785000Y-126230000D02*
X228595000Y-126230000D01*
X224785000Y-123690000D02*
X228595000Y-123690000D01*
X224785000Y-121150000D02*
X228595000Y-121150000D01*
X224785000Y-118610000D02*
X228595000Y-118610000D01*
X228595000Y-118610000D02*
X229230000Y-119245000D01*
X229230000Y-119245000D02*
X229230000Y-120515000D01*
X229230000Y-120515000D02*
X228595000Y-121150000D01*
X228595000Y-121150000D02*
X229230000Y-121785000D01*
X229230000Y-121785000D02*
X229230000Y-123055000D01*
X229230000Y-123055000D02*
X228595000Y-123690000D01*
X228595000Y-123690000D02*
X229230000Y-124325000D01*
X229230000Y-124325000D02*
X229230000Y-125595000D01*
X229230000Y-125595000D02*
X228595000Y-126230000D01*
X224785000Y-126230000D02*
X224150000Y-125595000D01*
X224150000Y-125595000D02*
X224150000Y-124325000D01*
X224150000Y-124325000D02*
X224785000Y-123690000D01*
X224785000Y-123690000D02*
X224150000Y-123055000D01*
X224150000Y-123055000D02*
X224150000Y-121785000D01*
X224150000Y-121785000D02*
X224785000Y-121150000D01*
X224785000Y-121150000D02*
X224150000Y-120515000D01*
X224150000Y-120515000D02*
X224150000Y-119245000D01*
X224785000Y-118610000D02*
X224150000Y-119245000D01*
X224150000Y-117975000D02*
G75*
G03X224150000Y-117975000I-635000J0D01*
G01*
X206595000Y-104230000D02*
X205325000Y-104230000D01*
X209135000Y-104230000D02*
X207865000Y-104230000D01*
X207865000Y-106770000D02*
X209135000Y-106770000D01*
X206595000Y-106770000D02*
X205325000Y-106770000D01*
X207230000Y-104865000D02*
X206595000Y-104230000D01*
X207230000Y-104865000D02*
X207865000Y-104230000D01*
X207230000Y-106135000D02*
X206595000Y-106770000D01*
X207865000Y-106770000D02*
X207230000Y-106135000D01*
X209770000Y-106135000D02*
X209770000Y-104865000D01*
X209770000Y-104865000D02*
X209135000Y-104230000D01*
X205325000Y-106770000D02*
X204690000Y-106135000D01*
X204690000Y-106135000D02*
X204690000Y-104865000D01*
X204690000Y-104865000D02*
X205325000Y-104230000D01*
X209770000Y-106135000D02*
X209135000Y-106770000D01*
X179500000Y-107310000D02*
X209980000Y-107310000D01*
X209980000Y-107310000D02*
X209980000Y-109850000D01*
X179500000Y-125090000D02*
X209980000Y-125090000D01*
X209980000Y-125090000D02*
X209980000Y-122550000D01*
X209980000Y-109850000D02*
X179500000Y-109850000D01*
X179500000Y-109850000D02*
X179500000Y-107310000D01*
X209980000Y-122550000D02*
X179500000Y-122550000D01*
X179500000Y-122550000D02*
X179500000Y-125090000D01*
D13*
G36*
X220826997Y-110815216D02*
X221158496Y-111146644D01*
X220864810Y-111440408D01*
X220571125Y-111734172D01*
X220571125Y-112023612D01*
X223013890Y-112025697D01*
X225456656Y-112027781D01*
X225521405Y-112049722D01*
X225601244Y-112084826D01*
X225672302Y-112132477D01*
X225733303Y-112191378D01*
X225782967Y-112260230D01*
X225820018Y-112337736D01*
X225828067Y-112361156D01*
X225831386Y-112371912D01*
X225834258Y-112382429D01*
X225836713Y-112393883D01*
X225838786Y-112407451D01*
X225840508Y-112424311D01*
X225841912Y-112445637D01*
X225843031Y-112472608D01*
X225843896Y-112506400D01*
X225844541Y-112548189D01*
X225844997Y-112599153D01*
X225845298Y-112660467D01*
X225845476Y-112733309D01*
X225845562Y-112818855D01*
X225845591Y-112918282D01*
X225845593Y-112996156D01*
X225845593Y-113575594D01*
X225823368Y-113643063D01*
X225808401Y-113681922D01*
X225789448Y-113722079D01*
X225770234Y-113755730D01*
X225767805Y-113759376D01*
X225756575Y-113773244D01*
X225734902Y-113797473D01*
X225703592Y-113831224D01*
X225663454Y-113873657D01*
X225615295Y-113923933D01*
X225559923Y-113981214D01*
X225498145Y-114044661D01*
X225430769Y-114113434D01*
X225358603Y-114186695D01*
X225282454Y-114263604D01*
X225282031Y-114264031D01*
X225199499Y-114347134D01*
X225127308Y-114419701D01*
X225064655Y-114482498D01*
X225010734Y-114536295D01*
X224964739Y-114581856D01*
X224925867Y-114619951D01*
X224893313Y-114651345D01*
X224866271Y-114676806D01*
X224843937Y-114697103D01*
X224825506Y-114713001D01*
X224810173Y-114725268D01*
X224797134Y-114734671D01*
X224785582Y-114741978D01*
X224774715Y-114747955D01*
X224774031Y-114748307D01*
X224763485Y-114753954D01*
X224754310Y-114759192D01*
X224745906Y-114764037D01*
X224737674Y-114768504D01*
X224729016Y-114772608D01*
X224719332Y-114776365D01*
X224708024Y-114779789D01*
X224694492Y-114782897D01*
X224678138Y-114785703D01*
X224658363Y-114788223D01*
X224634568Y-114790471D01*
X224606154Y-114792463D01*
X224572522Y-114794215D01*
X224533074Y-114795741D01*
X224487209Y-114797057D01*
X224434331Y-114798178D01*
X224373838Y-114799119D01*
X224305134Y-114799896D01*
X224227618Y-114800524D01*
X224140692Y-114801017D01*
X224043757Y-114801392D01*
X223936213Y-114801664D01*
X223817463Y-114801847D01*
X223686908Y-114801957D01*
X223543947Y-114802009D01*
X223387983Y-114802019D01*
X223218416Y-114802001D01*
X223034648Y-114801972D01*
X222836080Y-114801946D01*
X222667400Y-114801938D01*
X220713873Y-114801938D01*
X220715920Y-114335609D01*
X220717968Y-113869281D01*
X222539923Y-113867280D01*
X224361877Y-113865279D01*
X224637407Y-113584171D01*
X224912937Y-113303064D01*
X224912937Y-112968600D01*
X222474140Y-112966491D01*
X222240547Y-112966286D01*
X222022297Y-112966086D01*
X221818859Y-112965887D01*
X221629702Y-112965687D01*
X221454293Y-112965482D01*
X221292102Y-112965268D01*
X221142596Y-112965041D01*
X221005244Y-112964799D01*
X220879515Y-112964537D01*
X220764877Y-112964253D01*
X220660798Y-112963942D01*
X220566747Y-112963602D01*
X220482193Y-112963228D01*
X220406603Y-112962818D01*
X220339446Y-112962367D01*
X220280192Y-112961873D01*
X220228307Y-112961331D01*
X220183261Y-112960739D01*
X220144522Y-112960092D01*
X220111558Y-112959388D01*
X220083838Y-112958623D01*
X220060831Y-112957793D01*
X220042004Y-112956894D01*
X220026826Y-112955924D01*
X220014767Y-112954879D01*
X220005293Y-112953756D01*
X219997874Y-112952550D01*
X219991978Y-112951258D01*
X219987992Y-112950159D01*
X219908490Y-112919109D01*
X219836268Y-112876591D01*
X219773325Y-112824229D01*
X219721660Y-112763649D01*
X219687646Y-112705955D01*
X219677604Y-112684676D01*
X219668892Y-112664860D01*
X219661420Y-112645261D01*
X219655100Y-112624633D01*
X219649843Y-112601729D01*
X219645559Y-112575305D01*
X219642161Y-112544113D01*
X219639559Y-112506908D01*
X219637664Y-112462443D01*
X219636387Y-112409473D01*
X219635639Y-112346751D01*
X219635332Y-112273031D01*
X219635376Y-112187067D01*
X219635682Y-112087613D01*
X219636116Y-111983875D01*
X219638468Y-111448344D01*
X219657003Y-111396750D01*
X219664689Y-111375643D01*
X219672188Y-111356529D01*
X219680333Y-111338442D01*
X219689953Y-111320417D01*
X219701880Y-111301488D01*
X219716945Y-111280690D01*
X219735978Y-111257057D01*
X219759812Y-111229623D01*
X219789276Y-111197423D01*
X219825203Y-111159492D01*
X219868422Y-111114863D01*
X219919766Y-111062572D01*
X219980064Y-111001652D01*
X220050148Y-110931139D01*
X220106241Y-110874785D01*
X220495499Y-110483788D01*
X220826997Y-110815216D01*
X220826997Y-110815216D01*
G37*
X220826997Y-110815216D02*
X221158496Y-111146644D01*
X220864810Y-111440408D01*
X220571125Y-111734172D01*
X220571125Y-112023612D01*
X223013890Y-112025697D01*
X225456656Y-112027781D01*
X225521405Y-112049722D01*
X225601244Y-112084826D01*
X225672302Y-112132477D01*
X225733303Y-112191378D01*
X225782967Y-112260230D01*
X225820018Y-112337736D01*
X225828067Y-112361156D01*
X225831386Y-112371912D01*
X225834258Y-112382429D01*
X225836713Y-112393883D01*
X225838786Y-112407451D01*
X225840508Y-112424311D01*
X225841912Y-112445637D01*
X225843031Y-112472608D01*
X225843896Y-112506400D01*
X225844541Y-112548189D01*
X225844997Y-112599153D01*
X225845298Y-112660467D01*
X225845476Y-112733309D01*
X225845562Y-112818855D01*
X225845591Y-112918282D01*
X225845593Y-112996156D01*
X225845593Y-113575594D01*
X225823368Y-113643063D01*
X225808401Y-113681922D01*
X225789448Y-113722079D01*
X225770234Y-113755730D01*
X225767805Y-113759376D01*
X225756575Y-113773244D01*
X225734902Y-113797473D01*
X225703592Y-113831224D01*
X225663454Y-113873657D01*
X225615295Y-113923933D01*
X225559923Y-113981214D01*
X225498145Y-114044661D01*
X225430769Y-114113434D01*
X225358603Y-114186695D01*
X225282454Y-114263604D01*
X225282031Y-114264031D01*
X225199499Y-114347134D01*
X225127308Y-114419701D01*
X225064655Y-114482498D01*
X225010734Y-114536295D01*
X224964739Y-114581856D01*
X224925867Y-114619951D01*
X224893313Y-114651345D01*
X224866271Y-114676806D01*
X224843937Y-114697103D01*
X224825506Y-114713001D01*
X224810173Y-114725268D01*
X224797134Y-114734671D01*
X224785582Y-114741978D01*
X224774715Y-114747955D01*
X224774031Y-114748307D01*
X224763485Y-114753954D01*
X224754310Y-114759192D01*
X224745906Y-114764037D01*
X224737674Y-114768504D01*
X224729016Y-114772608D01*
X224719332Y-114776365D01*
X224708024Y-114779789D01*
X224694492Y-114782897D01*
X224678138Y-114785703D01*
X224658363Y-114788223D01*
X224634568Y-114790471D01*
X224606154Y-114792463D01*
X224572522Y-114794215D01*
X224533074Y-114795741D01*
X224487209Y-114797057D01*
X224434331Y-114798178D01*
X224373838Y-114799119D01*
X224305134Y-114799896D01*
X224227618Y-114800524D01*
X224140692Y-114801017D01*
X224043757Y-114801392D01*
X223936213Y-114801664D01*
X223817463Y-114801847D01*
X223686908Y-114801957D01*
X223543947Y-114802009D01*
X223387983Y-114802019D01*
X223218416Y-114802001D01*
X223034648Y-114801972D01*
X222836080Y-114801946D01*
X222667400Y-114801938D01*
X220713873Y-114801938D01*
X220715920Y-114335609D01*
X220717968Y-113869281D01*
X222539923Y-113867280D01*
X224361877Y-113865279D01*
X224637407Y-113584171D01*
X224912937Y-113303064D01*
X224912937Y-112968600D01*
X222474140Y-112966491D01*
X222240547Y-112966286D01*
X222022297Y-112966086D01*
X221818859Y-112965887D01*
X221629702Y-112965687D01*
X221454293Y-112965482D01*
X221292102Y-112965268D01*
X221142596Y-112965041D01*
X221005244Y-112964799D01*
X220879515Y-112964537D01*
X220764877Y-112964253D01*
X220660798Y-112963942D01*
X220566747Y-112963602D01*
X220482193Y-112963228D01*
X220406603Y-112962818D01*
X220339446Y-112962367D01*
X220280192Y-112961873D01*
X220228307Y-112961331D01*
X220183261Y-112960739D01*
X220144522Y-112960092D01*
X220111558Y-112959388D01*
X220083838Y-112958623D01*
X220060831Y-112957793D01*
X220042004Y-112956894D01*
X220026826Y-112955924D01*
X220014767Y-112954879D01*
X220005293Y-112953756D01*
X219997874Y-112952550D01*
X219991978Y-112951258D01*
X219987992Y-112950159D01*
X219908490Y-112919109D01*
X219836268Y-112876591D01*
X219773325Y-112824229D01*
X219721660Y-112763649D01*
X219687646Y-112705955D01*
X219677604Y-112684676D01*
X219668892Y-112664860D01*
X219661420Y-112645261D01*
X219655100Y-112624633D01*
X219649843Y-112601729D01*
X219645559Y-112575305D01*
X219642161Y-112544113D01*
X219639559Y-112506908D01*
X219637664Y-112462443D01*
X219636387Y-112409473D01*
X219635639Y-112346751D01*
X219635332Y-112273031D01*
X219635376Y-112187067D01*
X219635682Y-112087613D01*
X219636116Y-111983875D01*
X219638468Y-111448344D01*
X219657003Y-111396750D01*
X219664689Y-111375643D01*
X219672188Y-111356529D01*
X219680333Y-111338442D01*
X219689953Y-111320417D01*
X219701880Y-111301488D01*
X219716945Y-111280690D01*
X219735978Y-111257057D01*
X219759812Y-111229623D01*
X219789276Y-111197423D01*
X219825203Y-111159492D01*
X219868422Y-111114863D01*
X219919766Y-111062572D01*
X219980064Y-111001652D01*
X220050148Y-110931139D01*
X220106241Y-110874785D01*
X220495499Y-110483788D01*
X220826997Y-110815216D01*
G36*
X223559546Y-111142726D02*
X223226230Y-111476113D01*
X223166115Y-111536175D01*
X223109349Y-111592762D01*
X223056923Y-111644896D01*
X223009824Y-111691601D01*
X222969042Y-111731900D01*
X222935564Y-111764814D01*
X222910381Y-111789368D01*
X222894480Y-111804584D01*
X222888874Y-111809500D01*
X222882686Y-111804043D01*
X222866284Y-111788327D01*
X222840663Y-111763335D01*
X222806818Y-111730051D01*
X222765743Y-111689456D01*
X222718434Y-111642535D01*
X222665885Y-111590270D01*
X222609092Y-111533644D01*
X222555487Y-111480082D01*
X222226141Y-111150663D01*
X222896812Y-110479992D01*
X223559546Y-111142726D01*
X223559546Y-111142726D01*
G37*
X223559546Y-111142726D02*
X223226230Y-111476113D01*
X223166115Y-111536175D01*
X223109349Y-111592762D01*
X223056923Y-111644896D01*
X223009824Y-111691601D01*
X222969042Y-111731900D01*
X222935564Y-111764814D01*
X222910381Y-111789368D01*
X222894480Y-111804584D01*
X222888874Y-111809500D01*
X222882686Y-111804043D01*
X222866284Y-111788327D01*
X222840663Y-111763335D01*
X222806818Y-111730051D01*
X222765743Y-111689456D01*
X222718434Y-111642535D01*
X222665885Y-111590270D01*
X222609092Y-111533644D01*
X222555487Y-111480082D01*
X222226141Y-111150663D01*
X222896812Y-110479992D01*
X223559546Y-111142726D01*
G36*
X225093550Y-110755832D02*
X225153088Y-110815515D01*
X225209137Y-110871957D01*
X225260710Y-110924147D01*
X225306818Y-110971073D01*
X225346475Y-111011723D01*
X225378692Y-111045085D01*
X225402482Y-111070147D01*
X225416857Y-111085897D01*
X225420937Y-111091227D01*
X225415472Y-111098126D01*
X225399733Y-111115213D01*
X225374702Y-111141484D01*
X225341360Y-111175933D01*
X225300689Y-111217556D01*
X225253671Y-111265346D01*
X225201288Y-111318299D01*
X225144523Y-111375410D01*
X225089511Y-111430520D01*
X224758085Y-111761875D01*
X224426730Y-111430450D01*
X224095375Y-111099024D01*
X224430769Y-110763699D01*
X224766164Y-110428374D01*
X225093550Y-110755832D01*
X225093550Y-110755832D01*
G37*
X225093550Y-110755832D02*
X225153088Y-110815515D01*
X225209137Y-110871957D01*
X225260710Y-110924147D01*
X225306818Y-110971073D01*
X225346475Y-111011723D01*
X225378692Y-111045085D01*
X225402482Y-111070147D01*
X225416857Y-111085897D01*
X225420937Y-111091227D01*
X225415472Y-111098126D01*
X225399733Y-111115213D01*
X225374702Y-111141484D01*
X225341360Y-111175933D01*
X225300689Y-111217556D01*
X225253671Y-111265346D01*
X225201288Y-111318299D01*
X225144523Y-111375410D01*
X225089511Y-111430520D01*
X224758085Y-111761875D01*
X224426730Y-111430450D01*
X224095375Y-111099024D01*
X224430769Y-110763699D01*
X224766164Y-110428374D01*
X225093550Y-110755832D01*
G36*
X225291953Y-105294916D02*
X225381118Y-105295683D01*
X225456014Y-105296437D01*
X225518244Y-105297251D01*
X225569412Y-105298196D01*
X225611124Y-105299345D01*
X225644984Y-105300768D01*
X225672596Y-105302538D01*
X225695566Y-105304726D01*
X225715497Y-105307403D01*
X225733994Y-105310643D01*
X225752661Y-105314516D01*
X225758281Y-105315755D01*
X225904711Y-105355884D01*
X226042194Y-105409105D01*
X226170634Y-105475351D01*
X226289937Y-105554560D01*
X226400006Y-105646666D01*
X226500747Y-105751605D01*
X226592064Y-105869312D01*
X226607835Y-105892360D01*
X226680211Y-106014453D01*
X226739128Y-106144931D01*
X226784549Y-106283703D01*
X226812287Y-106406839D01*
X226816053Y-106428123D01*
X226819238Y-106448245D01*
X226821893Y-106468705D01*
X226824064Y-106491002D01*
X226825800Y-106516636D01*
X226827150Y-106547109D01*
X226828162Y-106583919D01*
X226828884Y-106628566D01*
X226829364Y-106682552D01*
X226829652Y-106747376D01*
X226829795Y-106824538D01*
X226829841Y-106915538D01*
X226829843Y-106951750D01*
X226829780Y-107056904D01*
X226829510Y-107147785D01*
X226828912Y-107225994D01*
X226827862Y-107293134D01*
X226826241Y-107350807D01*
X226823925Y-107400613D01*
X226820794Y-107444156D01*
X226816725Y-107483036D01*
X226811596Y-107518856D01*
X226805287Y-107553217D01*
X226797675Y-107587721D01*
X226788638Y-107623969D01*
X226778055Y-107663565D01*
X226774848Y-107675288D01*
X226728667Y-107816166D01*
X226669162Y-107949898D01*
X226595578Y-108077947D01*
X226507163Y-108201776D01*
X226497614Y-108213813D01*
X226484319Y-108229043D01*
X226460780Y-108254467D01*
X226427990Y-108289061D01*
X226386940Y-108331805D01*
X226338624Y-108381677D01*
X226284035Y-108437658D01*
X226224165Y-108498724D01*
X226160007Y-108563856D01*
X226092554Y-108632032D01*
X226022799Y-108702232D01*
X226020774Y-108704265D01*
X225591593Y-109135187D01*
X225936875Y-109478798D01*
X226014027Y-109555470D01*
X226081164Y-109621843D01*
X226139446Y-109678890D01*
X226190032Y-109727586D01*
X226234082Y-109768908D01*
X226272756Y-109803829D01*
X226307213Y-109833324D01*
X226338615Y-109858369D01*
X226368119Y-109879939D01*
X226396887Y-109899008D01*
X226426079Y-109916552D01*
X226456853Y-109933545D01*
X226490370Y-109950962D01*
X226510909Y-109961334D01*
X226592823Y-109999162D01*
X226674869Y-110030004D01*
X226759336Y-110054270D01*
X226848514Y-110072370D01*
X226944692Y-110084710D01*
X227050161Y-110091702D01*
X227167208Y-110093752D01*
X227246562Y-110092723D01*
X227315929Y-110090771D01*
X227372276Y-110088115D01*
X227418457Y-110084318D01*
X227457325Y-110078944D01*
X227491732Y-110071557D01*
X227524533Y-110061722D01*
X227558580Y-110049000D01*
X227574029Y-110042654D01*
X227654465Y-110000745D01*
X227730524Y-109945050D01*
X227800833Y-109877368D01*
X227864019Y-109799502D01*
X227918706Y-109713253D01*
X227963520Y-109620423D01*
X227997088Y-109522812D01*
X228009407Y-109471906D01*
X228011762Y-109459863D01*
X228013854Y-109447107D01*
X228015700Y-109432677D01*
X228017315Y-109415612D01*
X228018713Y-109394951D01*
X228019912Y-109369733D01*
X228020926Y-109338996D01*
X228021771Y-109301779D01*
X228022463Y-109257122D01*
X228023017Y-109204062D01*
X228023448Y-109141640D01*
X228023772Y-109068893D01*
X228024006Y-108984861D01*
X228024163Y-108888582D01*
X228024260Y-108779096D01*
X228024313Y-108655441D01*
X228024333Y-108549234D01*
X228024437Y-107697999D01*
X227546203Y-107695953D01*
X227067968Y-107693906D01*
X227067968Y-106733469D01*
X229953372Y-106729457D01*
X229951327Y-107211682D01*
X229949281Y-107693906D01*
X229471426Y-107695952D01*
X228993571Y-107697999D01*
X228990662Y-108588921D01*
X228990208Y-108730761D01*
X228989791Y-108857739D01*
X228989361Y-108970868D01*
X228988867Y-109071163D01*
X228988260Y-109159636D01*
X228987490Y-109237300D01*
X228986507Y-109305169D01*
X228985262Y-109364255D01*
X228983704Y-109415573D01*
X228981783Y-109460135D01*
X228979450Y-109498955D01*
X228976655Y-109533045D01*
X228973348Y-109563420D01*
X228969479Y-109591092D01*
X228964998Y-109617074D01*
X228959855Y-109642380D01*
X228954001Y-109668023D01*
X228947386Y-109695016D01*
X228939959Y-109724373D01*
X228933532Y-109749719D01*
X228884569Y-109911942D01*
X228821348Y-110067207D01*
X228743929Y-110215399D01*
X228652376Y-110356408D01*
X228546751Y-110490121D01*
X228477198Y-110566229D01*
X228361237Y-110675427D01*
X228236357Y-110771801D01*
X228103438Y-110854909D01*
X227963359Y-110924305D01*
X227816998Y-110979545D01*
X227665235Y-111020187D01*
X227533568Y-111042803D01*
X227498040Y-111046759D01*
X227458763Y-111049805D01*
X227413535Y-111052009D01*
X227360155Y-111053442D01*
X227296419Y-111054172D01*
X227220125Y-111054270D01*
X227176381Y-111054103D01*
X227112246Y-111053692D01*
X227051914Y-111053151D01*
X226997561Y-111052511D01*
X226951362Y-111051805D01*
X226915493Y-111051063D01*
X226892129Y-111050317D01*
X226885406Y-111049917D01*
X226695765Y-111025135D01*
X226511229Y-110985403D01*
X226332195Y-110930879D01*
X226159058Y-110861720D01*
X225992212Y-110778083D01*
X225832053Y-110680127D01*
X225680374Y-110569123D01*
X225659980Y-110551744D01*
X225629670Y-110524328D01*
X225590720Y-110488094D01*
X225544403Y-110444263D01*
X225491996Y-110394057D01*
X225434774Y-110338696D01*
X225374012Y-110279401D01*
X225310985Y-110217393D01*
X225254250Y-110161142D01*
X224908968Y-109817532D01*
X224359303Y-110367004D01*
X223809638Y-110916475D01*
X223468341Y-110575247D01*
X223127044Y-110234020D01*
X224446844Y-108912369D01*
X224599907Y-108759052D01*
X224742032Y-108616605D01*
X224873538Y-108484706D01*
X224994742Y-108363031D01*
X225105964Y-108251257D01*
X225207522Y-108149060D01*
X225299734Y-108056116D01*
X225382920Y-107972104D01*
X225457396Y-107896698D01*
X225523483Y-107829577D01*
X225581497Y-107770416D01*
X225631759Y-107718892D01*
X225674585Y-107674682D01*
X225710296Y-107637462D01*
X225739208Y-107606909D01*
X225761642Y-107582700D01*
X225777914Y-107564512D01*
X225788344Y-107552020D01*
X225792790Y-107545750D01*
X225809256Y-107514337D01*
X225826628Y-107476380D01*
X225840202Y-107442562D01*
X225861468Y-107384344D01*
X225864065Y-106987469D01*
X225864594Y-106886364D01*
X225864746Y-106800214D01*
X225864507Y-106728099D01*
X225863862Y-106669105D01*
X225862797Y-106622312D01*
X225861298Y-106586805D01*
X225859350Y-106561665D01*
X225857156Y-106546938D01*
X225834393Y-106478299D01*
X225798307Y-106415398D01*
X225750924Y-106360212D01*
X225694269Y-106314718D01*
X225630368Y-106280895D01*
X225564679Y-106261352D01*
X225546396Y-106259414D01*
X225514056Y-106257666D01*
X225469476Y-106256151D01*
X225414474Y-106254910D01*
X225350867Y-106253985D01*
X225280472Y-106253419D01*
X225213479Y-106253250D01*
X224905000Y-106253250D01*
X224905000Y-105291735D01*
X225291953Y-105294916D01*
X225291953Y-105294916D01*
G37*
X225291953Y-105294916D02*
X225381118Y-105295683D01*
X225456014Y-105296437D01*
X225518244Y-105297251D01*
X225569412Y-105298196D01*
X225611124Y-105299345D01*
X225644984Y-105300768D01*
X225672596Y-105302538D01*
X225695566Y-105304726D01*
X225715497Y-105307403D01*
X225733994Y-105310643D01*
X225752661Y-105314516D01*
X225758281Y-105315755D01*
X225904711Y-105355884D01*
X226042194Y-105409105D01*
X226170634Y-105475351D01*
X226289937Y-105554560D01*
X226400006Y-105646666D01*
X226500747Y-105751605D01*
X226592064Y-105869312D01*
X226607835Y-105892360D01*
X226680211Y-106014453D01*
X226739128Y-106144931D01*
X226784549Y-106283703D01*
X226812287Y-106406839D01*
X226816053Y-106428123D01*
X226819238Y-106448245D01*
X226821893Y-106468705D01*
X226824064Y-106491002D01*
X226825800Y-106516636D01*
X226827150Y-106547109D01*
X226828162Y-106583919D01*
X226828884Y-106628566D01*
X226829364Y-106682552D01*
X226829652Y-106747376D01*
X226829795Y-106824538D01*
X226829841Y-106915538D01*
X226829843Y-106951750D01*
X226829780Y-107056904D01*
X226829510Y-107147785D01*
X226828912Y-107225994D01*
X226827862Y-107293134D01*
X226826241Y-107350807D01*
X226823925Y-107400613D01*
X226820794Y-107444156D01*
X226816725Y-107483036D01*
X226811596Y-107518856D01*
X226805287Y-107553217D01*
X226797675Y-107587721D01*
X226788638Y-107623969D01*
X226778055Y-107663565D01*
X226774848Y-107675288D01*
X226728667Y-107816166D01*
X226669162Y-107949898D01*
X226595578Y-108077947D01*
X226507163Y-108201776D01*
X226497614Y-108213813D01*
X226484319Y-108229043D01*
X226460780Y-108254467D01*
X226427990Y-108289061D01*
X226386940Y-108331805D01*
X226338624Y-108381677D01*
X226284035Y-108437658D01*
X226224165Y-108498724D01*
X226160007Y-108563856D01*
X226092554Y-108632032D01*
X226022799Y-108702232D01*
X226020774Y-108704265D01*
X225591593Y-109135187D01*
X225936875Y-109478798D01*
X226014027Y-109555470D01*
X226081164Y-109621843D01*
X226139446Y-109678890D01*
X226190032Y-109727586D01*
X226234082Y-109768908D01*
X226272756Y-109803829D01*
X226307213Y-109833324D01*
X226338615Y-109858369D01*
X226368119Y-109879939D01*
X226396887Y-109899008D01*
X226426079Y-109916552D01*
X226456853Y-109933545D01*
X226490370Y-109950962D01*
X226510909Y-109961334D01*
X226592823Y-109999162D01*
X226674869Y-110030004D01*
X226759336Y-110054270D01*
X226848514Y-110072370D01*
X226944692Y-110084710D01*
X227050161Y-110091702D01*
X227167208Y-110093752D01*
X227246562Y-110092723D01*
X227315929Y-110090771D01*
X227372276Y-110088115D01*
X227418457Y-110084318D01*
X227457325Y-110078944D01*
X227491732Y-110071557D01*
X227524533Y-110061722D01*
X227558580Y-110049000D01*
X227574029Y-110042654D01*
X227654465Y-110000745D01*
X227730524Y-109945050D01*
X227800833Y-109877368D01*
X227864019Y-109799502D01*
X227918706Y-109713253D01*
X227963520Y-109620423D01*
X227997088Y-109522812D01*
X228009407Y-109471906D01*
X228011762Y-109459863D01*
X228013854Y-109447107D01*
X228015700Y-109432677D01*
X228017315Y-109415612D01*
X228018713Y-109394951D01*
X228019912Y-109369733D01*
X228020926Y-109338996D01*
X228021771Y-109301779D01*
X228022463Y-109257122D01*
X228023017Y-109204062D01*
X228023448Y-109141640D01*
X228023772Y-109068893D01*
X228024006Y-108984861D01*
X228024163Y-108888582D01*
X228024260Y-108779096D01*
X228024313Y-108655441D01*
X228024333Y-108549234D01*
X228024437Y-107697999D01*
X227546203Y-107695953D01*
X227067968Y-107693906D01*
X227067968Y-106733469D01*
X229953372Y-106729457D01*
X229951327Y-107211682D01*
X229949281Y-107693906D01*
X229471426Y-107695952D01*
X228993571Y-107697999D01*
X228990662Y-108588921D01*
X228990208Y-108730761D01*
X228989791Y-108857739D01*
X228989361Y-108970868D01*
X228988867Y-109071163D01*
X228988260Y-109159636D01*
X228987490Y-109237300D01*
X228986507Y-109305169D01*
X228985262Y-109364255D01*
X228983704Y-109415573D01*
X228981783Y-109460135D01*
X228979450Y-109498955D01*
X228976655Y-109533045D01*
X228973348Y-109563420D01*
X228969479Y-109591092D01*
X228964998Y-109617074D01*
X228959855Y-109642380D01*
X228954001Y-109668023D01*
X228947386Y-109695016D01*
X228939959Y-109724373D01*
X228933532Y-109749719D01*
X228884569Y-109911942D01*
X228821348Y-110067207D01*
X228743929Y-110215399D01*
X228652376Y-110356408D01*
X228546751Y-110490121D01*
X228477198Y-110566229D01*
X228361237Y-110675427D01*
X228236357Y-110771801D01*
X228103438Y-110854909D01*
X227963359Y-110924305D01*
X227816998Y-110979545D01*
X227665235Y-111020187D01*
X227533568Y-111042803D01*
X227498040Y-111046759D01*
X227458763Y-111049805D01*
X227413535Y-111052009D01*
X227360155Y-111053442D01*
X227296419Y-111054172D01*
X227220125Y-111054270D01*
X227176381Y-111054103D01*
X227112246Y-111053692D01*
X227051914Y-111053151D01*
X226997561Y-111052511D01*
X226951362Y-111051805D01*
X226915493Y-111051063D01*
X226892129Y-111050317D01*
X226885406Y-111049917D01*
X226695765Y-111025135D01*
X226511229Y-110985403D01*
X226332195Y-110930879D01*
X226159058Y-110861720D01*
X225992212Y-110778083D01*
X225832053Y-110680127D01*
X225680374Y-110569123D01*
X225659980Y-110551744D01*
X225629670Y-110524328D01*
X225590720Y-110488094D01*
X225544403Y-110444263D01*
X225491996Y-110394057D01*
X225434774Y-110338696D01*
X225374012Y-110279401D01*
X225310985Y-110217393D01*
X225254250Y-110161142D01*
X224908968Y-109817532D01*
X224359303Y-110367004D01*
X223809638Y-110916475D01*
X223468341Y-110575247D01*
X223127044Y-110234020D01*
X224446844Y-108912369D01*
X224599907Y-108759052D01*
X224742032Y-108616605D01*
X224873538Y-108484706D01*
X224994742Y-108363031D01*
X225105964Y-108251257D01*
X225207522Y-108149060D01*
X225299734Y-108056116D01*
X225382920Y-107972104D01*
X225457396Y-107896698D01*
X225523483Y-107829577D01*
X225581497Y-107770416D01*
X225631759Y-107718892D01*
X225674585Y-107674682D01*
X225710296Y-107637462D01*
X225739208Y-107606909D01*
X225761642Y-107582700D01*
X225777914Y-107564512D01*
X225788344Y-107552020D01*
X225792790Y-107545750D01*
X225809256Y-107514337D01*
X225826628Y-107476380D01*
X225840202Y-107442562D01*
X225861468Y-107384344D01*
X225864065Y-106987469D01*
X225864594Y-106886364D01*
X225864746Y-106800214D01*
X225864507Y-106728099D01*
X225863862Y-106669105D01*
X225862797Y-106622312D01*
X225861298Y-106586805D01*
X225859350Y-106561665D01*
X225857156Y-106546938D01*
X225834393Y-106478299D01*
X225798307Y-106415398D01*
X225750924Y-106360212D01*
X225694269Y-106314718D01*
X225630368Y-106280895D01*
X225564679Y-106261352D01*
X225546396Y-106259414D01*
X225514056Y-106257666D01*
X225469476Y-106256151D01*
X225414474Y-106254910D01*
X225350867Y-106253985D01*
X225280472Y-106253419D01*
X225213479Y-106253250D01*
X224905000Y-106253250D01*
X224905000Y-105291735D01*
X225291953Y-105294916D01*
G36*
X221689913Y-104097971D02*
X221838409Y-104121437D01*
X221986238Y-104160749D01*
X222002991Y-104166222D01*
X222142320Y-104220788D01*
X222273753Y-104288697D01*
X222396550Y-104369125D01*
X222509972Y-104461244D01*
X222613279Y-104564230D01*
X222705733Y-104677256D01*
X222786593Y-104799495D01*
X222855121Y-104930122D01*
X222910577Y-105068312D01*
X222952221Y-105213237D01*
X222956312Y-105231297D01*
X222969843Y-105292813D01*
X224666875Y-105292813D01*
X224666875Y-106253250D01*
X224071562Y-106253250D01*
X224071562Y-108249549D01*
X222740038Y-109581056D01*
X222618564Y-109702511D01*
X222500041Y-109820984D01*
X222384959Y-109935984D01*
X222273808Y-110047025D01*
X222167077Y-110153618D01*
X222065255Y-110255276D01*
X221968832Y-110351509D01*
X221878298Y-110441831D01*
X221794142Y-110525752D01*
X221716854Y-110602785D01*
X221646924Y-110672441D01*
X221584840Y-110734234D01*
X221531094Y-110787673D01*
X221486173Y-110832272D01*
X221450568Y-110867542D01*
X221424768Y-110892995D01*
X221409263Y-110908143D01*
X221404518Y-110912563D01*
X221398343Y-110907104D01*
X221381945Y-110891379D01*
X221356308Y-110866360D01*
X221322419Y-110833023D01*
X221281262Y-110792340D01*
X221233825Y-110745287D01*
X221181091Y-110692838D01*
X221124046Y-110635966D01*
X221065199Y-110577169D01*
X221004927Y-110516755D01*
X220948131Y-110459576D01*
X220895788Y-110406631D01*
X220848874Y-110358919D01*
X220808363Y-110317440D01*
X220775233Y-110283191D01*
X220750458Y-110257173D01*
X220735015Y-110240383D01*
X220729875Y-110233862D01*
X220735405Y-110227567D01*
X220751652Y-110210576D01*
X220778098Y-110183410D01*
X220814226Y-110146589D01*
X220859518Y-110100635D01*
X220913457Y-110046068D01*
X220975525Y-109983409D01*
X221045205Y-109913178D01*
X221121981Y-109835897D01*
X221205334Y-109752087D01*
X221294747Y-109662267D01*
X221389702Y-109566960D01*
X221489683Y-109466685D01*
X221594172Y-109361964D01*
X221702652Y-109253318D01*
X221814604Y-109141266D01*
X221916531Y-109039313D01*
X223103187Y-107852676D01*
X223103187Y-106253250D01*
X222795680Y-106253250D01*
X222754826Y-106316129D01*
X222682243Y-106416709D01*
X222597707Y-106514697D01*
X222505073Y-106606064D01*
X222408199Y-106686783D01*
X222380180Y-106707399D01*
X222330691Y-106740216D01*
X222271455Y-106775585D01*
X222207660Y-106810674D01*
X222144491Y-106842652D01*
X222087136Y-106868686D01*
X222077265Y-106872751D01*
X222031625Y-106891171D01*
X222031625Y-107891993D01*
X221658615Y-108265231D01*
X221285606Y-108638469D01*
X220944248Y-108297198D01*
X220602890Y-107955928D01*
X221063250Y-107495370D01*
X221063250Y-106891474D01*
X220981169Y-106857765D01*
X220866217Y-106803076D01*
X220752675Y-106734519D01*
X220643391Y-106654036D01*
X220541215Y-106563570D01*
X220522493Y-106545064D01*
X220484512Y-106504782D01*
X220444255Y-106458581D01*
X220404480Y-106409929D01*
X220367942Y-106362296D01*
X220337397Y-106319151D01*
X220316911Y-106286317D01*
X220298326Y-106253250D01*
X219388437Y-106253250D01*
X219388437Y-107495442D01*
X220277448Y-108384479D01*
X221166458Y-109273517D01*
X220825129Y-109614777D01*
X220483799Y-109956038D01*
X219388437Y-108860762D01*
X219388437Y-110817435D01*
X218906234Y-110815390D01*
X218424031Y-110813344D01*
X218420035Y-106253250D01*
X216983375Y-106253250D01*
X216983375Y-105507009D01*
X221072039Y-105507009D01*
X221072177Y-105562885D01*
X221076291Y-105615106D01*
X221083319Y-105653554D01*
X221110932Y-105729107D01*
X221152146Y-105799752D01*
X221204950Y-105863456D01*
X221267335Y-105918189D01*
X221337288Y-105961919D01*
X221412799Y-105992614D01*
X221421419Y-105995125D01*
X221460281Y-106002132D01*
X221509302Y-106005354D01*
X221563284Y-106004983D01*
X221617025Y-106001212D01*
X221665326Y-105994234D01*
X221701680Y-105984723D01*
X221780260Y-105948340D01*
X221849871Y-105900041D01*
X221909347Y-105841349D01*
X221957524Y-105773792D01*
X221993234Y-105698893D01*
X222015313Y-105618179D01*
X222021641Y-105565957D01*
X222019979Y-105477858D01*
X222003386Y-105395137D01*
X221971930Y-105317975D01*
X221925682Y-105246558D01*
X221881672Y-105197213D01*
X221815101Y-105139984D01*
X221745616Y-105097996D01*
X221671781Y-105070688D01*
X221592159Y-105057494D01*
X221523625Y-105056709D01*
X221439501Y-105068242D01*
X221360146Y-105093722D01*
X221287140Y-105131883D01*
X221222062Y-105181460D01*
X221166494Y-105241187D01*
X221122014Y-105309800D01*
X221090203Y-105386034D01*
X221083658Y-105409052D01*
X221075869Y-105453668D01*
X221072039Y-105507009D01*
X216983375Y-105507009D01*
X216983375Y-105292813D01*
X218419829Y-105292813D01*
X218421930Y-105052703D01*
X218424031Y-104812594D01*
X219388437Y-104808502D01*
X219388437Y-105292813D01*
X220123712Y-105292813D01*
X220134077Y-105239234D01*
X220155755Y-105150926D01*
X220187258Y-105055890D01*
X220226798Y-104958222D01*
X220272586Y-104862016D01*
X220322834Y-104771369D01*
X220370688Y-104697500D01*
X220405037Y-104652855D01*
X220449092Y-104601849D01*
X220499787Y-104547549D01*
X220554057Y-104493020D01*
X220608835Y-104441330D01*
X220661055Y-104395544D01*
X220707651Y-104358730D01*
X220714000Y-104354147D01*
X220770279Y-104317344D01*
X220836961Y-104278919D01*
X220909199Y-104241307D01*
X220982152Y-104206944D01*
X221050975Y-104178265D01*
X221095000Y-104162584D01*
X221243293Y-104122657D01*
X221392067Y-104098580D01*
X221541036Y-104090351D01*
X221689913Y-104097971D01*
X221689913Y-104097971D01*
G37*
X221689913Y-104097971D02*
X221838409Y-104121437D01*
X221986238Y-104160749D01*
X222002991Y-104166222D01*
X222142320Y-104220788D01*
X222273753Y-104288697D01*
X222396550Y-104369125D01*
X222509972Y-104461244D01*
X222613279Y-104564230D01*
X222705733Y-104677256D01*
X222786593Y-104799495D01*
X222855121Y-104930122D01*
X222910577Y-105068312D01*
X222952221Y-105213237D01*
X222956312Y-105231297D01*
X222969843Y-105292813D01*
X224666875Y-105292813D01*
X224666875Y-106253250D01*
X224071562Y-106253250D01*
X224071562Y-108249549D01*
X222740038Y-109581056D01*
X222618564Y-109702511D01*
X222500041Y-109820984D01*
X222384959Y-109935984D01*
X222273808Y-110047025D01*
X222167077Y-110153618D01*
X222065255Y-110255276D01*
X221968832Y-110351509D01*
X221878298Y-110441831D01*
X221794142Y-110525752D01*
X221716854Y-110602785D01*
X221646924Y-110672441D01*
X221584840Y-110734234D01*
X221531094Y-110787673D01*
X221486173Y-110832272D01*
X221450568Y-110867542D01*
X221424768Y-110892995D01*
X221409263Y-110908143D01*
X221404518Y-110912563D01*
X221398343Y-110907104D01*
X221381945Y-110891379D01*
X221356308Y-110866360D01*
X221322419Y-110833023D01*
X221281262Y-110792340D01*
X221233825Y-110745287D01*
X221181091Y-110692838D01*
X221124046Y-110635966D01*
X221065199Y-110577169D01*
X221004927Y-110516755D01*
X220948131Y-110459576D01*
X220895788Y-110406631D01*
X220848874Y-110358919D01*
X220808363Y-110317440D01*
X220775233Y-110283191D01*
X220750458Y-110257173D01*
X220735015Y-110240383D01*
X220729875Y-110233862D01*
X220735405Y-110227567D01*
X220751652Y-110210576D01*
X220778098Y-110183410D01*
X220814226Y-110146589D01*
X220859518Y-110100635D01*
X220913457Y-110046068D01*
X220975525Y-109983409D01*
X221045205Y-109913178D01*
X221121981Y-109835897D01*
X221205334Y-109752087D01*
X221294747Y-109662267D01*
X221389702Y-109566960D01*
X221489683Y-109466685D01*
X221594172Y-109361964D01*
X221702652Y-109253318D01*
X221814604Y-109141266D01*
X221916531Y-109039313D01*
X223103187Y-107852676D01*
X223103187Y-106253250D01*
X222795680Y-106253250D01*
X222754826Y-106316129D01*
X222682243Y-106416709D01*
X222597707Y-106514697D01*
X222505073Y-106606064D01*
X222408199Y-106686783D01*
X222380180Y-106707399D01*
X222330691Y-106740216D01*
X222271455Y-106775585D01*
X222207660Y-106810674D01*
X222144491Y-106842652D01*
X222087136Y-106868686D01*
X222077265Y-106872751D01*
X222031625Y-106891171D01*
X222031625Y-107891993D01*
X221658615Y-108265231D01*
X221285606Y-108638469D01*
X220944248Y-108297198D01*
X220602890Y-107955928D01*
X221063250Y-107495370D01*
X221063250Y-106891474D01*
X220981169Y-106857765D01*
X220866217Y-106803076D01*
X220752675Y-106734519D01*
X220643391Y-106654036D01*
X220541215Y-106563570D01*
X220522493Y-106545064D01*
X220484512Y-106504782D01*
X220444255Y-106458581D01*
X220404480Y-106409929D01*
X220367942Y-106362296D01*
X220337397Y-106319151D01*
X220316911Y-106286317D01*
X220298326Y-106253250D01*
X219388437Y-106253250D01*
X219388437Y-107495442D01*
X220277448Y-108384479D01*
X221166458Y-109273517D01*
X220825129Y-109614777D01*
X220483799Y-109956038D01*
X219388437Y-108860762D01*
X219388437Y-110817435D01*
X218906234Y-110815390D01*
X218424031Y-110813344D01*
X218420035Y-106253250D01*
X216983375Y-106253250D01*
X216983375Y-105507009D01*
X221072039Y-105507009D01*
X221072177Y-105562885D01*
X221076291Y-105615106D01*
X221083319Y-105653554D01*
X221110932Y-105729107D01*
X221152146Y-105799752D01*
X221204950Y-105863456D01*
X221267335Y-105918189D01*
X221337288Y-105961919D01*
X221412799Y-105992614D01*
X221421419Y-105995125D01*
X221460281Y-106002132D01*
X221509302Y-106005354D01*
X221563284Y-106004983D01*
X221617025Y-106001212D01*
X221665326Y-105994234D01*
X221701680Y-105984723D01*
X221780260Y-105948340D01*
X221849871Y-105900041D01*
X221909347Y-105841349D01*
X221957524Y-105773792D01*
X221993234Y-105698893D01*
X222015313Y-105618179D01*
X222021641Y-105565957D01*
X222019979Y-105477858D01*
X222003386Y-105395137D01*
X221971930Y-105317975D01*
X221925682Y-105246558D01*
X221881672Y-105197213D01*
X221815101Y-105139984D01*
X221745616Y-105097996D01*
X221671781Y-105070688D01*
X221592159Y-105057494D01*
X221523625Y-105056709D01*
X221439501Y-105068242D01*
X221360146Y-105093722D01*
X221287140Y-105131883D01*
X221222062Y-105181460D01*
X221166494Y-105241187D01*
X221122014Y-105309800D01*
X221090203Y-105386034D01*
X221083658Y-105409052D01*
X221075869Y-105453668D01*
X221072039Y-105507009D01*
X216983375Y-105507009D01*
X216983375Y-105292813D01*
X218419829Y-105292813D01*
X218421930Y-105052703D01*
X218424031Y-104812594D01*
X219388437Y-104808502D01*
X219388437Y-105292813D01*
X220123712Y-105292813D01*
X220134077Y-105239234D01*
X220155755Y-105150926D01*
X220187258Y-105055890D01*
X220226798Y-104958222D01*
X220272586Y-104862016D01*
X220322834Y-104771369D01*
X220370688Y-104697500D01*
X220405037Y-104652855D01*
X220449092Y-104601849D01*
X220499787Y-104547549D01*
X220554057Y-104493020D01*
X220608835Y-104441330D01*
X220661055Y-104395544D01*
X220707651Y-104358730D01*
X220714000Y-104354147D01*
X220770279Y-104317344D01*
X220836961Y-104278919D01*
X220909199Y-104241307D01*
X220982152Y-104206944D01*
X221050975Y-104178265D01*
X221095000Y-104162584D01*
X221243293Y-104122657D01*
X221392067Y-104098580D01*
X221541036Y-104090351D01*
X221689913Y-104097971D01*
G36*
X217943812Y-110817313D02*
X216983375Y-110817313D01*
X216983375Y-107451813D01*
X217943812Y-107451813D01*
X217943812Y-110817313D01*
X217943812Y-110817313D01*
G37*
X217943812Y-110817313D02*
X216983375Y-110817313D01*
X216983375Y-107451813D01*
X217943812Y-107451813D01*
X217943812Y-110817313D01*
G36*
X229953250Y-106253250D02*
X227064000Y-106253250D01*
X227064000Y-105292813D01*
X229953250Y-105292813D01*
X229953250Y-106253250D01*
X229953250Y-106253250D01*
G37*
X229953250Y-106253250D02*
X227064000Y-106253250D01*
X227064000Y-105292813D01*
X229953250Y-105292813D01*
X229953250Y-106253250D01*
D12*
X217524000Y-123500000D02*
X219048000Y-123500000D01*
X214476000Y-123500000D02*
X212952000Y-123500000D01*
X214498860Y-122499240D02*
X214498860Y-124500760D01*
X214498860Y-124500760D02*
X217501140Y-124500760D01*
X217501140Y-124500760D02*
X217501140Y-122499240D01*
X217501140Y-122499240D02*
X214498860Y-122499240D01*
X217524000Y-126000000D02*
X219048000Y-126000000D01*
X214476000Y-126000000D02*
X212952000Y-126000000D01*
X214498860Y-124999240D02*
X214498860Y-127000760D01*
X214498860Y-127000760D02*
X217501140Y-127000760D01*
X217501140Y-127000760D02*
X217501140Y-124999240D01*
X217501140Y-124999240D02*
X214498860Y-124999240D01*
X185600000Y-105500000D02*
X184500000Y-105500000D01*
X189200000Y-105500000D02*
X190500000Y-105500000D01*
X189200000Y-106500000D02*
X185600000Y-106500000D01*
X185600000Y-106500000D02*
X185600000Y-104500000D01*
X185600000Y-104500000D02*
X189200000Y-104500000D01*
X189200000Y-104500000D02*
X189200000Y-106500000D01*
X188706500Y-106452500D02*
X188706500Y-104547500D01*
X215833334Y-124052381D02*
X215500000Y-123576190D01*
X215261905Y-124052381D02*
X215261905Y-123052381D01*
X215642858Y-123052381D01*
X215738096Y-123100000D01*
X215785715Y-123147619D01*
X215833334Y-123242857D01*
X215833334Y-123385714D01*
X215785715Y-123480952D01*
X215738096Y-123528571D01*
X215642858Y-123576190D01*
X215261905Y-123576190D01*
X216785715Y-124052381D02*
X216214286Y-124052381D01*
X216500000Y-124052381D02*
X216500000Y-123052381D01*
X216404762Y-123195238D01*
X216309524Y-123290476D01*
X216214286Y-123338095D01*
X215833334Y-126552381D02*
X215500000Y-126076190D01*
X215261905Y-126552381D02*
X215261905Y-125552381D01*
X215642858Y-125552381D01*
X215738096Y-125600000D01*
X215785715Y-125647619D01*
X215833334Y-125742857D01*
X215833334Y-125885714D01*
X215785715Y-125980952D01*
X215738096Y-126028571D01*
X215642858Y-126076190D01*
X215261905Y-126076190D01*
X216214286Y-125647619D02*
X216261905Y-125600000D01*
X216357143Y-125552381D01*
X216595239Y-125552381D01*
X216690477Y-125600000D01*
X216738096Y-125647619D01*
X216785715Y-125742857D01*
X216785715Y-125838095D01*
X216738096Y-125980952D01*
X216166667Y-126552381D01*
X216785715Y-126552381D01*
X186444405Y-105888881D02*
X186444405Y-104888881D01*
X186682500Y-104888881D01*
X186825358Y-104936500D01*
X186920596Y-105031738D01*
X186968215Y-105126976D01*
X187015834Y-105317452D01*
X187015834Y-105460310D01*
X186968215Y-105650786D01*
X186920596Y-105746024D01*
X186825358Y-105841262D01*
X186682500Y-105888881D01*
X186444405Y-105888881D01*
X187968215Y-105888881D02*
X187396786Y-105888881D01*
X187682500Y-105888881D02*
X187682500Y-104888881D01*
X187587262Y-105031738D01*
X187492024Y-105126976D01*
X187396786Y-105174595D01*
%LPC*%
D14*
X218500000Y-116500000D03*
D15*
X215960000Y-116500000D03*
X213420000Y-116500000D03*
D14*
X225420000Y-119880000D03*
D15*
X227960000Y-119880000D03*
X225420000Y-122420000D03*
X227960000Y-122420000D03*
X225420000Y-124960000D03*
X227960000Y-124960000D03*
D14*
X208500000Y-105500000D03*
D15*
X205960000Y-105500000D03*
D16*
X180770000Y-123820000D03*
D17*
X183310000Y-123820000D03*
X185850000Y-123820000D03*
X188390000Y-123820000D03*
X190930000Y-123820000D03*
X193470000Y-123820000D03*
X196010000Y-123820000D03*
X198550000Y-123820000D03*
X201090000Y-123820000D03*
X203630000Y-123820000D03*
X206170000Y-123820000D03*
X208710000Y-123820000D03*
X208710000Y-108580000D03*
X206170000Y-108580000D03*
X203630000Y-108580000D03*
X201090000Y-108580000D03*
X198550000Y-108580000D03*
X196010000Y-108580000D03*
X193470000Y-108580000D03*
X190930000Y-108580000D03*
X188390000Y-108580000D03*
X185850000Y-108580000D03*
X183310000Y-108580000D03*
X180770000Y-108580000D03*
D18*
X215240000Y-111500000D03*
X212700000Y-111500000D03*
X210160000Y-111500000D03*
X205080000Y-111500000D03*
X202540000Y-111500000D03*
X200000000Y-111500000D03*
X194920000Y-111500000D03*
X192380000Y-111500000D03*
D19*
X200000000Y-120500000D03*
D20*
X200000000Y-117000000D03*
D19*
X204000000Y-120500000D03*
X208000000Y-120500000D03*
X212000000Y-120500000D03*
X216000000Y-120500000D03*
X220000000Y-120500000D03*
X196000000Y-120500000D03*
X192000000Y-120500000D03*
X188000000Y-120500000D03*
D18*
X196400000Y-105500000D03*
D15*
X212190000Y-123500000D03*
X219810000Y-123500000D03*
X212190000Y-126000000D03*
X219810000Y-126000000D03*
D14*
X191310000Y-105500000D03*
D15*
X183690000Y-105500000D03*
M02*
